<svg width="451" height="277" viewBox="0 0 451 277" fill="none" xmlns="http://www.w3.org/2000/svg">
<path d="M33 245C33 237.268 126.574 231 241.996 231C357.433 231 451 237.269 451 245C451 252.731 357.433 259 241.996 259C126.575 259 33 252.731 33 245Z" fill="#E8E8E8"/>
<mask id="mask0_9047_371" style="mask-type:luminance" maskUnits="userSpaceOnUse" x="134" y="86" width="183" height="155">
<path d="M316.378 86.8965H134V240.067H316.378V86.8965Z" fill="white"/>
</mask>
<g mask="url(#mask0_9047_371)">
<path d="M286.432 236.912C320.258 203.086 320.258 148.243 286.432 114.418C252.607 80.5917 197.764 80.5917 163.938 114.418C130.113 148.243 130.113 203.086 163.938 236.912C197.764 270.737 252.607 270.737 286.432 236.912Z" fill="#5D5D5D"/>
<path d="M153.149 175.665C153.149 135.878 185.403 103.624 225.189 103.624C264.976 103.624 297.23 135.878 297.23 175.665C297.23 215.453 264.976 247.706 225.189 247.706C185.403 247.706 153.149 215.453 153.149 175.665Z" fill="#4A4A4A"/>
<path d="M225.188 237.173C191.272 237.173 163.682 209.581 163.682 175.665C163.682 141.75 191.272 114.158 225.188 114.158C259.105 114.158 286.696 141.75 286.696 175.665C286.696 209.581 259.106 237.173 225.188 237.173ZM225.188 115.235C191.867 115.235 164.758 142.345 164.758 175.666C164.758 208.989 191.868 236.098 225.188 236.098C258.512 236.098 285.622 208.988 285.622 175.666C285.622 142.344 258.512 115.235 225.188 115.235Z" fill="#767676"/>
<path d="M225.188 236.475C191.66 236.475 164.38 209.197 164.38 175.665C164.38 142.137 191.66 114.857 225.188 114.857C258.717 114.857 285.999 142.136 285.999 175.665C285.999 209.197 258.718 236.475 225.188 236.475ZM225.188 115.396C191.956 115.396 164.917 142.432 164.917 175.665C164.917 208.899 191.955 235.937 225.188 235.937C258.423 235.937 285.46 208.899 285.46 175.665C285.46 142.433 258.423 115.396 225.188 115.396Z" fill="#3F3F3F"/>
<path d="M225.188 253.177C182.447 253.177 147.679 218.405 147.679 175.665C147.679 132.925 182.448 98.157 225.188 98.157C267.929 98.157 302.698 132.926 302.698 175.665C302.699 218.406 267.929 253.177 225.188 253.177ZM225.188 99.2307C183.043 99.2307 148.752 133.52 148.752 175.665C148.752 217.812 183.042 252.101 225.188 252.101C267.336 252.101 301.625 217.813 301.625 175.665C301.625 133.521 267.336 99.2307 225.188 99.2307Z" fill="#767676"/>
<path d="M225.188 252.367C182.898 252.367 148.488 217.959 148.488 175.665C148.488 133.373 182.897 98.9653 225.188 98.9653C267.481 98.9653 301.888 133.373 301.888 175.665C301.888 217.959 267.481 252.367 225.188 252.367ZM225.188 99.5063C183.193 99.5063 149.027 133.671 149.027 175.665C149.027 217.661 183.193 251.827 225.188 251.827C267.185 251.827 301.35 217.661 301.35 175.665C301.35 133.671 267.186 99.5063 225.188 99.5063Z" fill="#3F3F3F"/>
<path d="M270.792 239.72L269.65 249.971C270.164 249.664 270.674 249.35 271.18 249.035L271.498 239.314L270.792 239.72Z" fill="#4A4A4A"/>
<path d="M280.526 231.026L281.222 241.685C282.523 240.578 283.799 239.426 285.049 238.227L282.831 228.721L280.526 231.026Z" fill="#4A4A4A"/>
<path d="M285.819 225.734L287.369 235.931C287.785 235.5 288.197 235.068 288.602 234.629L286.393 225.16L285.819 225.734Z" fill="#4A4A4A"/>
<path d="M292.969 214.816L296.398 224.933C297.37 223.527 298.304 222.083 299.202 220.6L294.599 211.992L292.969 214.816Z" fill="#4A4A4A"/>
<path d="M296.711 208.336L300.846 217.783C301.136 217.262 301.422 216.736 301.701 216.207L297.115 207.632L296.711 208.336Z" fill="#4A4A4A"/>
<path d="M300.792 195.94L306.723 204.825C307.298 203.214 307.827 201.577 308.31 199.912L301.635 192.791L300.792 195.94Z" fill="#4A4A4A"/>
<path d="M302.729 188.712L309.168 196.766C309.315 196.185 309.454 195.605 309.586 195.022L302.936 187.926L302.729 188.712Z" fill="#4A4A4A"/>
<path d="M303.461 175.681L311.491 182.727C311.628 181.023 311.716 179.307 311.752 177.574L303.462 172.42L303.461 175.681Z" fill="#4A4A4A"/>
<path d="M303.461 168.198L311.767 174.311C311.757 173.714 311.743 173.115 311.718 172.519L303.46 167.385L303.461 168.198Z" fill="#4A4A4A"/>
<path d="M300.797 155.421L310.377 160.15C310.068 158.468 309.708 156.787 309.295 155.103L299.954 152.272L300.797 155.421Z" fill="#4A4A4A"/>
<path d="M298.86 148.192L308.464 151.949C308.302 151.374 308.132 150.799 307.953 150.23L298.648 147.407L298.86 148.192Z" fill="#4A4A4A"/>
<path d="M292.982 136.54L303.457 138.628C302.724 137.085 301.941 135.555 301.107 134.036L291.352 133.718L292.982 136.54Z" fill="#4A4A4A"/>
<path d="M289.237 130.06L299.488 131.204C299.182 130.691 298.868 130.179 298.55 129.673L288.831 129.359L289.237 130.06Z" fill="#4A4A4A"/>
<path d="M280.542 120.328L291.204 119.633C290.097 118.331 288.944 117.055 287.745 115.803L278.238 118.022L280.542 120.328Z" fill="#4A4A4A"/>
<path d="M275.252 115.035L285.447 113.489C285.02 113.071 284.586 112.659 284.146 112.254L274.677 114.463L275.252 115.035Z" fill="#4A4A4A"/>
<path d="M264.333 107.884L274.452 104.455C273.044 103.485 271.601 102.551 270.118 101.653L261.511 106.256L264.333 107.884Z" fill="#4A4A4A"/>
<path d="M257.853 104.144L267.302 100.009C266.78 99.7177 266.254 99.4327 265.725 99.1531L257.149 103.738L257.853 104.144Z" fill="#4A4A4A"/>
<path d="M245.455 100.064L254.343 94.1312C252.731 93.5566 251.096 93.0293 249.431 92.5457L242.308 99.2168L245.455 100.064Z" fill="#4A4A4A"/>
<path d="M238.229 98.1249L246.284 91.6887C245.707 91.5421 245.124 91.4027 244.541 91.2698L237.445 97.9172L238.229 98.1249Z" fill="#4A4A4A"/>
<path d="M225.197 97.3936L232.245 89.3646C230.539 89.2261 228.824 89.1387 227.091 89.1023L221.936 97.3927L225.197 97.3936Z" fill="#4A4A4A"/>
<path d="M217.715 97.3917L223.828 89.0903C223.232 89.0967 222.633 89.1131 222.035 89.1359L216.9 97.3935L217.715 97.3917Z" fill="#4A4A4A"/>
<path d="M204.938 100.058L209.669 90.4775C207.986 90.7872 206.306 91.1442 204.622 91.5595L201.79 100.902L204.938 100.058Z" fill="#4A4A4A"/>
<path d="M197.71 101.995L201.466 92.3901C200.891 92.5522 200.318 92.7235 199.746 92.901L196.924 102.205L197.71 101.995Z" fill="#4A4A4A"/>
<path d="M186.057 107.875L188.147 97.3982C186.602 98.1313 185.073 98.91 183.554 99.7479L183.234 109.505L186.057 107.875Z" fill="#4A4A4A"/>
<path d="M179.577 111.615L180.721 101.367C180.206 101.673 179.697 101.986 179.191 102.304L178.873 112.022L179.577 111.615Z" fill="#4A4A4A"/>
<path d="M169.847 120.31L169.152 109.653C167.847 110.759 166.576 111.909 165.326 113.109L167.54 122.616L169.847 120.31Z" fill="#4A4A4A"/>
<path d="M164.555 125.603L163.006 115.408C162.588 115.838 162.18 116.27 161.771 116.709L163.981 126.177L164.555 125.603Z" fill="#4A4A4A"/>
<path d="M157.404 136.523L153.976 126.403C153.003 127.811 152.069 129.251 151.173 130.736L155.773 139.345L157.404 136.523Z" fill="#4A4A4A"/>
<path d="M153.663 143.001L149.529 133.554C149.236 134.075 148.951 134.602 148.672 135.13L153.257 143.705L153.663 143.001Z" fill="#4A4A4A"/>
<path d="M149.582 155.398L143.65 146.513C143.073 148.122 142.545 149.758 142.063 151.422L148.736 158.547L149.582 155.398Z" fill="#4A4A4A"/>
<path d="M147.645 162.625L141.206 154.572C141.059 155.151 140.922 155.732 140.788 156.315L147.434 163.413L147.645 162.625Z" fill="#4A4A4A"/>
<path d="M146.913 175.658L138.884 168.61C138.744 170.313 138.658 172.028 138.621 173.76L146.912 178.916L146.913 175.658Z" fill="#4A4A4A"/>
<path d="M146.912 183.138L138.606 177.025C138.615 177.623 138.633 178.221 138.653 178.817L146.911 183.954L146.912 183.138Z" fill="#4A4A4A"/>
<path d="M149.577 195.918L139.996 191.186C140.302 192.869 140.663 194.55 141.076 196.232L150.419 199.067L149.577 195.918Z" fill="#4A4A4A"/>
<path d="M151.513 203.144L141.91 199.388C142.073 199.963 142.244 200.534 142.417 201.108L151.721 203.932L151.513 203.144Z" fill="#4A4A4A"/>
<path d="M157.394 214.797L146.914 212.706C147.646 214.251 148.43 215.781 149.264 217.298L159.02 217.62L157.394 214.797Z" fill="#4A4A4A"/>
<path d="M161.134 221.275L150.884 220.133C151.191 220.647 151.507 221.154 151.821 221.664L161.538 221.981L161.134 221.275Z" fill="#4A4A4A"/>
<path d="M169.831 231.008L159.167 231.7C160.275 233.004 161.427 234.281 162.625 235.53L172.133 233.315L169.831 231.008Z" fill="#4A4A4A"/>
<path d="M175.121 236.3L164.924 237.849C165.355 238.267 165.79 238.674 166.227 239.083L175.697 236.877L175.121 236.3Z" fill="#4A4A4A"/>
<path d="M165.996 175.665C165.996 142.976 192.499 116.474 225.187 116.474C257.88 116.474 284.38 142.977 284.38 175.665C284.38 208.357 257.88 234.857 225.187 234.857C192.499 234.857 165.996 208.357 165.996 175.665Z" fill="#2A2A2A"/>
<path d="M225.069 108.801C224.156 110.63 223.427 112.22 223.144 112.969C223.569 112.293 224.399 110.749 225.308 108.918C226.221 107.089 226.951 105.495 227.233 104.75C226.809 105.426 225.979 106.97 225.069 108.801Z" fill="#5D5D5D"/>
<path d="M220.872 108.939C220.077 110.823 219.449 112.458 219.21 113.221C219.593 112.519 220.325 110.927 221.117 109.043C221.912 107.161 222.543 105.527 222.777 104.763C222.395 105.464 221.665 107.057 220.872 108.939Z" fill="#5D5D5D"/>
<path d="M216.69 109.343C216.015 111.271 215.489 112.943 215.302 113.719C215.641 112.994 216.271 111.361 216.942 109.432C217.619 107.502 218.144 105.832 218.331 105.055C217.994 105.777 217.364 107.414 216.69 109.343Z" fill="#5D5D5D"/>
<path d="M212.543 110.008C211.992 111.975 211.574 113.675 211.433 114.464C211.722 113.719 212.249 112.047 212.801 110.08C213.353 108.112 213.773 106.411 213.911 105.626C213.621 106.367 213.094 108.041 212.543 110.008Z" fill="#5D5D5D"/>
<path d="M208.446 110.932C208.017 112.931 207.707 114.654 207.615 115.448C207.862 114.688 208.28 112.986 208.707 110.987C209.135 108.989 209.448 107.265 209.535 106.473C209.291 107.23 208.872 108.933 208.446 110.932Z" fill="#5D5D5D"/>
<path d="M204.413 112.113C204.113 114.132 203.91 115.873 203.869 116.672C204.067 115.897 204.376 114.174 204.679 112.151C204.981 110.128 205.183 108.388 205.222 107.591C205.026 108.363 204.713 110.091 204.413 112.113Z" fill="#5D5D5D"/>
<path d="M200.464 113.545C200.292 115.579 200.199 117.326 200.208 118.126C200.357 117.342 200.558 115.602 200.732 113.565C200.905 111.525 200.998 109.779 200.987 108.978C200.84 109.764 200.638 111.506 200.464 113.545Z" fill="#5D5D5D"/>
<path d="M196.612 115.219C196.566 117.261 196.585 119.014 196.642 119.808C196.74 119.018 196.835 117.268 196.88 115.225C196.926 113.18 196.908 111.427 196.847 110.63C196.75 111.424 196.658 113.175 196.612 115.219Z" fill="#5D5D5D"/>
<path d="M192.874 117.135C192.958 119.174 193.083 120.921 193.192 121.711C193.243 120.916 193.227 119.163 193.142 117.122C193.061 115.078 192.933 113.331 192.821 112.538C192.774 113.337 192.791 115.09 192.874 117.135Z" fill="#5D5D5D"/>
<path d="M189.261 119.28C189.474 121.31 189.71 123.045 189.869 123.828C189.868 123.03 189.74 121.281 189.529 119.25C189.319 117.216 189.082 115.479 188.92 114.696C188.923 115.496 189.05 117.245 189.261 119.28Z" fill="#5D5D5D"/>
<path d="M185.791 121.647C186.133 123.659 186.476 125.379 186.684 126.149C186.631 125.352 186.396 123.613 186.058 121.601C185.72 119.584 185.372 117.865 185.163 117.095C185.218 117.891 185.453 119.629 185.791 121.647Z" fill="#5D5D5D"/>
<path d="M182.478 124.227C182.944 126.215 183.395 127.908 183.651 128.665C183.55 127.873 183.204 126.153 182.741 124.165C182.277 122.174 181.822 120.482 181.564 119.723C181.668 120.515 182.013 122.237 182.478 124.227Z" fill="#5D5D5D"/>
<path d="M179.335 127.01C179.925 128.964 180.478 130.625 180.784 131.364C180.632 130.582 180.178 128.886 179.591 126.932C179.003 124.973 178.444 123.312 178.14 122.573C178.292 123.358 178.743 125.055 179.335 127.01Z" fill="#5D5D5D"/>
<path d="M176.369 129.986C177.081 131.899 177.741 133.524 178.089 134.243C177.888 133.469 177.329 131.806 176.623 129.894C175.911 127.975 175.249 126.353 174.899 125.634C175.101 126.407 175.659 128.07 176.369 129.986Z" fill="#5D5D5D"/>
<path d="M173.598 133.143C174.427 135.006 175.188 136.587 175.582 137.283C175.334 136.525 174.671 134.899 173.844 133.032C173.015 131.163 172.251 129.584 171.856 128.889C172.107 129.65 172.768 131.275 173.598 133.143Z" fill="#5D5D5D"/>
<path d="M171.029 136.466C171.974 138.273 172.831 139.803 173.27 140.472C172.974 139.731 172.209 138.151 171.268 136.339C170.324 134.527 169.462 133.001 169.023 132.33C169.321 133.074 170.084 134.656 171.029 136.466Z" fill="#5D5D5D"/>
<path d="M168.676 139.945C169.732 141.691 170.685 143.163 171.163 143.804C170.821 143.081 169.961 141.552 168.905 139.803C167.848 138.054 166.893 136.585 166.416 135.943C166.759 136.665 167.618 138.197 168.676 139.945Z" fill="#5D5D5D"/>
<path d="M166.543 143.562C167.707 145.241 168.751 146.649 169.269 147.26C168.882 146.561 167.926 145.088 166.766 143.408C165.6 141.731 164.553 140.322 164.037 139.712C164.424 140.413 165.38 141.886 166.543 143.562Z" fill="#5D5D5D"/>
<path d="M164.644 147.31C165.913 148.908 167.041 150.252 167.596 150.828C167.164 150.154 166.118 148.745 164.855 147.14C163.586 145.54 162.453 144.199 161.9 143.623C162.331 144.299 163.379 145.71 164.644 147.31Z" fill="#5D5D5D"/>
<path d="M162.984 151.168C164.351 152.685 165.56 153.955 166.15 154.495C165.678 153.848 164.544 152.506 163.184 150.987C161.816 149.469 160.602 148.201 160.014 147.662C160.486 148.308 161.618 149.649 162.984 151.168Z" fill="#5D5D5D"/>
<path d="M161.567 155.122C163.028 156.55 164.314 157.741 164.936 158.243C164.426 157.629 163.21 156.363 161.757 154.928C160.296 153.501 159.007 152.312 158.383 151.81C158.896 152.427 160.112 153.693 161.567 155.122Z" fill="#5D5D5D"/>
<path d="M160.403 159.159C161.948 160.492 163.309 161.598 163.963 162.062C163.414 161.478 162.12 160.292 160.579 158.951C159.032 157.619 157.67 156.512 157.016 156.049C157.568 156.633 158.861 157.823 160.403 159.159Z" fill="#5D5D5D"/>
<path d="M159.494 163.259C161.119 164.493 162.548 165.513 163.229 165.935C162.646 165.386 161.278 164.283 159.658 163.043C158.029 161.809 156.601 160.792 155.92 160.372C156.506 160.919 157.872 162.025 159.494 163.259Z" fill="#5D5D5D"/>
<path d="M158.844 167.409C160.546 168.537 162.036 169.465 162.742 169.845C162.125 169.332 160.691 168.319 158.995 167.184C157.294 166.053 155.801 165.129 155.099 164.751C155.717 165.259 157.15 166.281 158.844 167.409Z" fill="#5D5D5D"/>
<path d="M158.458 171.592C160.225 172.612 161.77 173.442 162.501 173.777C161.85 173.307 160.358 172.384 158.594 171.356C156.824 170.335 155.277 169.505 154.55 169.174C155.202 169.644 156.695 170.57 158.458 171.592Z" fill="#5D5D5D"/>
<path d="M158.332 175.791C160.163 176.699 161.758 177.43 162.505 177.719C161.829 177.288 160.28 176.461 158.455 175.546C156.624 174.638 155.03 173.907 154.282 173.622C154.961 174.051 156.51 174.881 158.332 175.791Z" fill="#5D5D5D"/>
<path d="M158.473 179.988C160.357 180.779 161.992 181.412 162.759 181.65C162.057 181.262 160.459 180.535 158.579 179.738C156.694 178.945 155.057 178.318 154.296 178.081C154.998 178.463 156.596 179.196 158.473 179.988Z" fill="#5D5D5D"/>
<path d="M158.876 184.17C160.805 184.84 162.478 185.369 163.257 185.559C162.532 185.218 160.892 184.591 158.968 183.913C157.036 183.24 155.362 182.717 154.588 182.529C155.311 182.865 156.954 183.497 158.876 184.17Z" fill="#5D5D5D"/>
<path d="M159.541 188.318C161.508 188.866 163.209 189.287 164 189.43C163.255 189.133 161.58 188.612 159.616 188.056C157.644 187.504 155.944 187.088 155.157 186.948C155.902 187.24 157.583 187.768 159.541 188.318Z" fill="#5D5D5D"/>
<path d="M160.467 192.416C162.462 192.838 164.188 193.154 164.987 193.243C164.223 192.995 162.519 192.58 160.524 192.149C158.523 191.722 156.796 191.412 156.006 191.323C156.766 191.567 158.476 191.991 160.467 192.416Z" fill="#5D5D5D"/>
<path d="M161.645 196.448C163.665 196.741 165.408 196.949 166.21 196.99C165.432 196.788 163.702 196.482 161.689 196.176C159.661 195.877 157.923 195.679 157.124 195.635C157.9 195.833 159.633 196.147 161.645 196.448Z" fill="#5D5D5D"/>
<path d="M163.076 200.395C165.109 200.566 166.863 200.661 167.664 200.649C166.878 200.502 165.132 200.302 163.103 200.123C161.061 199.951 159.312 199.863 158.511 199.871C159.301 200.017 161.049 200.224 163.076 200.395Z" fill="#5D5D5D"/>
<path d="M164.751 204.247C166.791 204.288 168.547 204.274 169.346 204.214C168.551 204.115 166.796 204.024 164.759 203.973C162.712 203.931 160.961 203.952 160.162 204.008C160.958 204.11 162.719 204.205 164.751 204.247Z" fill="#5D5D5D"/>
<path d="M166.667 207.987C168.702 207.899 170.455 207.774 171.249 207.665C170.449 207.615 168.692 207.636 166.655 207.711C164.611 207.798 162.864 207.93 162.07 208.035C162.871 208.085 164.633 208.072 166.667 207.987Z" fill="#5D5D5D"/>
<path d="M168.81 211.598C170.84 211.383 172.579 211.148 173.366 210.988C172.564 210.99 170.811 211.121 168.784 211.324C166.749 211.539 165.014 211.779 164.229 211.937C165.031 211.935 166.788 211.809 168.81 211.598Z" fill="#5D5D5D"/>
<path d="M171.178 215.069C173.191 214.726 174.913 214.383 175.687 214.174C174.887 214.226 173.146 214.466 171.134 214.798C169.116 215.139 167.401 215.489 166.628 215.694C167.428 215.641 169.173 215.405 171.178 215.069Z" fill="#5D5D5D"/>
<path d="M173.759 218.383C175.747 217.914 177.443 217.465 178.204 217.205C177.409 217.308 175.684 217.654 173.699 218.113C171.706 218.582 170.017 219.04 169.257 219.291C170.051 219.189 171.779 218.845 173.759 218.383Z" fill="#5D5D5D"/>
<path d="M176.541 221.529C178.495 220.937 180.159 220.38 180.903 220.075C180.115 220.226 178.419 220.681 176.465 221.266C174.504 221.855 172.848 222.419 172.106 222.718C172.893 222.567 174.595 222.113 176.541 221.529Z" fill="#5D5D5D"/>
<path d="M179.518 224.493C181.431 223.779 183.057 223.12 183.781 222.768C183.003 222.969 181.338 223.529 179.426 224.234C177.508 224.946 175.888 225.614 175.167 225.958C175.941 225.757 177.612 225.198 179.518 224.493Z" fill="#5D5D5D"/>
<path d="M182.675 227.263C184.54 226.432 186.121 225.672 186.821 225.274C186.058 225.527 184.432 226.187 182.565 227.012C180.696 227.844 179.12 228.61 178.423 229C179.183 228.75 180.818 228.088 182.675 227.263Z" fill="#5D5D5D"/>
<path d="M185.995 229.831C187.807 228.884 189.336 228.026 190.01 227.587C189.265 227.884 187.682 228.648 185.873 229.588C184.06 230.536 182.536 231.398 181.864 231.833C182.607 231.536 184.197 230.771 185.995 229.831Z" fill="#5D5D5D"/>
<path d="M208.691 240.457C210.024 238.912 211.134 237.551 211.595 236.893C211.013 237.444 209.824 238.736 208.486 240.277C207.15 241.825 206.049 243.189 205.585 243.839C206.165 243.29 207.364 241.995 208.691 240.457Z" fill="#5D5D5D"/>
<path d="M212.795 241.367C214.027 239.74 215.048 238.312 215.466 237.627C214.918 238.214 213.815 239.577 212.576 241.198C211.34 242.829 210.331 244.26 209.904 244.936C210.45 244.351 211.565 242.984 212.795 241.367Z" fill="#5D5D5D"/>
<path d="M216.944 242.017C218.075 240.314 219.003 238.825 219.377 238.115C218.867 238.737 217.852 240.164 216.717 241.862C215.586 243.566 214.667 245.058 214.284 245.758C214.791 245.142 215.818 243.707 216.944 242.017Z" fill="#5D5D5D"/>
<path d="M221.129 242.404C222.148 240.633 222.98 239.089 223.308 238.358C222.838 239.009 221.916 240.498 220.888 242.262C219.867 244.034 219.046 245.583 218.707 246.305C219.174 245.657 220.108 244.161 221.129 242.404Z" fill="#5D5D5D"/>
<path d="M225.326 242.528C226.234 240.696 226.968 239.102 227.248 238.353C226.824 239.032 225.995 240.576 225.079 242.4C224.171 244.233 223.448 245.831 223.155 246.572C223.582 245.896 224.42 244.345 225.326 242.528Z" fill="#5D5D5D"/>
<path d="M229.524 242.389C230.314 240.504 230.948 238.867 231.18 238.101C230.797 238.803 230.069 240.398 229.269 242.279C228.478 244.163 227.856 245.802 227.612 246.563C227.994 245.858 228.734 244.259 229.524 242.389Z" fill="#5D5D5D"/>
<path d="M233.706 241.985C234.376 240.055 234.904 238.382 235.089 237.601C234.753 238.33 234.124 239.964 233.445 241.889C232.773 243.824 232.255 245.498 232.059 246.271C232.396 245.544 233.036 243.902 233.706 241.985Z" fill="#5D5D5D"/>
<path d="M237.855 241.32C238.401 239.351 238.824 237.648 238.961 236.859C238.67 237.606 238.145 239.278 237.588 241.242C237.038 243.213 236.628 244.918 236.481 245.701C236.77 244.954 237.306 243.275 237.855 241.32Z" fill="#5D5D5D"/>
<path d="M267.919 227.1C267.448 225.113 267.001 223.418 266.737 222.656C266.845 223.453 267.19 225.174 267.645 227.16C268.114 229.153 268.578 230.843 268.823 231.6C268.72 230.805 268.379 229.08 267.919 227.1Z" fill="#5D5D5D"/>
<path d="M271.065 224.314C270.47 222.361 269.917 220.7 269.606 219.956C269.763 220.744 270.216 222.438 270.799 224.393C271.388 226.351 271.957 228.01 272.252 228.752C272.098 227.965 271.647 226.261 271.065 224.314Z" fill="#5D5D5D"/>
<path d="M274.029 221.34C273.313 219.425 272.657 217.802 272.299 217.079C272.505 217.86 273.064 219.519 273.767 221.434C274.479 223.351 275.152 224.969 275.49 225.694C275.289 224.916 274.732 223.245 274.029 221.34Z" fill="#5D5D5D"/>
<path d="M276.802 218.184C275.968 216.319 275.21 214.741 274.808 214.041C275.061 214.805 275.724 216.426 276.545 218.294C277.377 220.163 278.151 221.734 278.533 222.436C278.283 221.674 277.624 220.041 276.802 218.184Z" fill="#5D5D5D"/>
<path d="M279.37 214.859C278.421 213.05 277.565 211.522 277.119 210.849C277.421 211.597 278.184 213.173 279.121 214.984C280.069 216.797 280.94 218.32 281.365 218.994C281.067 218.249 280.307 216.661 279.37 214.859Z" fill="#5D5D5D"/>
<path d="M281.725 211.38C280.664 209.634 279.713 208.164 279.228 207.519C279.574 208.247 280.434 209.772 281.484 211.522C282.544 213.272 283.512 214.738 283.975 215.383C283.631 214.658 282.772 213.119 281.725 211.38Z" fill="#5D5D5D"/>
<path d="M283.856 207.761C282.687 206.085 281.646 204.674 281.119 204.063C281.513 204.766 282.47 206.236 283.625 207.915C284.795 209.597 285.847 210.997 286.352 211.613C285.965 210.911 285.009 209.428 283.856 207.761Z" fill="#5D5D5D"/>
<path d="M285.755 204.014C284.484 202.415 283.357 201.075 282.795 200.498C283.229 201.175 284.276 202.579 285.534 204.185C286.807 205.789 287.946 207.119 288.491 207.703C288.058 207.025 287.012 205.606 285.755 204.014Z" fill="#5D5D5D"/>
<path d="M287.416 200.155C286.046 198.64 284.838 197.372 284.237 196.833C284.717 197.48 285.849 198.817 287.206 200.341C288.577 201.863 289.799 203.117 290.377 203.665C289.905 203.015 288.77 201.665 287.416 200.155Z" fill="#5D5D5D"/>
<path d="M288.831 196.199C287.37 194.774 286.084 193.585 285.45 193.082C285.968 193.699 287.183 194.963 288.632 196.398C290.098 197.829 291.394 199.005 292.007 199.517C291.494 198.9 290.277 197.622 288.831 196.199Z" fill="#5D5D5D"/>
<path d="M289.998 192.165C288.448 190.83 287.089 189.727 286.425 189.267C286.98 189.847 288.272 191.032 289.809 192.372C291.363 193.709 292.729 194.802 293.372 195.273C292.824 194.69 291.526 193.494 289.998 192.165Z" fill="#5D5D5D"/>
<path d="M290.905 188.063C289.276 186.83 287.85 185.812 287.158 185.394C287.751 185.941 289.114 187.041 290.731 188.281C292.365 189.52 293.797 190.526 294.47 190.957C293.885 190.407 292.514 189.294 290.905 188.063Z" fill="#5D5D5D"/>
<path d="M291.554 183.911C289.85 182.785 288.362 181.858 287.647 181.484C288.272 181.993 289.701 183.004 291.393 184.143C293.102 185.274 294.595 186.188 295.29 186.576C294.675 186.064 293.238 185.041 291.554 183.911Z" fill="#5D5D5D"/>
<path d="M291.941 179.729C290.169 178.71 288.627 177.881 287.89 177.552C288.546 178.018 290.034 178.939 291.795 179.969C293.571 180.991 295.118 181.81 295.839 182.151C295.191 181.682 293.691 180.751 291.941 179.729Z" fill="#5D5D5D"/>
<path d="M292.062 175.529C290.233 174.623 288.642 173.893 287.884 173.613C288.57 174.037 290.114 174.863 291.935 175.78C293.771 176.687 295.367 177.408 296.109 177.704C295.429 177.276 293.878 176.441 292.062 175.529Z" fill="#5D5D5D"/>
<path d="M291.924 171.33C290.042 170.542 288.407 169.911 287.633 169.679C288.341 170.059 289.935 170.788 291.81 171.589C293.703 172.38 295.339 172.997 296.098 173.247C295.395 172.862 293.792 172.126 291.924 171.33Z" fill="#5D5D5D"/>
<path d="M291.519 167.15C289.592 166.482 287.919 165.954 287.134 165.772C287.868 166.106 289.502 166.733 291.422 167.415C293.361 168.084 295.033 168.598 295.806 168.801C295.081 168.461 293.434 167.825 291.519 167.15Z" fill="#5D5D5D"/>
<path d="M290.856 163.002C288.889 162.457 287.186 162.036 286.389 161.904C287.142 162.19 288.814 162.712 290.774 163.272C292.749 163.821 294.45 164.226 295.235 164.382C294.489 164.087 292.806 163.557 290.856 163.002Z" fill="#5D5D5D"/>
<path d="M289.931 158.904C287.935 158.483 286.207 158.17 285.403 158.088C286.174 158.328 287.876 158.745 289.865 159.179C291.874 159.602 293.594 159.9 294.388 160.005C293.627 159.76 291.913 159.335 289.931 158.904Z" fill="#5D5D5D"/>
<path d="M288.75 154.871C286.732 154.579 284.988 154.374 284.181 154.341C284.966 154.534 286.689 154.841 288.706 155.151C290.735 155.448 292.471 155.636 293.27 155.692C292.491 155.494 290.758 155.178 288.75 154.871Z" fill="#5D5D5D"/>
<path d="M287.318 150.922C285.286 150.755 283.535 150.661 282.726 150.678C283.52 150.82 285.26 151.02 287.291 151.203C289.335 151.371 291.081 151.451 291.881 151.456C291.093 151.307 289.341 151.101 287.318 150.922Z" fill="#5D5D5D"/>
<path d="M285.643 147.072C283.605 147.033 281.848 147.048 281.045 147.116C281.845 147.209 283.595 147.297 285.63 147.353C287.682 147.392 289.43 147.364 290.23 147.319C289.432 147.219 287.672 147.123 285.643 147.072Z" fill="#5D5D5D"/>
<path d="M283.728 143.33C281.693 143.421 279.941 143.546 279.144 143.666C279.948 143.707 281.7 143.685 283.737 143.613C285.785 143.523 287.529 143.384 288.321 143.29C287.52 143.242 285.757 143.256 283.728 143.33Z" fill="#5D5D5D"/>
<path d="M281.583 139.719C279.556 139.937 277.817 140.171 277.027 140.341C277.832 140.334 279.582 140.203 281.607 140.003C283.646 139.784 285.379 139.535 286.164 139.39C285.364 139.39 283.603 139.517 281.583 139.719Z" fill="#5D5D5D"/>
<path d="M279.215 136.249C277.204 136.594 275.483 136.938 274.708 137.156C275.512 137.096 277.245 136.858 279.258 136.531C281.279 136.185 282.993 135.828 283.767 135.635C282.967 135.684 281.219 135.92 279.215 136.249Z" fill="#5D5D5D"/>
<path d="M276.634 132.935C274.65 133.406 272.953 133.857 272.192 134.124C272.99 134.013 274.706 133.665 276.695 133.213C278.687 132.739 280.375 132.277 281.139 132.036C280.343 132.135 278.612 132.481 276.634 132.935Z" fill="#5D5D5D"/>
<path d="M273.849 129.789C271.899 130.384 270.233 130.941 269.49 131.254C270.281 131.097 271.971 130.638 273.928 130.063C275.886 129.465 277.543 128.899 278.288 128.608C277.5 128.757 275.795 129.211 273.849 129.789Z" fill="#5D5D5D"/>
<path d="M270.871 126.825C268.964 127.54 267.337 128.202 266.615 128.561C267.394 128.353 269.053 127.789 270.967 127.095C272.886 126.376 274.505 125.704 275.229 125.37C274.451 125.565 272.778 126.126 270.871 126.825Z" fill="#5D5D5D"/>
<path d="M267.715 124.053C265.855 124.888 264.273 125.646 263.576 126.054C264.339 125.798 265.962 125.129 267.828 124.317C269.698 123.476 271.269 122.704 271.973 122.328C271.208 122.571 269.575 123.236 267.715 124.053Z" fill="#5D5D5D"/>
<path d="M264.391 121.485C262.587 122.435 261.054 123.293 260.385 123.741C261.131 123.439 262.707 122.671 264.519 121.74C266.333 120.785 267.854 119.917 268.533 119.497C267.783 119.785 266.195 120.554 264.391 121.485Z" fill="#5D5D5D"/>
<path d="M260.912 119.131C259.17 120.191 257.696 121.145 257.054 121.635C257.781 121.285 259.308 120.418 261.057 119.379C262.806 118.309 264.269 117.349 264.921 116.885C264.191 117.221 262.655 118.088 260.912 119.131Z" fill="#5D5D5D"/>
<path d="M257.29 117C255.621 118.167 254.208 119.211 253.599 119.742C254.3 119.344 255.768 118.387 257.45 117.238C259.13 116.061 260.528 115.011 261.149 114.507C260.443 114.89 258.965 115.848 257.29 117Z" fill="#5D5D5D"/>
<path d="M253.543 115.1C251.951 116.372 250.608 117.502 250.032 118.068C250.708 117.629 252.112 116.581 253.72 115.327C255.321 114.048 256.652 112.911 257.241 112.369C256.56 112.794 255.141 113.847 253.543 115.1Z" fill="#5D5D5D"/>
<path d="M249.685 113.442C248.176 114.81 246.906 116.022 246.368 116.623C247.014 116.14 248.35 115.007 249.874 113.656C251.395 112.277 252.65 111.059 253.201 110.484C252.55 110.95 251.202 112.088 249.685 113.442Z" fill="#5D5D5D"/>
<path d="M245.73 112.025C244.309 113.486 243.116 114.776 242.62 115.411C243.233 114.888 244.495 113.672 245.933 112.229C247.361 110.756 248.538 109.465 249.055 108.854C248.433 109.359 247.159 110.581 245.73 112.025Z" fill="#5D5D5D"/>
<path d="M241.694 110.863C240.365 112.41 239.259 113.771 238.801 114.436C239.383 113.874 240.565 112.581 241.908 111.053C243.242 109.494 244.336 108.129 244.813 107.488C244.223 108.032 243.028 109.331 241.694 110.863Z" fill="#5D5D5D"/>
<path d="M237.593 109.954C236.365 111.581 235.344 113.011 234.931 113.703C235.474 113.106 236.574 111.741 237.819 110.13C239.053 108.492 240.057 107.06 240.493 106.389C239.939 106.97 238.828 108.342 237.593 109.954Z" fill="#5D5D5D"/>
<path d="M233.442 109.305C232.319 111.007 231.392 112.496 231.021 113.212C231.529 112.583 232.538 111.152 233.68 109.467C234.807 107.753 235.723 106.264 236.114 105.566C235.596 106.179 234.574 107.619 233.442 109.305Z" fill="#5D5D5D"/>
<path d="M229.26 108.918C228.247 110.686 227.413 112.231 227.089 112.971C227.553 112.308 228.474 110.82 229.506 109.066C230.524 107.281 231.344 105.74 231.691 105.017C231.214 105.664 230.284 107.164 229.26 108.918Z" fill="#5D5D5D"/>
<path d="M225.187 234.857C257.88 234.857 284.38 208.356 284.38 175.665C284.38 142.976 257.88 116.474 225.187 116.474C192.499 116.474 165.996 142.977 165.996 175.665C165.996 208.357 192.499 234.857 225.187 234.857ZM281.259 173.507C281.259 173.507 281.603 183.758 278.594 193.02C275.585 202.279 269.282 210.371 269.282 210.371C266.238 213.949 261.719 213.811 259.245 210.06C256.766 206.308 252.429 199.746 249.612 195.475L244.755 188.121C241.934 183.854 243.549 178.888 248.339 177.092L256.589 173.996C261.382 172.2 268.747 169.439 272.956 167.861C277.164 166.281 280.901 168.823 281.259 173.507ZM240.463 121.675C240.463 121.675 250.316 124.513 258.196 130.236C266.074 135.96 271.823 144.455 271.823 144.455C274.283 148.458 272.755 152.71 268.425 153.906C264.091 155.102 256.509 157.199 251.575 158.56L243.082 160.907C238.151 162.271 233.926 159.201 233.699 154.09L233.305 145.285C233.078 140.173 232.726 132.315 232.527 127.824C232.323 123.333 235.896 120.566 240.463 121.675ZM230.989 198.124L236.48 205.013C239.672 209.014 244.572 215.165 247.375 218.683C250.175 222.197 248.912 226.537 244.568 228.325C244.568 228.325 234.924 231.82 225.187 231.82C215.45 231.82 205.809 228.325 205.809 228.325C201.464 226.537 200.201 222.197 203.002 218.683C205.804 215.166 210.706 209.014 213.896 205.013L219.387 198.124C222.577 194.124 227.799 194.124 230.989 198.124ZM178.56 144.456C178.56 144.456 184.305 135.961 192.183 130.237C200.062 124.513 209.917 121.672 209.917 121.672C214.484 120.568 218.055 123.334 217.855 127.824C217.655 132.316 217.305 140.174 217.077 145.286L216.682 154.091C216.455 159.201 212.23 162.27 207.299 160.908L198.806 158.562C193.871 157.199 186.289 155.102 181.959 153.906C177.625 152.71 176.096 148.455 178.56 144.456ZM177.422 167.856C181.63 169.436 188.997 172.197 193.789 173.995L202.04 177.088C206.832 178.887 208.445 183.85 205.624 188.12L200.767 195.473C197.946 199.745 193.611 206.307 191.134 210.058C188.657 213.809 184.14 213.948 181.097 210.367C181.097 210.367 174.795 202.279 171.786 193.02C168.777 183.758 169.119 173.505 169.119 173.505C169.48 168.823 173.215 166.279 177.422 167.856Z" fill="#E0E0E0"/>
<path d="M221.829 161.77C221.829 159.915 223.335 158.411 225.188 158.411C227.045 158.411 228.549 159.915 228.549 161.77C228.549 163.624 227.046 165.131 225.188 165.131C223.335 165.132 221.829 163.624 221.829 161.77Z" fill="#4A4A4A"/>
<path d="M223.289 161.77C223.289 160.721 224.141 159.871 225.188 159.871C226.237 159.871 227.089 160.721 227.089 161.77C227.089 162.819 226.237 163.67 225.188 163.67C224.141 163.67 223.289 162.82 223.289 161.77Z" fill="#BABABA"/>
<path d="M224.133 161.77C224.133 161.188 224.606 160.714 225.188 160.714C225.773 160.714 226.247 161.188 226.247 161.77C226.247 162.354 225.772 162.826 225.188 162.826C224.606 162.826 224.133 162.354 224.133 161.77Z" fill="#E0E0E0"/>
<path d="M210.935 174.567C209.171 173.994 208.204 172.097 208.777 170.334C209.353 168.568 211.247 167.603 213.011 168.177C214.775 168.75 215.743 170.646 215.169 172.412C214.594 174.174 212.7 175.14 210.935 174.567Z" fill="#4A4A4A"/>
<path d="M211.386 173.178C210.39 172.853 209.843 171.782 210.166 170.787C210.491 169.787 211.562 169.241 212.562 169.566C213.558 169.889 214.105 170.96 213.781 171.958C213.456 172.956 212.384 173.501 211.386 173.178Z" fill="#BABABA"/>
<path d="M211.647 172.374C211.093 172.195 210.788 171.599 210.967 171.046C211.148 170.491 211.744 170.188 212.299 170.369C212.854 170.547 213.157 171.144 212.978 171.699C212.797 172.251 212.202 172.556 211.647 172.374Z" fill="#E0E0E0"/>
<path d="M219.74 188.882C218.65 190.382 216.546 190.716 215.045 189.624C213.544 188.535 213.212 186.432 214.305 184.932C215.393 183.432 217.497 183.097 218.998 184.188C220.497 185.278 220.829 187.381 219.74 188.882Z" fill="#4A4A4A"/>
<path d="M218.557 188.024C217.94 188.873 216.754 189.062 215.905 188.444C215.054 187.829 214.866 186.641 215.484 185.79C216.1 184.943 217.289 184.754 218.14 185.37C218.986 185.987 219.174 187.177 218.557 188.024Z" fill="#BABABA"/>
<path d="M217.874 187.529C217.533 187.998 216.872 188.106 216.4 187.761C215.93 187.421 215.823 186.759 216.166 186.287C216.51 185.814 217.17 185.708 217.642 186.051C218.113 186.394 218.22 187.055 217.874 187.529Z" fill="#E0E0E0"/>
<path d="M236.074 184.933C237.164 186.433 236.83 188.536 235.33 189.625C233.827 190.716 231.727 190.384 230.636 188.881C229.546 187.383 229.878 185.278 231.379 184.187C232.881 183.1 234.983 183.431 236.074 184.933Z" fill="#4A4A4A"/>
<path d="M234.891 185.791C235.51 186.64 235.321 187.828 234.472 188.443C233.622 189.061 232.436 188.875 231.819 188.022C231.203 187.176 231.39 185.987 232.237 185.369C233.086 184.756 234.277 184.942 234.891 185.791Z" fill="#BABABA"/>
<path d="M234.208 186.288C234.551 186.759 234.448 187.421 233.975 187.761C233.504 188.105 232.844 187.999 232.502 187.527C232.157 187.054 232.262 186.396 232.736 186.051C233.205 185.708 233.866 185.815 234.208 186.288Z" fill="#E0E0E0"/>
<path d="M237.367 168.177C239.128 167.602 241.025 168.572 241.599 170.335C242.171 172.1 241.205 173.995 239.439 174.566C237.677 175.141 235.779 174.175 235.206 172.411C234.636 170.647 235.6 168.751 237.367 168.177Z" fill="#4A4A4A"/>
<path d="M237.817 169.566C238.816 169.241 239.885 169.786 240.211 170.787C240.535 171.785 239.991 172.856 238.989 173.178C237.993 173.501 236.919 172.957 236.594 171.958C236.273 170.964 236.817 169.889 237.817 169.566Z" fill="#BABABA"/>
<path d="M238.08 170.371C238.633 170.189 239.229 170.492 239.407 171.047C239.589 171.601 239.285 172.197 238.731 172.374C238.174 172.557 237.58 172.251 237.398 171.697C237.217 171.144 237.522 170.548 238.08 170.371Z" fill="#E0E0E0"/>
<path d="M233.356 175.656C233.356 180.167 229.699 183.822 225.188 183.822C220.679 183.822 217.022 180.167 217.022 175.656C217.022 171.147 220.679 167.49 225.188 167.49C229.699 167.491 233.356 171.147 233.356 175.656Z" fill="#5D5D5D"/>
<path d="M247.376 218.683C244.573 215.165 239.673 209.013 236.481 205.012L230.99 198.123C227.801 194.123 222.579 194.123 219.388 198.123L213.898 205.012C210.707 209.013 205.806 215.164 203.003 218.683C200.203 222.196 201.465 226.536 205.81 228.325C205.81 228.325 215.451 231.819 225.189 231.819C234.926 231.819 244.569 228.325 244.569 228.325C248.913 226.537 250.177 222.196 247.376 218.683ZM239.833 225.385C239.833 225.385 232.547 228.024 225.188 228.024C217.831 228.024 210.544 225.385 210.544 225.385C207.262 224.032 206.306 220.755 208.423 218.098C210.54 215.44 214.245 210.793 216.654 207.768L220.806 202.56C223.217 199.536 227.161 199.536 229.572 202.56L233.722 207.768C236.135 210.792 239.838 215.44 241.956 218.098C244.073 220.755 243.117 224.032 239.833 225.385Z" fill="#C2C2C2"/>
<path d="M272.956 167.859C268.745 169.438 261.381 172.197 256.589 173.995L248.34 177.088C243.546 178.887 241.934 183.852 244.755 188.12L249.611 195.473C252.429 199.745 256.767 206.307 259.244 210.058C261.72 213.809 266.238 213.948 269.281 210.368C269.281 210.368 275.583 202.279 278.593 193.02C281.602 183.758 281.258 173.507 281.258 173.507C280.899 168.823 277.164 166.279 272.956 167.859ZM276.999 177.102C276.999 177.102 277.259 184.846 274.985 191.845C272.712 198.845 267.949 204.957 267.949 204.957C265.647 207.663 262.236 207.557 260.363 204.725C258.489 201.889 255.214 196.929 253.082 193.702L249.413 188.143C247.282 184.918 248.501 181.165 252.121 179.809L258.356 177.469C261.978 176.111 267.542 174.027 270.726 172.832C273.906 171.639 276.727 173.559 276.999 177.102Z" fill="#C2C2C2"/>
<path d="M232.525 127.825C232.724 132.316 233.072 140.173 233.303 145.285L233.696 154.089C233.923 159.201 238.149 162.269 243.082 160.907L251.572 158.561C256.506 157.2 264.087 155.101 268.421 153.906C272.755 152.708 274.281 148.456 271.82 144.453C271.82 144.453 266.073 135.961 258.196 130.237C250.316 124.512 240.46 121.674 240.46 121.674C235.895 120.565 232.322 123.331 232.525 127.825ZM242.563 126.836C242.563 126.836 250.01 128.981 255.964 133.306C261.918 137.632 266.259 144.05 266.259 144.05C268.121 147.074 266.966 150.287 263.694 151.193C260.416 152.098 254.688 153.681 250.963 154.711L244.542 156.483C240.816 157.512 237.623 155.193 237.451 151.331L237.154 144.678C236.979 140.816 236.717 134.879 236.566 131.48C236.413 128.091 239.111 125.998 242.563 126.836Z" fill="#C2C2C2"/>
<path d="M181.956 153.905C186.289 155.101 193.87 157.202 198.803 158.561L207.295 160.907C212.229 162.272 216.453 159.2 216.68 154.091L217.074 145.286C217.303 140.176 217.653 132.316 217.853 127.825C218.054 123.333 214.481 120.567 209.913 121.675C209.913 121.675 200.061 124.514 192.183 130.237C184.305 135.961 178.557 144.455 178.557 144.455C176.095 148.455 177.621 152.71 181.956 153.905ZM184.117 144.052C184.117 144.052 188.459 137.632 194.412 133.306C200.366 128.982 207.813 126.836 207.813 126.836C211.265 125.998 213.964 128.092 213.814 131.483C213.662 134.878 213.398 140.818 213.225 144.68L212.927 151.334C212.756 155.194 209.562 157.513 205.835 156.485L199.416 154.712C195.689 153.683 189.963 152.099 186.685 151.194C183.411 150.287 182.254 147.077 184.117 144.052Z" fill="#C2C2C2"/>
<path d="M191.132 210.06C193.612 206.308 197.95 199.747 200.766 195.473L205.622 188.124C208.447 183.852 206.829 178.888 202.039 177.092L193.788 173.996C188.996 172.197 181.63 169.439 177.421 167.86C173.212 166.282 169.476 168.824 169.119 173.508C169.119 173.508 168.777 183.759 171.785 193.021C174.793 202.28 181.097 210.372 181.097 210.372C184.138 213.949 188.656 213.812 191.132 210.06ZM182.43 204.959C182.43 204.959 177.667 198.846 175.392 191.847C173.116 184.848 173.378 177.104 173.378 177.104C173.649 173.558 176.473 171.642 179.654 172.832C182.836 174.027 188.4 176.111 192.023 177.469L198.257 179.811C201.878 181.165 203.096 184.92 200.965 188.145L197.297 193.704C195.167 196.929 191.889 201.888 190.017 204.725C188.142 207.557 184.731 207.665 182.43 204.959Z" fill="#C2C2C2"/>
<path d="M231.158 175.656C231.158 178.952 228.485 181.625 225.188 181.625C221.893 181.625 219.221 178.952 219.221 175.656C219.221 172.36 221.893 169.688 225.188 169.688C228.485 169.689 231.158 172.36 231.158 175.656Z" fill="#2A2A2A"/>
</g>
<path d="M212.076 23.1492C212.076 26.0708 211.549 28.5957 210.494 30.7238C209.439 32.852 207.991 34.4931 206.152 35.6474C204.312 36.8016 202.211 37.3787 199.849 37.3787C197.486 37.3787 195.385 36.8016 193.546 35.6474C191.706 34.4931 190.259 32.852 189.204 30.7238C188.149 28.5957 187.621 26.0708 187.621 23.1492C187.621 20.2275 188.149 17.7026 189.204 15.5745C190.259 13.4464 191.706 11.8052 193.546 10.651C195.385 9.49673 197.486 8.91961 199.849 8.91961C202.211 8.91961 204.312 9.49673 206.152 10.651C207.991 11.8052 209.439 13.4464 210.494 15.5745C211.549 17.7026 212.076 20.2275 212.076 23.1492ZM208.83 23.1492C208.83 20.7505 208.429 18.7261 207.626 17.0759C206.833 15.4257 205.755 14.1768 204.394 13.3291C203.041 12.4815 201.526 12.0577 199.849 12.0577C198.171 12.0577 196.652 12.4815 195.29 13.3291C193.938 14.1768 192.86 15.4257 192.058 17.0759C191.264 18.7261 190.867 20.7505 190.867 23.1492C190.867 25.5478 191.264 27.5722 192.058 29.2224C192.86 30.8726 193.938 32.1216 195.29 32.9692C196.652 33.8168 198.171 34.2407 199.849 34.2407C201.526 34.2407 203.041 33.8168 204.394 32.9692C205.755 32.1216 206.833 30.8726 207.626 29.2224C208.429 27.5722 208.83 25.5478 208.83 23.1492ZM225.724 37.4328C223.849 37.4328 222.203 36.9865 220.787 36.0937C219.381 35.201 218.28 33.9521 217.487 32.347C216.702 30.7419 216.31 28.8662 216.31 26.7201C216.31 24.5559 216.702 22.6667 217.487 21.0526C218.28 19.4385 219.381 18.1851 220.787 17.2923C222.203 16.3996 223.849 15.9532 225.724 15.9532C227.6 15.9532 229.241 16.3996 230.648 17.2923C232.064 18.1851 233.164 19.4385 233.948 21.0526C234.742 22.6667 235.139 24.5559 235.139 26.7201C235.139 28.8662 234.742 30.7419 233.948 32.347C233.164 33.9521 232.064 35.201 230.648 36.0937C229.241 36.9865 227.6 37.4328 225.724 37.4328ZM225.724 34.5653C227.149 34.5653 228.321 34.2001 229.241 33.4697C230.161 32.7392 230.842 31.7789 231.284 30.5886C231.725 29.3983 231.946 28.1088 231.946 26.7201C231.946 25.3314 231.725 24.0374 231.284 22.8381C230.842 21.6387 230.161 20.6694 229.241 19.9299C228.321 19.1905 227.149 18.8208 225.724 18.8208C224.3 18.8208 223.127 19.1905 222.208 19.9299C221.288 20.6694 220.607 21.6387 220.165 22.8381C219.723 24.0374 219.502 25.3314 219.502 26.7201C219.502 28.1088 219.723 29.3983 220.165 30.5886C220.607 31.7789 221.288 32.7392 222.208 33.4697C223.127 34.2001 224.3 34.5653 225.724 34.5653ZM240.011 44.7911V16.2238H243.095V19.5241H243.474C243.709 19.1635 244.033 18.7036 244.448 18.1445C244.872 17.5764 245.476 17.0714 246.26 16.6295C247.054 16.1787 248.127 15.9532 249.48 15.9532C251.229 15.9532 252.771 16.3906 254.106 17.2653C255.44 18.14 256.482 19.3799 257.23 20.985C257.979 22.5901 258.353 24.4838 258.353 26.666C258.353 28.8662 257.979 30.7734 257.23 32.3876C256.482 33.9927 255.445 35.2371 254.119 36.1208C252.794 36.9955 251.265 37.4328 249.534 37.4328C248.199 37.4328 247.131 37.2119 246.328 36.7701C245.526 36.3192 244.908 35.8097 244.475 35.2416C244.042 34.6645 243.709 34.1866 243.474 33.8078H243.204V44.7911H240.011ZM243.149 26.6119C243.149 28.1809 243.379 29.5651 243.839 30.7644C244.299 31.9547 244.971 32.888 245.855 33.5643C246.738 34.2316 247.821 34.5653 249.101 34.5653C250.436 34.5653 251.549 34.2136 252.442 33.5102C253.344 32.7979 254.02 31.842 254.471 30.6427C254.931 29.4343 255.161 28.0907 255.161 26.6119C255.161 25.151 254.935 23.8345 254.484 22.6622C254.043 21.4809 253.371 20.5476 252.469 19.8623C251.576 19.168 250.454 18.8208 249.101 18.8208C247.802 18.8208 246.711 19.1499 245.828 19.8082C244.944 20.4575 244.277 21.3682 243.826 22.5405C243.375 23.7037 243.149 25.0609 243.149 26.6119ZM277.939 20.8768L275.071 21.6883C274.891 21.2104 274.625 20.746 274.273 20.2951C273.931 19.8353 273.462 19.4565 272.867 19.1589C272.271 18.8614 271.509 18.7126 270.581 18.7126C269.309 18.7126 268.25 19.0056 267.402 19.5918C266.563 20.1689 266.144 20.9038 266.144 21.7966C266.144 22.5901 266.433 23.2168 267.01 23.6767C267.587 24.1366 268.489 24.5198 269.715 24.8264L272.799 25.5839C274.656 26.0348 276.041 26.7246 276.951 27.6534C277.862 28.5732 278.318 29.759 278.318 31.2108C278.318 32.4011 277.975 33.4652 277.29 34.403C276.613 35.3408 275.666 36.0802 274.449 36.6213C273.232 37.1623 271.816 37.4328 270.202 37.4328C268.083 37.4328 266.329 36.9729 264.94 36.0532C263.551 35.1334 262.672 33.7898 262.303 32.0224L265.332 31.2649C265.621 32.3831 266.167 33.2217 266.969 33.7808C267.781 34.3398 268.84 34.6194 270.148 34.6194C271.636 34.6194 272.817 34.3038 273.692 33.6726C274.575 33.0323 275.017 32.2658 275.017 31.3731C275.017 30.6517 274.765 30.0475 274.26 29.5606C273.755 29.0646 272.979 28.6949 271.933 28.4514L268.471 27.6399C266.568 27.189 265.17 26.4901 264.277 25.5433C263.394 24.5875 262.952 23.3926 262.952 21.9589C262.952 20.7866 263.281 19.7496 263.939 18.8478C264.607 17.9461 265.513 17.2382 266.658 16.7242C267.812 16.2102 269.12 15.9532 270.581 15.9532C272.637 15.9532 274.251 16.4041 275.423 17.3059C276.604 18.2076 277.443 19.3979 277.939 20.8768ZM287.343 9.29834L287.072 29.2089H283.934L283.664 9.29834H287.343ZM285.503 37.2164C284.836 37.2164 284.263 36.9775 283.786 36.4995C283.308 36.0216 283.069 35.449 283.069 34.7817C283.069 34.1144 283.308 33.5418 283.786 33.0639C284.263 32.586 284.836 32.347 285.503 32.347C286.171 32.347 286.743 32.586 287.221 33.0639C287.699 33.5418 287.938 34.1144 287.938 34.7817C287.938 35.2236 287.825 35.6293 287.6 35.9991C287.384 36.3688 287.09 36.6664 286.721 36.8918C286.36 37.1082 285.954 37.2164 285.503 37.2164Z" fill="white"/>
<path d="M327.938 215.591V197.835L390.793 98.5455H404.784V124.682H395.906L350.949 195.847V196.983H437.099V215.591H327.938ZM396.901 244V210.193L397.043 202.097V98.5455H417.852V244H396.901Z" fill="#050B20"/>
<path d="M10.9375 215.591V197.835L73.7926 98.5455H87.7841V124.682H78.9062L33.9489 195.847V196.983H120.099V215.591H10.9375ZM79.9006 244V210.193L80.0426 202.097V98.5455H100.852V244H79.9006Z" fill="#050B20"/>
</svg>
