<svg width="223" height="178" viewBox="0 0 223 178" fill="none" xmlns="http://www.w3.org/2000/svg">
<path d="M9.21964 68.6872C3.62775 82.074 0.502533 96.6021 0.440613 111.095H29.1323C29.1896 100.484 31.324 89.9844 35.4174 80.185C39.5672 70.2505 45.6485 61.2315 53.3112 53.6471C60.9739 46.0627 70.0667 40.0625 80.0664 35.9917C90.0661 31.921 100.775 29.8601 111.578 29.9275C122.38 29.9949 133.062 32.1893 143.01 36.3845C152.958 40.5797 161.974 46.6929 169.541 54.3724C177.108 62.0519 183.075 71.146 187.1 81.1315C191.069 90.9812 193.071 101.506 192.995 112.117L222.557 112.486C222.682 97.9941 219.958 83.6164 214.536 70.1644C209.06 56.5767 200.939 44.2015 190.643 33.7513C180.346 23.301 168.076 14.9819 154.538 9.27282C141.001 3.56372 126.464 0.577351 111.763 0.485616C97.0901 0.394057 82.1536 4.46257 68.9224 9.22766C54.0046 16.727 44.3212 22.3577 32.9151 32.8432C22.4962 43.1573 14.8687 55.1636 9.21964 68.6872Z" stroke="#87888C" stroke-opacity="0.4" stroke-width="0.877952"/>
<path d="M174.515 112.412C174.515 95.1828 167.643 78.6594 155.411 66.4767C143.18 54.2939 126.59 47.4497 109.292 47.4497C91.994 47.4497 75.4043 54.2939 63.1727 66.4767C50.9411 78.6594 44.0695 95.1828 44.0695 112.412L109.292 112.412H174.515Z" fill="url(#paint0_linear_8465_3792)"/>
<path d="M33.4921 112.412C33.4921 92.2726 41.9652 72.0803 56.2629 57.8396C70.5607 43.599 89.9526 35.5986 110.173 35.5986C130.393 35.5986 149.785 43.599 164.083 57.8396C178.04 71.7409 187.735 92.2726 187.735 112.412" stroke="#313131" stroke-width="0.877952"/>
<g filter="url(#filter0_f_8465_3792)">
<path d="M77.253 82.7039C72.3629 87.2929 62.7661 101.766 63.4997 122.946H184.21L182.447 98.3659C180.613 82.8338 166.701 61.2196 145.429 53.5947L130.445 74.6635C127.695 72.8985 121.081 69.7837 113.012 68.9368C105.371 68.2308 87.5223 69.9958 77.253 82.7039Z" fill="#111111"/>
</g>
<path d="M37.0178 112.412C37.0178 91.8965 45.4977 75.1153 59.0525 60.6178C72.6063 46.1214 91.4686 38.6711 110.622 38.6711C129.775 38.6711 148.151 46.8086 161.704 61.305C175.259 75.8026 183.328 91.8965 183.328 112.412" stroke="#313131" stroke-width="0.877952"/>
<path d="M4.57764e-05 112.412C4.57764e-05 92.6149 5.29262 72.2799 15.3338 55.1948C25.375 38.1097 39.8027 23.9957 57.1341 14.3034C74.4654 4.61106 94.0754 -0.31001 113.949 0.0459137C132.57 -0.848684 167.688 11.4408 183.491 27.2444L173.834 38.6578L165.054 49.1932C153.641 40.4269 128.18 28.9998 112.377 29.8778C95.6962 29.8778 84.8917 33.3705 72.2738 40.4269C59.6558 47.4833 47.8543 58.7135 40.5439 71.1522C33.2334 83.5909 29.9672 97.9989 29.9672 112.412H14.9836H4.57764e-05Z" fill="#E1233B"/>
<path d="M186.294 29.8781L183.492 27.2444L135.205 84.3112L186.294 29.8781Z" fill="white"/>
<path d="M222.992 112.412H183.329" stroke="#404142" stroke-width="0.877952"/>
<path d="M44.0694 112.412H29.9672" stroke="#404142" stroke-width="0.877952"/>
<path d="M102.241 0.0449219L104.885 47.4492" stroke="#313131" stroke-opacity="0.72" stroke-width="0.877952"/>
<path d="M23.7982 42.1829L59.0537 71.1525" stroke="#313131" stroke-opacity="0.72" stroke-width="0.877952"/>
<path d="M207.126 55.3517L177.159 75.5424" stroke="#313131" stroke-opacity="0.72" stroke-width="1.05354"/>
<defs>
<filter id="filter0_f_8465_3792" x="51.1686" y="41.3034" width="145.333" height="93.9342" filterUnits="userSpaceOnUse" color-interpolation-filters="sRGB">
<feFlood flood-opacity="0" result="BackgroundImageFix"/>
<feBlend mode="normal" in="SourceGraphic" in2="BackgroundImageFix" result="shape"/>
<feGaussianBlur stdDeviation="6.14566" result="effect1_foregroundBlur_8465_3792"/>
</filter>
<linearGradient id="paint0_linear_8465_3792" x1="44.0695" y1="112.412" x2="150.484" y2="47.0706" gradientUnits="userSpaceOnUse">
<stop stop-color="#E1233B"/>
<stop offset="1" stop-color="#E1233B" stop-opacity="0"/>
</linearGradient>
</defs>
</svg>
