<svg width="112" height="108" viewBox="0 0 112 108" fill="none" xmlns="http://www.w3.org/2000/svg">
<path d="M112 20.0177H94.1313V28.508H101.396L104.114 31.2257L106.832 28.508H112V20.0177Z" fill="#F5F5F5"/>
<path d="M98.4142 23.8344C98.4114 23.5192 98.2915 23.2162 98.0776 22.9845C97.8638 22.7529 97.5713 22.6091 97.2573 22.5813C96.9433 22.5534 96.6301 22.6434 96.3788 22.8338C96.1275 23.0242 95.9561 23.3013 95.8979 23.6112C95.8465 23.9084 95.9015 24.2143 96.0532 24.475C96.1017 24.5575 96.1624 24.6158 96.223 24.7031L96.951 25.6737C96.9738 25.6999 97.0019 25.721 97.0335 25.7354C97.0651 25.7498 97.0994 25.7573 97.1342 25.7573C97.1689 25.7573 97.2033 25.7498 97.2349 25.7354C97.2665 25.721 97.2946 25.6999 97.3174 25.6737L98.0453 24.7152C98.1115 24.638 98.1731 24.557 98.2297 24.4726C98.3469 24.2801 98.4106 24.0598 98.4142 23.8344ZM97.1475 24.3877C97.037 24.3881 96.9289 24.3558 96.8368 24.2948C96.7447 24.2338 96.6728 24.1468 96.6302 24.0448C96.5876 23.9429 96.5762 23.8306 96.5974 23.7222C96.6187 23.6138 96.6717 23.5141 96.7496 23.4358C96.8276 23.3575 96.927 23.3041 97.0353 23.2824C97.1437 23.2607 97.256 23.2716 97.3581 23.3137C97.4602 23.3559 97.5475 23.4274 97.609 23.5193C97.6704 23.6111 97.7032 23.7191 97.7032 23.8296C97.7032 23.9772 97.6447 24.1188 97.5406 24.2233C97.4365 24.3279 97.2951 24.387 97.1475 24.3877Z" fill="#E0E0E0"/>
<path d="M110.219 24.7396C110.219 24.7736 107.839 24.8027 104.9 24.8027C101.962 24.8027 99.5812 24.7736 99.5812 24.7396C99.5812 24.7056 101.962 24.6765 104.9 24.6765C107.839 24.6765 110.219 24.7056 110.219 24.7396Z" fill="#E0E0E0"/>
<path d="M106.832 25.8849C106.832 25.9188 105.208 25.9479 103.206 25.9479C101.205 25.9479 99.5812 25.9188 99.5812 25.8849C99.5812 25.8509 101.205 25.8193 103.206 25.8193C105.208 25.8193 106.832 25.8485 106.832 25.8849Z" fill="#E0E0E0"/>
<path d="M100.232 22.1019L100.474 22.5945L101.018 22.6746L100.625 23.058L100.717 23.5991L100.232 23.3419L99.7439 23.5991L99.8385 23.058L99.443 22.6746L99.9865 22.5945L100.232 22.1019Z" fill="#E0E0E0"/>
<path d="M102.532 22.1019L102.775 22.5945L103.318 22.6746L102.925 23.058L103.017 23.5991L102.532 23.3419L102.044 23.5991L102.139 23.058L101.746 22.6746L102.289 22.5945L102.532 22.1019Z" fill="#E0E0E0"/>
<path d="M104.832 22.1019L105.075 22.5945L105.618 22.6746L105.225 23.058L105.317 23.5991L104.832 23.3419L104.344 23.5991L104.439 23.058L104.046 22.6746L104.589 22.5945L104.832 22.1019Z" fill="#E0E0E0"/>
<path d="M107.132 22.1019L107.375 22.5945L107.919 22.6746L107.526 23.058L107.618 23.5991L107.132 23.3419L106.647 23.5991L106.739 23.058L106.346 22.6746L106.89 22.5945L107.132 22.1019Z" fill="#EBEBEB"/>
<path d="M109.433 22.1019L109.675 22.5945L110.219 22.6746L109.826 23.058L109.918 23.5991L109.433 23.3419L108.947 23.5991L109.04 23.058L108.646 22.6746L109.19 22.5945L109.433 22.1019Z" fill="#EBEBEB"/>
<path d="M33.9443 2.12952H6.16089V15.3321H17.4563L21.6832 19.5566L25.9077 15.3321H33.9443V2.12952Z" fill="#F5F5F5"/>
<path d="M12.8193 8.067C12.8199 7.76397 12.7505 7.4649 12.6167 7.19303C12.4828 6.92116 12.2881 6.68383 12.0475 6.4995C11.807 6.31516 11.5272 6.18878 11.2299 6.13019C10.9326 6.07161 10.6258 6.08238 10.3333 6.16169C10.0409 6.241 9.77062 6.3867 9.54363 6.58746C9.31664 6.78822 9.13902 7.03863 9.02458 7.31922C8.91013 7.59981 8.86195 7.90301 8.88378 8.20526C8.90561 8.5075 8.99685 8.80064 9.15043 9.06187C9.22565 9.19047 9.32028 9.28025 9.41734 9.41371L10.5602 10.9303C10.5932 10.9745 10.636 11.0103 10.6853 11.035C10.7346 11.0598 10.789 11.0726 10.8441 11.0726C10.8993 11.0726 10.9536 11.0598 11.0029 11.035C11.0522 11.0103 11.095 10.9745 11.128 10.9303L12.2588 9.45254C12.3606 9.33046 12.4561 9.20331 12.5451 9.07158C12.7263 8.76794 12.8211 8.42058 12.8193 8.067ZM10.849 8.92356C10.6776 8.92356 10.5102 8.87275 10.3677 8.77757C10.2253 8.68238 10.1142 8.54709 10.0487 8.3888C9.98309 8.23051 9.96594 8.05634 9.99936 7.8883C10.0328 7.72026 10.1153 7.56591 10.2364 7.44476C10.3576 7.32361 10.5119 7.24111 10.68 7.20768C10.848 7.17426 11.0222 7.19141 11.1805 7.25698C11.3388 7.32254 11.4741 7.43357 11.5692 7.57603C11.6644 7.71849 11.7152 7.88597 11.7152 8.0573C11.7152 8.28705 11.624 8.50738 11.4615 8.66984C11.2991 8.83229 11.0787 8.92356 10.849 8.92356Z" fill="#E0E0E0"/>
<path d="M31.1759 9.47459C31.1759 9.50856 27.473 9.53768 22.9063 9.53768C18.3397 9.53768 14.6344 9.50856 14.6344 9.47459C14.6344 9.44062 18.3372 9.4115 22.9063 9.4115C27.4754 9.4115 31.1759 9.45275 31.1759 9.47459Z" fill="#E0E0E0"/>
<path d="M25.9103 11.2506C25.9103 11.287 23.3868 11.3137 20.2736 11.3137C17.1604 11.3137 14.6344 11.287 14.6344 11.2506C14.6344 11.2142 17.158 11.1875 20.2736 11.1875C23.3892 11.1875 25.9103 11.2166 25.9103 11.2506Z" fill="#E0E0E0"/>
<path d="M15.6463 5.37122L16.0224 6.13799L16.8668 6.25932L16.2553 6.85623L16.4009 7.69823L15.6463 7.30028L14.8892 7.69823L15.0348 6.85623L14.4233 6.25932L15.2678 6.13799L15.6463 5.37122Z" fill="#E0E0E0"/>
<path d="M19.2226 5.37122L19.5987 6.13799L20.4455 6.25932L19.8341 6.85623L19.9772 7.69823L19.2226 7.30028L18.4655 7.69823L18.6111 6.85623L17.9996 6.25932L18.8441 6.13799L19.2226 5.37122Z" fill="#E0E0E0"/>
<path d="M22.7994 5.37122L23.1779 6.13799L24.0223 6.25932L23.4109 6.85623L23.554 7.69823L22.7994 7.30028L22.0447 7.69823L22.1879 6.85623L21.5764 6.25932L22.4208 6.13799L22.7994 5.37122Z" fill="#E0E0E0"/>
<path d="M26.3762 5.37122L26.7547 6.13799L27.5991 6.25932L26.9876 6.85623L27.1332 7.69823L26.3762 7.30028L25.6215 7.69823L25.7647 6.85623L25.1532 6.25932L26 6.13799L26.3762 5.37122Z" fill="#EBEBEB"/>
<path d="M29.9554 5.37122L30.3315 6.13799L31.1759 6.25932L30.5669 6.85623L30.71 7.69823L29.9554 7.30028L29.1983 7.69823L29.3439 6.85623L28.7324 6.25932L29.5768 6.13799L29.9554 5.37122Z" fill="#EBEBEB"/>
<path d="M97.9503 34.4286C98.0959 33.3658 96.5987 32.4874 95.4753 32.4024C94.939 32.3612 94.3809 32.4413 93.8714 32.2641C92.7722 31.8807 92.3305 30.4588 91.2556 30.0051C90.4524 29.6653 89.5279 29.9687 88.749 30.3593C87.9701 30.75 87.2009 31.245 86.3225 31.3008C85.5654 31.3493 84.7453 31.0582 84.0829 31.4391C83.5976 31.7133 83.3306 32.2835 82.8696 32.6184C82.4086 32.9533 81.8456 33.0163 81.2924 33.0455C80.7391 33.0746 80.1689 33.0819 79.6666 33.3124C79.1643 33.5429 78.747 34.0743 78.8513 34.6154L97.9503 34.4286Z" fill="#F5F5F5"/>
<path d="M21.7196 44.9256C21.8676 43.8653 20.3704 42.9844 19.2445 42.9019C18.7083 42.8583 18.1502 42.9408 17.643 42.7636C16.5414 42.3802 16.0998 40.9559 15.0273 40.5046C14.2217 40.1648 13.2972 40.4657 12.5183 40.8588C11.7394 41.2519 10.9702 41.7445 10.0918 41.8003C9.33712 41.8488 8.51453 41.5577 7.8521 41.9362C7.3668 42.2128 7.09988 42.7806 6.63885 43.1155C6.17781 43.4503 5.61244 43.5134 5.0592 43.545C4.50595 43.5765 3.93573 43.5789 3.43344 43.8094C2.93115 44.04 2.51622 44.5714 2.62056 45.1149L21.7196 44.9256Z" fill="#F5F5F5"/>
<path d="M14.0397 33.7466C14.1465 32.9677 13.0449 32.3247 12.2199 32.2592C11.8244 32.2276 11.4143 32.2883 11.0406 32.1573C10.2326 31.8758 9.90984 30.83 9.1188 30.4951C8.52917 30.2525 7.84975 30.4684 7.27709 30.7572C6.70444 31.0459 6.13906 31.4075 5.49847 31.4487C4.9428 31.4851 4.3386 31.2789 3.85087 31.5507C3.48932 31.7521 3.30006 32.1694 2.9652 32.4169C2.61672 32.6306 2.21401 32.7393 1.80533 32.7299C1.39857 32.7199 0.993564 32.7866 0.611493 32.9265C0.240239 33.0963 -0.0655006 33.487 0.0121474 33.8849L14.0397 33.7466Z" fill="#EBEBEB"/>
<path d="M104.694 5.398C104.803 4.6191 103.701 3.97607 102.874 3.91056C102.481 3.87901 102.071 3.93968 101.697 3.80865C100.889 3.52717 100.564 2.48135 99.7753 2.14649C99.1833 1.90384 98.5038 2.1198 97.9312 2.40855C97.3585 2.69731 96.7932 3.05886 96.155 3.10011C95.5993 3.1365 94.9951 2.93025 94.5074 3.20202C94.1459 3.40342 93.9542 3.82078 93.6217 4.06828C93.2746 4.28108 92.8738 4.38972 92.4667 4.3813C92.0592 4.37147 91.6534 4.43814 91.2705 4.57785C90.9016 4.7477 90.5959 5.13837 90.6735 5.54845L104.694 5.398Z" fill="#EBEBEB"/>
<path d="M102.726 43.744H82.5326V107.743H102.726V43.744Z" fill="#F5F5F5"/>
<path d="M102.728 43.744H92.6317V107.568H102.728V43.744Z" fill="#EBEBEB"/>
<path d="M91.9716 37.4617H84.8401V43.7439H91.9716V37.4617Z" fill="#F5F5F5"/>
<path d="M91.9692 37.4617H90.2706V43.7439H91.9692V37.4617Z" fill="#EBEBEB"/>
<path d="M80.8511 43.744V43.3776H103.318V43.744" fill="#E0E0E0"/>
<path d="M88.2274 46.4834H86.5192V50.0868H88.2274V46.4834Z" fill="#FAFAFA"/>
<path d="M92.6317 51.5038C92.6317 51.5402 90.3702 51.5718 87.5821 51.5718C84.7941 51.5718 82.5326 51.5402 82.5326 51.5038C82.5326 51.4674 84.7941 51.4335 87.5821 51.4335C90.3702 51.4335 92.6317 51.465 92.6317 51.5038Z" fill="#E0E0E0"/>
<path d="M98.4117 46.4834H96.7035V50.0868H98.4117V46.4834Z" fill="#E0E0E0"/>
<path d="M102.816 51.5038C102.816 51.5402 100.554 51.5718 97.766 51.5718C94.9779 51.5718 92.7189 51.5402 92.7189 51.5038C92.7189 51.4674 94.9779 51.4335 97.766 51.4335C100.554 51.4335 102.816 51.465 102.816 51.5038Z" fill="#E0E0E0"/>
<path d="M98.4117 53.6392H96.7035V57.2425H98.4117V53.6392Z" fill="#E0E0E0"/>
<path d="M102.816 58.6596C102.816 58.696 100.554 58.7275 97.766 58.7275C94.9779 58.7275 92.7189 58.696 92.7189 58.6596C92.7189 58.6232 94.9779 58.5892 97.766 58.5892C100.554 58.5892 102.816 58.6208 102.816 58.6596Z" fill="#E0E0E0"/>
<path d="M98.4117 61.011H96.7035V64.6143H98.4117V61.011Z" fill="#E0E0E0"/>
<path d="M102.816 66.0314C102.816 66.0678 100.554 66.0994 97.766 66.0994C94.9779 66.0994 92.7189 66.0678 92.7189 66.0314C92.7189 65.995 94.9779 65.9611 97.766 65.9611C100.554 65.9611 102.816 65.9902 102.816 66.0314Z" fill="#E0E0E0"/>
<path d="M98.4117 68.385H96.7035V71.9884H98.4117V68.385Z" fill="#E0E0E0"/>
<path d="M102.816 73.403C102.816 73.4418 100.554 73.471 97.766 73.471C94.9779 73.471 92.7189 73.4418 92.7189 73.403C92.7189 73.3642 94.9779 73.3351 97.766 73.3351C100.554 73.3351 102.816 73.3642 102.816 73.403Z" fill="#E0E0E0"/>
<path d="M98.4117 75.5457H96.7035V79.149H98.4117V75.5457Z" fill="#E0E0E0"/>
<path d="M102.816 80.5637C102.816 80.6025 100.554 80.6316 97.766 80.6316C94.9779 80.6316 92.7189 80.6025 92.7189 80.5637C92.7189 80.5248 94.9779 80.4957 97.766 80.4957C100.554 80.4957 102.816 80.5248 102.816 80.5637Z" fill="#E0E0E0"/>
<path d="M98.4117 82.7354H96.7035V86.3387H98.4117V82.7354Z" fill="#E0E0E0"/>
<path d="M98.4117 90.0197H96.7035V93.623H98.4117V90.0197Z" fill="#E0E0E0"/>
<path d="M102.816 87.7532C102.816 87.7921 100.554 87.8236 97.766 87.8236C94.9779 87.8236 92.7189 87.7921 92.7189 87.7532C92.7189 87.7144 94.9779 87.6853 97.766 87.6853C100.554 87.6853 102.816 87.7144 102.816 87.7532Z" fill="#E0E0E0"/>
<path d="M88.2274 53.7483H86.5192V57.3516H88.2274V53.7483Z" fill="#FAFAFA"/>
<path d="M92.6317 58.7687C92.6317 58.8051 90.3702 58.8367 87.5821 58.8367C84.7941 58.8367 82.5326 58.8051 82.5326 58.7687C82.5326 58.7323 84.7941 58.6984 87.5821 58.6984C90.3702 58.6984 92.6317 58.7299 92.6317 58.7687Z" fill="#E0E0E0"/>
<path d="M88.2274 61.0133H86.5192V64.6167H88.2274V61.0133Z" fill="#FAFAFA"/>
<path d="M92.6317 66.0337C92.6317 66.0726 90.3702 66.1017 87.5821 66.1017C84.7941 66.1017 82.5326 66.0726 82.5326 66.0337C82.5326 65.9949 84.7941 65.9634 87.5821 65.9634C90.3702 65.9634 92.6317 65.9901 92.6317 66.0337Z" fill="#E0E0E0"/>
<path d="M88.2274 68.2806H86.5192V71.884H88.2274V68.2806Z" fill="#FAFAFA"/>
<path d="M92.6317 73.2987C92.6317 73.3375 90.3702 73.3666 87.5821 73.3666C84.7941 73.3666 82.5326 73.3375 82.5326 73.2987C82.5326 73.2598 84.7941 73.2307 87.5821 73.2307C90.3702 73.2307 92.6317 73.2695 92.6317 73.2987Z" fill="#E0E0E0"/>
<path d="M88.2274 75.5457H86.5192V79.149H88.2274V75.5457Z" fill="#FAFAFA"/>
<path d="M92.6317 80.5637C92.6317 80.6025 90.3702 80.6316 87.5821 80.6316C84.7941 80.6316 82.5326 80.6025 82.5326 80.5637C82.5326 80.5248 84.7941 80.4957 87.5821 80.4957C90.3702 80.4957 92.6317 80.5248 92.6317 80.5637Z" fill="#E0E0E0"/>
<path d="M88.2274 82.8105H86.5192V86.4139H88.2274V82.8105Z" fill="#FAFAFA"/>
<path d="M92.6317 87.8286C92.6317 87.8674 90.3702 87.8989 87.5821 87.8989C84.7941 87.8989 82.5326 87.8674 82.5326 87.8286C82.5326 87.7897 84.7941 87.7606 87.5821 87.7606C90.3702 87.7606 92.6317 87.7897 92.6317 87.8286Z" fill="#E0E0E0"/>
<path d="M88.2274 90.0756H86.5192V93.6789H88.2274V90.0756Z" fill="#FAFAFA"/>
<path d="M39.6442 107.796H9.92925L9.79822 60.8337H39.5156L39.6442 107.796Z" fill="#EBEBEB"/>
<path d="M39.5154 60.8313H24.658V107.796H39.5154V60.8313Z" fill="#E0E0E0"/>
<path d="M23.6875 51.5863H13.1929V60.8313H23.6875V51.5863Z" fill="#EBEBEB"/>
<path d="M23.6874 51.5863H21.1857V60.8313H23.6874V51.5863Z" fill="#E0E0E0"/>
<path d="M40.3843 60.2926H7.32324V60.8313H40.3843V60.2926Z" fill="#E0E0E0"/>
<path d="M18.1817 64.8641H15.6654V70.1685H18.1817V64.8641Z" fill="white"/>
<path d="M24.6582 72.2503C24.6582 72.3062 21.3315 72.3523 17.2283 72.3523C13.1251 72.3523 9.80078 72.3062 9.80078 72.2503C9.80078 72.1945 13.1251 72.1484 17.2283 72.1484C21.3315 72.1484 24.6582 72.1945 24.6582 72.2503Z" fill="#E0E0E0"/>
<path d="M33.1678 64.8641H30.6515V70.1685H33.1678V64.8641Z" fill="#F5F5F5"/>
<path d="M39.6442 72.2503C39.6442 72.3062 36.3175 72.3523 32.2167 72.3523C28.1159 72.3523 24.7867 72.3062 24.7867 72.2503C24.7867 72.1945 28.1135 72.1484 32.2167 72.1484C36.3199 72.1484 39.6442 72.1945 39.6442 72.2503Z" fill="#EBEBEB"/>
<path d="M33.1678 75.3951H30.6515V80.6995H33.1678V75.3951Z" fill="#F5F5F5"/>
<path d="M39.6442 82.7815C39.6442 82.8373 36.3175 82.881 32.2167 82.881C28.1159 82.881 24.7867 82.8373 24.7867 82.7815C24.7867 82.7257 28.1135 82.6796 32.2167 82.6796C36.3199 82.6796 39.6442 82.733 39.6442 82.7815Z" fill="#EBEBEB"/>
<path d="M33.1678 86.2441H30.6515V91.5485H33.1678V86.2441Z" fill="#F5F5F5"/>
<path d="M39.6442 93.628C39.6442 93.6838 36.3175 93.7299 32.2167 93.7299C28.1159 93.7299 24.7867 93.6838 24.7867 93.628C24.7867 93.5722 28.1135 93.5261 32.2167 93.5261C36.3199 93.5261 39.6442 93.5722 39.6442 93.628Z" fill="#EBEBEB"/>
<path d="M33.1678 97.0906H30.6515V102.395H33.1678V97.0906Z" fill="#F5F5F5"/>
<path d="M39.6442 104.477C39.6442 104.533 36.3175 104.576 32.2167 104.576C28.1159 104.576 24.7867 104.533 24.7867 104.477C24.7867 104.421 28.1135 104.375 32.2167 104.375C36.3199 104.375 39.6442 104.421 39.6442 104.477Z" fill="#EBEBEB"/>
<path d="M18.1817 75.5554H15.6654V80.8597H18.1817V75.5554Z" fill="white"/>
<path d="M24.6582 82.9416C24.6582 82.9974 21.3315 83.0435 17.2283 83.0435C13.1251 83.0435 9.80078 82.9974 9.80078 82.9416C9.80078 82.8858 13.1251 82.8397 17.2283 82.8397C21.3315 82.8397 24.6582 82.8858 24.6582 82.9416Z" fill="#E0E0E0"/>
<path d="M18.1817 86.2466H15.6654V91.5509H18.1817V86.2466Z" fill="white"/>
<path d="M24.6582 93.6328C24.6582 93.6886 21.3315 93.7323 17.2283 93.7323C13.1251 93.7323 9.80078 93.6886 9.80078 93.6328C9.80078 93.577 13.1251 93.5309 17.2283 93.5309C21.3315 93.5309 24.6582 93.577 24.6582 93.6328Z" fill="#E0E0E0"/>
<path d="M18.1817 96.9376H15.6654V102.242H18.1817V96.9376Z" fill="white"/>
<path d="M24.6582 104.329C24.6582 104.385 21.3315 104.428 17.2283 104.428C13.1251 104.428 9.80078 104.385 9.80078 104.329C9.80078 104.273 13.1251 104.227 17.2283 104.227C21.3315 104.227 24.6582 104.268 24.6582 104.329Z" fill="#E0E0E0"/>
<path d="M95.4538 102.771C95.6382 102.043 95.1699 101.332 94.6409 100.813C94.1119 100.294 93.4835 99.8253 93.2093 99.1386C92.7652 98.0224 93.3622 96.5786 92.6051 95.6493C92.1586 95.1009 91.3579 94.9213 90.9623 94.3341C90.7808 94.0109 90.66 93.6573 90.6057 93.2907C90.1853 91.4372 89.2743 89.7309 87.968 88.3503C87.8796 90.0012 88.2366 91.6456 89.0017 93.1111C89.3099 93.6959 89.686 94.2662 89.7879 94.9189C89.9529 95.9793 89.3633 97.0688 89.6229 98.1097C89.9214 99.3011 91.2584 100.097 91.3215 101.322C91.3749 102.359 90.4722 103.264 90.5377 104.302C90.5945 104.747 90.7567 105.172 91.0109 105.542C91.8116 106.874 92.9885 107.791 94.772 107.76L96.9558 107.838L95.4538 102.771Z" fill="#FF725E"/>
<g opacity="0.3">
<path d="M95.4538 102.771C95.6382 102.043 95.1699 101.332 94.6409 100.813C94.1119 100.294 93.4835 99.8253 93.2093 99.1386C92.7652 98.0224 93.3622 96.5786 92.6051 95.6493C92.1586 95.1009 91.3579 94.9213 90.9623 94.3341C90.7808 94.0109 90.66 93.6573 90.6057 93.2907C90.1853 91.4372 89.2743 89.7309 87.968 88.3503C87.8796 90.0012 88.2366 91.6456 89.0017 93.1111C89.3099 93.6959 89.686 94.2662 89.7879 94.9189C89.9529 95.9793 89.3633 97.0688 89.6229 98.1097C89.9214 99.3011 91.2584 100.097 91.3215 101.322C91.3749 102.359 90.4722 103.264 90.5377 104.302C90.5945 104.747 90.7567 105.172 91.0109 105.542C91.8116 106.874 92.9885 107.791 94.772 107.76L96.9558 107.838L95.4538 102.771Z" fill="black"/>
</g>
<path d="M97.3442 107.838C97.5441 107.868 97.7478 107.863 97.946 107.823C98.1873 107.787 98.4246 107.728 98.6545 107.646C98.9713 107.534 99.2673 107.37 99.5305 107.161C99.6894 107.031 99.8136 106.865 99.892 106.675C99.9563 106.465 99.989 106.247 99.9891 106.027C99.9932 105.791 100.01 105.556 100.04 105.321C100.083 105.072 100.174 104.833 100.307 104.618C100.564 104.166 100.994 103.737 101.132 103.123C101.27 102.509 101.173 101.866 101.071 101.208C100.969 100.551 100.872 99.8398 101.122 99.158C101.372 98.4761 101.836 97.8574 102.076 97.0882C102.316 96.319 102.202 95.4721 102.253 94.6471C102.267 94.228 102.363 93.8157 102.537 93.4339C102.714 93.0456 102.959 92.6816 103.151 92.274C103.539 91.4514 103.607 90.5196 103.714 89.6048C103.765 89.1438 103.816 88.6803 103.869 88.2096C103.902 87.7367 103.984 87.2684 104.112 86.8119C104.26 86.3517 104.435 85.9004 104.636 85.4604C104.736 85.232 104.817 84.9958 104.878 84.7543C104.916 84.5059 104.94 84.2555 104.949 84.0045C104.973 83.4998 104.954 82.994 104.891 82.4928C104.832 81.988 104.74 81.4882 104.687 80.9835C104.687 80.9544 104.687 80.9228 104.687 80.8961L104.675 80.7966L104.585 80.8403C104.123 81.077 103.721 81.4165 103.41 81.8328C103.105 82.2396 102.86 82.6882 102.682 83.1649C102.319 84.1015 102.197 85.0867 102.003 86.0233C101.865 86.951 101.561 87.8461 101.105 88.6658C100.863 89.054 100.576 89.4107 100.322 89.7892C100.052 90.1592 99.8668 90.5843 99.7804 91.034C99.6518 91.9585 100.161 92.769 100.055 93.5867C100.004 93.9885 99.8685 94.3748 99.6567 94.7199C99.4577 95.0693 99.2247 95.3945 99.0039 95.7196C98.7783 96.0369 98.5818 96.374 98.4167 96.7266C98.2628 97.0724 98.1724 97.4431 98.1498 97.821C98.0964 98.5489 98.2008 99.2575 98.1498 99.915C98.0891 100.543 97.9053 101.153 97.6087 101.711C97.3466 102.249 97.0506 102.735 96.8055 103.205C96.6836 103.432 96.5735 103.664 96.4755 103.902C96.3865 104.125 96.3222 104.356 96.2838 104.593C96.2179 105.005 96.2122 105.425 96.2668 105.838C96.3234 106.415 96.5393 106.966 96.8904 107.427C96.9441 107.496 97.0033 107.56 97.0676 107.619C97.1112 107.665 97.1592 107.706 97.2107 107.743L97.3369 107.83C97.1813 107.705 97.039 107.565 96.9123 107.41C96.5752 106.947 96.3705 106.401 96.3202 105.831C96.2712 105.422 96.281 105.009 96.3493 104.603C96.3901 104.372 96.4544 104.146 96.541 103.928C96.6357 103.703 96.7497 103.475 96.8759 103.242C97.1185 102.776 97.4194 102.291 97.6888 101.749C97.9937 101.184 98.1834 100.564 98.2469 99.9247C98.3051 99.2502 98.2032 98.5489 98.2469 97.8307C98.2701 97.4649 98.3597 97.1064 98.5113 96.7727C98.673 96.4264 98.8663 96.0958 99.0889 95.7851C99.3097 95.46 99.5475 95.1373 99.7513 94.7806C99.9721 94.4215 100.114 94.0195 100.166 93.6013C100.273 92.7277 99.7683 91.9027 99.8993 91.0535C99.9837 90.6224 100.163 90.2155 100.423 89.862C100.666 89.4908 100.962 89.1341 101.21 88.7361C101.675 87.9036 101.986 86.9935 102.127 86.05C102.314 85.1061 102.445 84.1331 102.804 83.2134C102.975 82.7501 103.212 82.3137 103.508 81.9177C103.804 81.5176 104.189 81.1919 104.633 80.9665L104.531 80.9107C104.531 80.9374 104.531 80.9689 104.531 80.998C104.587 81.51 104.68 82.0099 104.738 82.5097C104.798 83.0031 104.818 83.5006 104.796 83.9972C104.786 84.2409 104.763 84.4838 104.728 84.7251C104.666 84.9588 104.585 85.1869 104.485 85.407C104.282 85.8513 104.107 86.3075 103.959 86.7731C103.828 87.2363 103.746 87.7121 103.716 88.1926C103.663 88.6633 103.611 89.1292 103.561 89.5903C103.457 90.5075 103.389 91.4247 103.015 92.2206C102.831 92.6161 102.585 92.9801 102.403 93.3805C102.226 93.7766 102.126 94.2034 102.11 94.6374C102.064 95.4794 102.173 96.3044 101.945 97.0639C101.717 97.8234 101.241 98.4252 101.001 99.1313C100.761 99.8374 100.85 100.587 100.955 101.233C101.059 101.878 101.166 102.531 101.025 103.113C100.884 103.696 100.484 104.123 100.22 104.588C100.084 104.812 99.9926 105.059 99.9503 105.316C99.921 105.554 99.9056 105.793 99.9042 106.032C99.9039 106.247 99.872 106.46 99.8095 106.666C99.7366 106.845 99.6207 107.003 99.4722 107.127C99.2152 107.334 98.9259 107.498 98.6157 107.612C98.3893 107.698 98.1553 107.762 97.9168 107.804C97.7701 107.829 97.6217 107.843 97.4728 107.845L97.3442 107.838Z" fill="#263238"/>
<path d="M104.245 82.1069C104.245 82.1069 104.245 82.1288 104.223 82.1724L104.175 82.369C104.133 82.5413 104.08 82.8009 103.997 83.1261C103.915 83.4512 103.714 83.8152 103.546 84.2665C103.346 84.7731 103.173 85.2899 103.027 85.8146C102.859 86.397 102.711 87.0449 102.559 87.7364C102.426 88.4767 102.19 89.1946 101.857 89.8693C101.68 90.226 101.479 90.5851 101.319 90.9758C101.161 91.3791 101.055 91.8006 101.003 92.2303C100.893 93.1163 100.735 93.9959 100.532 94.8655C100.096 96.6562 99.6783 98.3596 99.2973 99.9126C98.9163 101.466 98.5694 102.854 98.2636 104.038C97.9579 105.222 97.7419 106.149 97.5769 106.816C97.4993 107.136 97.441 107.389 97.3974 107.573C97.3812 107.654 97.3666 107.719 97.3537 107.77C97.3499 107.793 97.3499 107.817 97.3537 107.84C97.3641 107.819 97.3722 107.797 97.3779 107.774C97.3925 107.721 97.4119 107.658 97.4338 107.58C97.4847 107.398 97.5527 107.146 97.64 106.828L98.368 104.062L99.4235 99.9611L100.668 94.914C100.874 94.0384 101.031 93.1522 101.139 92.2594C101.189 91.844 101.291 91.4364 101.442 91.0462C101.595 90.6628 101.794 90.3061 101.974 89.947C102.306 89.2616 102.54 88.533 102.67 87.7825C102.821 87.0861 102.961 86.4431 103.121 85.8607C103.282 85.2784 103.449 84.7615 103.607 84.3126C103.764 83.8637 103.959 83.4925 104.039 83.1576C104.119 82.8227 104.158 82.5704 104.192 82.3933C104.204 82.3132 104.216 82.2477 104.226 82.1943C104.237 82.1666 104.244 82.137 104.245 82.1069Z" fill="#263238"/>
<path d="M96.5604 107.697C98.0964 107.066 98.8656 104.642 98.5016 103.024C98.1377 101.405 97.3127 99.8521 97.3927 98.1948C97.4558 96.9209 98.0576 95.6907 97.9435 94.4192C97.7931 92.7061 96.3639 91.1846 96.6332 89.4837C96.7837 88.5301 97.4582 87.7099 97.5553 86.749C97.6742 85.5697 96.9123 84.5093 96.5071 83.3956C95.8859 81.697 96.1043 79.8165 96.0727 78.0015C96.0412 76.1864 95.6456 74.1943 94.2043 73.0927C93.7506 74.5631 93.2046 75.5337 93.0299 77.589C92.9668 78.3169 93.6098 79.8505 93.4909 81.4714C93.4205 82.442 93.3259 83.4126 93.2483 84.3832C93.1706 85.3538 93.0905 86.2831 93.2968 87.2052C93.4545 87.9113 93.7821 88.5786 93.867 89.2968C94.0344 90.6484 93.3575 91.9878 93.4521 93.3466C93.5346 94.4968 94.1655 95.5693 94.1558 96.7243C94.1436 98.3452 92.8746 99.8448 93.1852 101.439C93.3356 102.228 93.8646 102.924 93.9277 103.725C93.9738 104.348 93.7336 104.965 93.7675 105.588C93.8233 106.59 95.5704 107.622 96.5726 107.707" fill="#FF725E"/>
<path d="M94.374 74.6429C94.3709 74.6712 94.3709 74.6996 94.374 74.7279C94.374 74.791 94.374 74.8759 94.374 74.9705C94.374 75.1913 94.374 75.5165 94.374 75.9411C94.374 76.3658 94.539 76.8656 94.6167 77.4528C94.6943 78.04 94.7987 78.7146 94.8593 79.462C94.92 80.2093 94.9321 81.0319 94.9467 81.9152C94.9613 82.7984 94.9782 83.7593 95.2743 84.7202C95.4053 85.2055 95.5606 85.6908 95.6577 86.1907C95.748 86.7088 95.7725 87.2363 95.7305 87.7606C95.6477 88.8748 95.625 89.9926 95.6625 91.1092C95.7669 93.3998 95.8688 95.5812 95.9585 97.5685C96.0483 99.5558 96.1745 101.334 96.2594 102.836L96.473 106.389C96.5021 106.801 96.5239 107.117 96.5385 107.359C96.5385 107.464 96.553 107.546 96.5603 107.602C96.5578 107.63 96.5578 107.659 96.5603 107.687C96.564 107.659 96.564 107.63 96.5603 107.602C96.5603 107.537 96.5603 107.454 96.5603 107.359C96.5603 107.129 96.5385 106.806 96.5215 106.389C96.4802 105.54 96.422 104.329 96.3516 102.834C96.2813 101.339 96.1818 99.5461 96.0823 97.5637C95.9828 95.5812 95.8979 93.3974 95.796 91.1068C95.7577 89.9942 95.7796 88.8805 95.8615 87.7703C95.9021 87.2352 95.8752 86.6972 95.7814 86.1688C95.6819 85.652 95.5242 85.1667 95.3907 84.6887C95.0947 83.7423 95.0826 82.796 95.0559 81.9152C95.0292 81.0343 95.0122 80.2166 94.9515 79.4571C94.8909 78.6976 94.8011 78.0303 94.6968 77.4431C94.5924 76.8559 94.4541 76.3561 94.4226 75.9387C94.391 75.5213 94.4032 75.1938 94.3934 74.9681C94.3934 74.8638 94.3934 74.7788 94.3934 74.7254C94.39 74.6973 94.3835 74.6697 94.374 74.6429Z" fill="#263238"/>
<path d="M81.3315 107.697L46.0963 107.677C44.0612 107.676 42.1099 106.867 40.6715 105.427C39.2332 103.987 38.4255 102.035 38.4261 99.9999L38.4431 11.6752C38.4422 10.6666 38.6401 9.66774 39.0255 8.73571C39.411 7.80367 39.9764 6.95677 40.6895 6.24347C41.4026 5.53017 42.2493 4.96446 43.1812 4.57871C44.1132 4.19295 45.112 3.99472 46.1206 3.99536L81.3558 4.01478C83.3909 4.01606 85.3422 4.82558 86.7806 6.26531C88.2189 7.70504 89.0266 9.6571 89.026 11.6922L89.009 100.017C89.0093 101.025 88.8109 102.024 88.4253 102.956C88.0396 103.887 87.4741 104.734 86.7612 105.447C86.0482 106.16 85.2018 106.726 84.2701 107.112C83.3385 107.498 82.3399 107.697 81.3315 107.697Z" fill="#455A64"/>
<path d="M81.5764 6.64037L74.7216 6.60882C74.4983 6.61292 74.278 6.66101 74.0733 6.75034C73.8687 6.83966 73.6836 6.96847 73.5288 7.12939C73.3739 7.29031 73.2524 7.48019 73.171 7.68815C73.0896 7.89611 73.05 8.11807 73.0546 8.34134V9.58614C73.0591 9.80981 73.0193 10.0322 72.9376 10.2404C72.856 10.4487 72.734 10.6388 72.5786 10.7998C72.4233 10.9608 72.2376 11.0895 72.0324 11.1785C71.8272 11.2676 71.6064 11.3152 71.3827 11.3187L58.0103 11.2556C57.7865 11.2502 57.5661 11.2007 57.3616 11.1099C57.1571 11.0191 56.9725 10.8888 56.8185 10.7265C56.6645 10.5641 56.5441 10.373 56.4642 10.1639C56.3843 9.95491 56.3465 9.73217 56.3529 9.50849V8.26369C56.3594 8.04002 56.3216 7.81727 56.2417 7.60825C56.1618 7.39923 56.0414 7.20805 55.8874 7.0457C55.7334 6.88336 55.5488 6.75304 55.3443 6.66225C55.1398 6.57145 54.9194 6.52196 54.6956 6.51661H52.2861L46.2854 6.48992C45.5768 6.48673 44.8746 6.62317 44.2187 6.89146C43.5629 7.15974 42.9664 7.55461 42.4632 8.05351C41.96 8.5524 41.5601 9.14554 41.2862 9.79905C41.0123 10.4526 40.8699 11.1536 40.867 11.8622L40.5006 98.3815C40.498 99.8109 41.0629 101.183 42.0711 102.196C43.0793 103.209 44.4484 103.781 45.8777 103.785L81.1639 103.948C81.8724 103.951 82.5746 103.815 83.2304 103.547C83.8862 103.279 84.4828 102.885 84.986 102.386C85.4892 101.887 85.8892 101.294 86.1631 100.641C86.437 99.9875 86.5794 99.2865 86.5823 98.5781L86.9487 12.0563C86.9516 11.3479 86.8149 10.646 86.5465 9.99041C86.278 9.33487 85.8831 8.73861 85.3843 8.23569C84.8854 7.73278 84.2924 7.33304 83.639 7.05931C82.9857 6.78559 82.2848 6.64323 81.5764 6.64037Z" fill="#F5F5F5"/>
<path d="M66.6026 87.598C66.5613 88.6439 66.5225 89.6242 66.491 90.437H71.5599L70.9387 87.3239L66.6026 87.598Z" fill="#F5F5F5"/>
<path d="M46.0016 88.901L46.0453 90.437H65.9838C66.0178 89.5756 66.0566 88.6171 66.093 87.632L46.0016 88.901Z" fill="#F5F5F5"/>
<path d="M71.1936 87.3093L71.8172 90.437H81.1617L81.0501 86.6857L71.1936 87.3093Z" fill="#F5F5F5"/>
<path d="M67.1073 43.5594L68.8738 33.3147L64.2465 32.9725V43.5594H67.1073Z" fill="#EBEBEB"/>
<path d="M45.584 83.2157L40.5612 85.1836L40.5466 88.7408L45.7345 88.4108L45.584 83.2157Z" fill="#F5F5F5"/>
<path d="M45.5623 82.4151L45.2881 72.8741H45.2833V69.5085L40.6268 70.0011L40.5662 84.366L45.5599 82.4103L45.5623 82.4151Z" fill="#EBEBEB"/>
<path d="M45.2834 61.996L40.6634 61.387L40.6294 69.2391L45.2834 68.7465V61.996Z" fill="#F5F5F5"/>
<path d="M79.723 69.6493L79.5289 72.384L74.0717 72.9736L74.4939 75.1356L80.6887 74.6697L80.5965 71.5662L81.0915 69.511L79.723 69.6493Z" fill="#F5F5F5"/>
<path d="M69.8881 75.4849L74.2388 75.1549L73.2925 70.2994L69.4926 70.6828L69.8881 75.4849Z" fill="#F5F5F5"/>
<path d="M69.9292 75.9872L70.2616 80.037L70.8513 85.5913L71.0939 86.807L81.0353 86.1785L80.7029 75.1768L69.9292 75.9872Z" fill="#EBEBEB"/>
<path d="M52.8201 56.8688L53.2035 57.524L45.5358 61.996V72.6023L53.6281 72.0296L69.2208 70.4548L68.6506 63.5029L53.7519 61.5617L53.8514 60.8095L68.5875 62.7337L67.6169 50.9676L53.0336 52.3701L52.9851 51.8678L67.5781 50.4605L67.0758 44.3214H53.0458L40.7264 46.5635L40.6658 60.6226L45.3319 61.239L52.8201 56.8688ZM46.3219 71.5904C46.3219 71.5904 46.3802 62.8429 46.3219 62.5177L52.5775 59.1959L53.4 71.1439L46.3219 71.5904Z" fill="#F5F5F5"/>
<path d="M79.2132 69.7026L73.5449 70.2729L73.9744 72.4761L79.0555 71.9277L79.2132 69.7026Z" fill="#F5F5F5"/>
<path d="M66.6732 85.7249C66.6562 86.1835 66.6392 86.6421 66.6222 87.091L70.8395 86.8241L70.6235 85.737L66.6732 85.7249Z" fill="#F5F5F5"/>
<path d="M57.5882 43.5595L58.3307 40.1915H63.9942V32.9533L46.2856 31.6429V38.4371L40.7531 39.6892L40.7289 45.7894L52.9779 43.5595H57.5882Z" fill="#EBEBEB"/>
<path d="M69.415 23.4244L69.2645 22.8033L76.0272 20.1341L71.6158 11.2992C71.5354 11.3106 71.4544 11.3171 71.3732 11.3186L63.8995 11.2822L64.1034 23.6404L69.415 23.4244Z" fill="#F5F5F5"/>
<path d="M79.6525 18.6879V6.6306L74.7316 6.60876C74.5075 6.6116 74.2861 6.65876 74.0803 6.74752C73.8746 6.83628 73.6884 6.96489 73.5325 7.12594C73.3766 7.28699 73.2542 7.47729 73.1722 7.68588C73.0902 7.89447 73.0504 8.11721 73.0549 8.34129V9.58608C73.0549 9.86451 72.989 10.139 72.8624 10.387C72.7359 10.635 72.5524 10.8495 72.3269 11.0129L76.7286 19.8478L79.6525 18.6879Z" fill="#EBEBEB"/>
<path d="M54.2298 19.2047L53.6596 6.51169H52.291L46.9527 6.48743L44.6646 17.8313L54.2298 19.2047ZM53.0166 7.80016L53.1986 18.1371L46.0889 17.0985L47.6467 7.80016H53.0166Z" fill="#F5F5F5"/>
<path d="M54.4896 19.2435V19.3502C54.4896 20.3403 54.5236 22.1237 54.5381 24.031L63.851 23.65L63.6472 11.2748L58.0105 11.2554C57.7867 11.2501 57.5663 11.2006 57.3618 11.1098C57.1573 11.019 56.9727 10.8887 56.8187 10.7263C56.6647 10.564 56.5443 10.3728 56.4644 10.1638C56.3845 9.95478 56.3467 9.73203 56.3532 9.50835V8.26356C56.3596 8.03988 56.3218 7.81713 56.2419 7.60811C56.162 7.39909 56.0416 7.20792 55.8876 7.04557C55.7336 6.88322 55.549 6.75291 55.3445 6.66211C55.14 6.57131 54.9196 6.52182 54.6959 6.51648H53.9097L54.4799 19.2459L54.4896 19.2435Z" fill="#F5F5F5"/>
<path d="M43.9126 17.7246L46.1692 6.48267C44.7601 6.50801 43.4169 7.08384 42.4269 8.08694C41.437 9.09005 40.8789 10.4408 40.8722 11.8501L40.8479 17.4529L40.8722 17.2879L43.9126 17.7246Z" fill="#F5F5F5"/>
<path d="M45.526 31.5872L40.7895 31.2354L40.7579 38.9104L45.526 37.833V31.5872Z" fill="#F5F5F5"/>
<path d="M43.8618 17.9721L40.8481 17.5402L40.7971 29.9687L41.445 30.0172L43.8618 17.9721Z" fill="#F5F5F5"/>
<path d="M53.4293 82.2694L53.5094 72.2916L45.5408 72.8546L45.8222 82.6309L53.4293 82.2694Z" fill="#F5F5F5"/>
<path d="M54.8948 79.9667L66.1804 85.3729C66.3163 81.84 66.4352 78.5375 66.4231 78.3361L66.6657 78.3215L66.7846 78.0789C66.9472 78.159 66.9472 78.1589 66.8623 80.5685C66.8162 81.9127 66.7482 83.7011 66.6803 85.4894H70.5845L70.0094 80.0638L69.2427 70.7096L54.4968 72.1995L54.8948 79.9667Z" fill="#F5F5F5"/>
<path d="M82.5594 63.4059L82.4308 62.0907L68.9031 63.4981L69.4733 70.4306L81.152 69.2513L82.5594 63.4059Z" fill="#F5F5F5"/>
<path d="M63.9944 40.951H58.9399L58.3649 43.5595H63.9944V40.951Z" fill="#F5F5F5"/>
<path d="M80.4702 41.8318L67.8136 40.9558L67.2992 43.9453L67.8306 50.4337L81.1764 49.1501L80.4702 41.8318ZM68.2795 43.9404L68.9589 42.0526L79.951 42.749L80.577 48.1455L68.641 49.5626L68.2795 43.9404Z" fill="#F5F5F5"/>
<path d="M81.7828 55.3935L81.2272 49.6548L67.8717 50.9384L68.374 57.0459L81.7828 55.3935Z" fill="#F5F5F5"/>
<path d="M45.7492 88.918L40.5687 89.2456L40.5468 88.9083L40.5396 90.437H45.7929L45.7492 88.918Z" fill="#F5F5F5"/>
<path d="M86.8541 15.8391L86.9293 16.0308L86.9463 12.0562C86.9521 10.626 86.3897 9.25206 85.3827 8.23644C84.3758 7.22082 83.0067 6.64668 81.5765 6.64026H79.8973V18.5956L86.8541 15.8391Z" fill="#EBEBEB"/>
<path d="M66.1707 85.6447L54.6497 80.1244L54.2444 72.2164L53.7591 72.265L53.6766 82.5048L45.8269 82.8785V83.1066L45.9798 88.3866L66.1076 87.1127C66.1319 86.6347 66.1513 86.13 66.1707 85.6447ZM46.3219 83.5288L57.3115 82.7571L64.4624 86.0742L46.3219 87.0448V83.5288Z" fill="#F5F5F5"/>
<path d="M83.5784 29.1073L84.0492 26.3119C79.9241 24.8366 79.6329 20.5296 79.6451 19.2241L76.9492 20.2918L81.0088 28.4424L83.5784 29.1073Z" fill="#F5F5F5"/>
<path d="M68.8422 62.7434L74.4571 62.1586L73.3507 57.1964L68.4346 57.803L68.8422 62.7434Z" fill="#F5F5F5"/>
<path d="M80.9579 33.9796L70.4681 33.9772L69.597 33.9141L68.4128 40.7835L80.8632 41.6449L80.5745 38.6579L81.7998 34.2465L80.9579 33.9796Z" fill="#F5F5F5"/>
<path d="M80.2321 32.1354L80.3631 28.8572L76.2381 20.5804L69.8467 23.1113L72.0305 32.1354H80.2321ZM75.993 21.585L79.7686 28.7723L79.2251 31.012L72.7585 30.7693L71.1424 23.9751L75.993 21.585Z" fill="#F5F5F5"/>
<path d="M81.8652 71.6972L82.0569 78.1396L86.6018 77.8824L86.6163 78.1347L82.0666 78.3919L82.2972 86.0985L86.5945 85.8267L86.626 86.3314L82.3117 86.6056L82.4282 90.4371H86.6139L86.7061 68.9456L82.4233 69.3775L81.8652 71.6972Z" fill="#F5F5F5"/>
<path d="M54.2397 19.4621L44.6138 18.0814L42.2067 30.078L54.2809 30.9734C54.3295 29.122 54.2882 23.4585 54.2397 19.4621Z" fill="#EBEBEB"/>
<path d="M70.0676 32.138H71.526L69.4634 23.6743L64.1082 23.8927L64.2368 31.7036L70.0676 32.138Z" fill="#F5F5F5"/>
<path d="M54.5286 30.9854L63.9919 31.6867L63.8657 23.9025L54.5504 24.2834C54.5601 26.9235 54.5674 29.7236 54.5286 30.9854Z" fill="#F5F5F5"/>
<path d="M81.8558 56.1482L73.6033 57.1673L74.7122 62.1319L82.3581 61.3361L81.8558 56.1482Z" fill="#F5F5F5"/>
<path d="M84.0929 26.0669L84.6219 22.9294L86.9004 23.1066L86.9295 16.3512L79.8926 19.1344C79.7592 23.8855 82.7438 25.5573 84.0929 26.0669Z" fill="#EBEBEB"/>
<path d="M81.3873 38.1919L81.6737 41.1547L86.8227 41.5114L86.847 35.4088L82.5375 34.0475L81.3873 38.1919Z" fill="#F5F5F5"/>
<path d="M83.8381 63.4955L82.4866 69.1177L86.7063 68.6906L86.7329 62.7967C85.4372 62.4545 84.3064 62.1779 83.6974 62.0687L83.8381 63.4955Z" fill="#F5F5F5"/>
<path d="M80.9868 32.2326L86.8541 34.084L86.8687 30.75L81.1081 29.2601L80.9868 32.2326Z" fill="#F5F5F5"/>
<path d="M83.6246 61.2875C84.0978 61.3603 84.9931 61.5496 86.7354 62.0154L86.7888 49.1283L82.4866 49.5408L83.6246 61.2875Z" fill="#F5F5F5"/>
<path d="M82.438 49.0311L86.7912 48.6114L86.8179 42.2709L81.7489 41.9191L82.438 49.0311Z" fill="#F5F5F5"/>
<path d="M84.578 26.227C85.4054 26.4696 86.1722 26.671 86.8832 26.8142L86.8977 23.6136L85.0439 23.4705L84.578 26.227Z" fill="#F5F5F5"/>
<path d="M84.0713 29.243L86.8715 29.971L86.8836 27.0786C86.1573 26.9363 85.3751 26.7373 84.5372 26.4817L84.0713 29.243Z" fill="#F5F5F5"/>
<path d="M86.6261 86.3314L86.5945 85.8267L82.2972 86.0984L82.0667 78.3919L86.6164 78.1347L86.6042 77.892L82.057 78.1492L81.8653 71.7093L82.4234 69.3871L86.7062 68.9552V68.7004L82.4865 69.1275L83.838 63.5053L83.6973 62.0712C84.3063 62.1877 85.4371 62.4643 86.7328 62.7992V62.0106C84.9906 61.552 84.0952 61.3627 83.6221 61.2826L82.484 49.5287L86.7862 49.1161V48.6066L82.4331 49.0264L81.744 41.9143L86.8129 42.2661V41.5042L81.6639 41.1499L81.3776 38.1872L82.5277 34.0427L86.8469 35.4161V34.0913L80.9796 32.2398L81.0985 29.2674L86.859 30.7572V29.9735L84.0588 29.2455L84.5247 26.4793C85.3643 26.7349 86.1464 26.9339 86.8712 27.0762V26.8166C86.1602 26.6734 85.3934 26.4793 84.566 26.2294L85.0319 23.4729L86.8857 23.6161V23.1089L84.6072 22.9318L84.0783 26.0692C82.7291 25.5597 79.7445 23.8854 79.8877 19.1367L86.9245 16.3535V16.0308L86.8493 15.8391L79.8998 18.5883V6.63297H79.645V18.6903L76.7162 19.8501L72.3267 11.0128C72.1175 11.1631 71.8754 11.2612 71.6206 11.2991L76.015 20.1292L69.2523 22.7983L69.4028 23.4195L64.1033 23.6355L63.8995 11.2773H63.6568L63.8606 23.6524L54.5477 24.0334C54.5332 22.1262 54.5113 20.3427 54.4992 19.3527V19.2459L53.929 6.5165H53.6742L54.2444 19.2095L44.6646 17.8313L46.9431 6.4801H46.2904H46.169L43.9124 17.7221L40.872 17.2853L40.8477 17.4503V17.5377L43.8614 17.9696L41.4349 30.0147L40.7846 29.9662V31.2328L45.5212 31.5847V37.8426L40.7579 38.9103V39.6892L46.2879 38.4371V31.6429L64.0014 32.9557V40.1915H58.3307L57.5881 43.5619H52.9778L40.7288 45.7894V46.561L53.0482 44.319H67.0782L67.5805 50.458L52.9899 51.8629L53.0385 52.3652L67.6217 50.9627L68.5923 62.7288L53.8562 60.8046L53.7567 61.5568L68.6554 63.498L69.2256 70.4499L53.6329 72.0247L45.5406 72.5974V61.996L53.2083 57.524L52.8249 56.8688L45.3367 61.2365L40.6706 60.6202V61.3797L45.2809 61.9887V68.7393L40.6269 69.2246V69.9865L45.2834 69.5012V72.8667L45.5576 82.4077L40.5638 84.3635V85.1788L45.5867 83.2133L45.7371 88.4109L40.5396 88.7409V88.9083L40.5614 89.2456L45.742 88.918L45.7856 90.437H46.0283L45.9846 88.9011L66.076 87.632C66.0396 88.6172 66.0008 89.5732 65.9669 90.437H66.5031C66.5347 89.6242 66.5735 88.6438 66.6147 87.598L70.9509 87.3238L71.5721 90.437H71.8293L71.2057 87.3093L81.0621 86.6857L81.1737 90.437H82.4404M66.622 87.1006C66.639 86.6517 66.656 86.1931 66.673 85.7345L70.6233 85.7466L70.8393 86.8337L66.622 87.1006ZM71.094 86.8167L70.8514 85.6034L70.2618 80.0492L69.9293 75.9994L80.703 75.1889L81.0354 86.1907L71.094 86.8167ZM73.54 70.2728L79.2083 69.7026L79.0505 71.9277L73.9694 72.4761L73.54 70.2728ZM73.2973 70.2995L74.2436 75.1525L69.9002 75.4849L69.5047 70.6829L73.2973 70.2995ZM80.6933 74.6672L74.4984 75.1331L74.0762 72.9711L79.5334 72.3814L79.7275 69.6468L81.0937 69.5109L80.6084 71.5637L80.6933 74.6672ZM73.3555 57.1964L74.462 62.1586L68.8471 62.7409L68.4443 57.803L73.3555 57.1964ZM74.7168 62.1319L73.6079 57.1673L81.858 56.1506L82.3603 61.336L74.7168 62.1319ZM80.3997 41.065L67.9493 40.2036L69.1334 33.3342L70.0045 33.3997H80.4943L81.3363 33.6642L80.1061 38.0853L80.3997 41.065ZM79.6499 19.2265C79.6378 20.532 79.9241 24.839 84.054 26.3143L83.5784 29.1072L81.0087 28.4424L76.9492 20.2917L79.6499 19.2265ZM76.2528 20.5732L80.3778 28.85L80.2468 32.1282H72.0452L69.8614 23.1041L76.2528 20.5732ZM69.4634 23.6743L71.526 32.1355H70.0701L64.2465 31.7036L64.1179 23.8927L69.4634 23.6743ZM63.8558 23.9024L63.982 31.6866L54.5186 30.9853C54.5574 29.7236 54.5502 26.9161 54.5186 24.2833L63.8558 23.9024ZM44.6136 18.0788L54.2396 19.4595C54.2881 23.4559 54.3294 29.1194 54.2808 30.9659L42.2066 30.0778L44.6136 18.0788ZM68.8787 33.3148L67.1122 43.5595H64.2465V32.9726L68.8787 33.3148ZM58.9446 40.9485H63.999V43.5595H58.3695L58.9446 40.9485ZM67.3039 43.9428L67.8183 40.9534L80.4749 41.8294L81.1834 49.1477L67.8377 50.4313L67.3039 43.9428ZM81.232 49.6524L81.7901 55.3935L68.3812 57.046L67.8717 50.9457L81.232 49.6524ZM68.9078 63.4956L82.4355 62.0882L82.5641 63.4034L81.1567 69.2488L69.478 70.4281L68.9078 63.4956ZM70.0094 80.0637L70.5869 85.487H66.6827C66.7506 83.6986 66.8186 81.9103 66.8647 80.566C66.9496 78.1565 66.9496 78.1565 66.787 78.0764L66.6681 78.3191L66.4255 78.3336C66.4376 78.5447 66.3187 81.8472 66.1828 85.3705L54.8947 79.9667L54.4968 72.2019L69.2426 70.712L70.0094 80.0637ZM53.5092 72.2989L53.4291 82.2767L45.822 82.6383L45.5406 72.8619L53.5092 72.2989ZM45.8342 83.1236V82.8955L53.6839 82.5218L53.7664 72.282L54.2517 72.2334L54.6569 80.1414L66.1707 85.6447C66.1513 86.13 66.1319 86.6299 66.1149 87.1176L45.987 88.3915L45.8342 83.1236Z" fill="white"/>
<path d="M57.3115 82.762L46.3219 83.5336V87.0617L64.46 86.079L57.3115 82.762Z" fill="#E0E0E0"/>
<path d="M79.9508 42.7489L68.9587 42.0525L68.2793 43.9403L68.6506 49.5625L80.5865 48.1454L79.9508 42.7489Z" fill="#E0E0E0"/>
<path d="M40.5399 78.4939L40.5132 96.5956V98.5368C40.5498 99.9374 41.1303 101.269 42.1319 102.248C43.1334 103.228 44.4771 103.779 45.8782 103.785L81.1644 103.948C81.8728 103.951 82.575 103.815 83.2308 103.547C83.8866 103.279 84.4832 102.885 84.9864 102.386C85.4896 101.887 85.8896 101.294 86.1635 100.641C86.4374 99.9875 86.5799 99.2865 86.5827 98.578L86.6167 78.4939H40.5399Z" fill="white"/>
<path d="M53.4101 18.797L53.2281 8.45764H47.8582L46.3004 17.756L53.4101 18.797Z" fill="#E0E0E0"/>
<path d="M79.2255 31.0168L79.7715 28.7747L75.9934 21.5874L71.1428 23.9727L72.7613 30.7717L79.2255 31.0168Z" fill="#EBEBEB"/>
<path d="M46.3219 62.5178C46.3801 62.843 46.3219 71.5905 46.3219 71.5905L53.4 71.144L52.5774 59.1959L46.3219 62.5178Z" fill="#E0E0E0"/>
<path d="M69.8881 69.6201L69.5144 64.1993L81.6348 62.6415V63.5757L80.1692 68.5597L69.8881 69.6201Z" fill="#E0E0E0"/>
<path d="M81.1883 83.4294L81.0355 79.8939L70.3855 80.4108C70.1077 80.4233 69.8313 80.3648 69.5824 80.2409L54.4701 72.6072C54.2982 72.52 54.1523 72.3892 54.0471 72.2277C53.9419 72.0663 53.8811 71.88 53.8708 71.6875L51.8155 31.7983C51.8095 31.7036 51.8242 31.6088 51.8585 31.5203C51.8929 31.4319 51.9461 31.352 52.0145 31.2863C52.0822 31.2205 52.163 31.1697 52.2516 31.1371C52.3402 31.1045 52.4347 31.0908 52.5289 31.097L59.0053 31.5823V24.4969H59.7647V31.677C59.7643 31.7685 59.7451 31.859 59.7083 31.9429C59.6715 32.0267 59.6179 32.1021 59.5508 32.1644C59.4837 32.2267 59.4046 32.2746 59.3183 32.3051C59.2319 32.3356 59.1403 32.3481 59.0489 32.3418L52.5775 31.8565L54.6278 71.6511C54.6315 71.71 54.6504 71.7669 54.6828 71.8163C54.7151 71.8657 54.7597 71.9057 54.8123 71.9326L69.9245 79.5664C70.056 79.6322 70.2022 79.6631 70.3491 79.6562L81.0913 79.1345C81.1796 79.1302 81.2678 79.1434 81.351 79.1733C81.4342 79.2033 81.5106 79.2493 81.576 79.3088C81.6413 79.3683 81.6943 79.4401 81.7319 79.5201C81.7695 79.6001 81.7909 79.6868 81.7949 79.7751L81.9502 83.3978L81.1883 83.4294Z" fill="white"/>
<path d="M80.2736 38.1751C80.2793 37.2771 80.0773 36.39 79.6833 35.5831C79.2894 34.7762 78.7142 34.0713 78.0027 33.5235C77.2912 32.9757 76.4626 32.5998 75.5818 32.4253C74.7009 32.2508 73.7917 32.2824 72.925 32.5176C72.0584 32.7527 71.2579 33.1851 70.5861 33.7809C69.9142 34.3767 69.3893 35.1198 69.0523 35.9521C68.7152 36.7844 68.5752 37.6834 68.6432 38.5788C68.7111 39.4741 68.9853 40.3417 69.4441 41.1136L69.4611 41.1354C69.6843 41.5091 69.9634 41.7784 70.2448 42.174L73.6225 46.646C73.7202 46.7761 73.8467 46.8817 73.9923 46.9544C74.1378 47.0271 74.2982 47.065 74.4609 47.065C74.6235 47.065 74.784 47.0271 74.9295 46.9544C75.075 46.8817 75.2016 46.7761 75.2992 46.646L78.6187 42.2467C78.9208 41.8899 79.2027 41.5165 79.4631 41.1281L79.4752 41.1136C79.999 40.2229 80.2746 39.2083 80.2736 38.1751ZM74.45 40.7059C73.9436 40.7059 73.4487 40.5558 73.0277 40.2745C72.6067 39.9932 72.2786 39.5934 72.0849 39.1256C71.8911 38.6578 71.8404 38.1431 71.9392 37.6465C72.038 37.15 72.2818 36.6938 72.6398 36.3358C72.9978 35.9778 73.4539 35.734 73.9505 35.6352C74.4471 35.5364 74.9618 35.5871 75.4296 35.7809C75.8974 35.9746 76.2972 36.3027 76.5785 36.7237C76.8598 37.1447 77.0099 37.6396 77.0099 38.146C77.0105 38.8238 76.742 39.4742 76.2634 39.9543C75.7847 40.4343 75.1351 40.7046 74.4572 40.7059H74.45Z" fill="#FF725E"/>
<path d="M48.9598 86.1737C48.9599 85.7684 48.8666 85.3686 48.6872 85.0052C48.5077 84.6418 48.2469 84.3246 47.925 84.0783C47.6032 83.832 47.2289 83.6632 46.8312 83.585C46.4335 83.5068 46.0232 83.5212 45.632 83.6273C45.2408 83.7333 44.8794 83.9281 44.5757 84.1965C44.2719 84.4649 44.0342 84.7996 43.8808 85.1748C43.7274 85.5499 43.6625 85.9554 43.6912 86.3596C43.7199 86.7639 43.8413 87.1561 44.0461 87.5059C44.148 87.6782 44.2742 87.7995 44.4028 87.9912L45.9339 90.0197C45.9794 90.0773 46.0372 90.1238 46.1032 90.1558C46.1692 90.1878 46.2416 90.2044 46.3149 90.2044C46.3882 90.2044 46.4606 90.1878 46.5266 90.1558C46.5926 90.1238 46.6504 90.0773 46.6959 90.0197L48.2003 88.0227C48.3375 87.861 48.4655 87.6917 48.5837 87.5156C48.8281 87.1105 48.9581 86.6468 48.9598 86.1737ZM46.3222 87.3215C46.0921 87.3219 45.867 87.2541 45.6755 87.1266C45.484 86.9991 45.3347 86.8176 45.2464 86.6051C45.1581 86.3926 45.1349 86.1587 45.1797 85.933C45.2244 85.7073 45.3352 85.5 45.4979 85.3373C45.6606 85.1746 45.8679 85.0639 46.0936 85.0191C46.3193 84.9743 46.5532 84.9975 46.7657 85.0858C46.9781 85.1741 47.1596 85.3234 47.2872 85.5149C47.4147 85.7065 47.4825 85.9315 47.482 86.1616C47.482 86.4692 47.3598 86.7642 47.1423 86.9817C46.9248 87.1993 46.6298 87.3215 46.3222 87.3215Z" fill="#FF725E"/>
<path d="M80.7976 88.0711C80.7976 88.1051 74.2145 88.1342 66.0955 88.1342C57.9764 88.1342 51.3909 88.1051 51.3909 88.0711C51.3909 88.0372 57.974 88.0081 66.0955 88.0081C74.217 88.0081 80.7976 88.0226 80.7976 88.0711Z" fill="#263238"/>
<path d="M66.5029 90.4371C66.5029 90.4735 63.1228 90.5002 58.9541 90.5002C54.7854 90.5002 51.4028 90.4735 51.4028 90.4371C51.4028 90.4007 54.7829 90.374 58.9541 90.374C63.1253 90.374 66.5029 90.4031 66.5029 90.4371Z" fill="#263238"/>
<path d="M52.7448 82.5632L53.2495 83.5896L54.3803 83.7546L53.5626 84.5505L53.7567 85.6789L52.7448 85.1475L51.733 85.6789L51.9247 84.5505L51.1069 83.7546L52.2377 83.5896L52.7448 82.5632Z" fill="#FF725E"/>
<path d="M57.535 82.5632L58.0421 83.5896L59.1729 83.7546L58.3527 84.5505L58.5468 85.6789L57.535 85.1475L56.5231 85.6789L56.7173 84.5505L55.8971 83.7546L57.0303 83.5896L57.535 82.5632Z" fill="#FF725E"/>
<path d="M62.3249 82.5632L62.832 83.5896L63.9628 83.7546L63.1451 84.5505L63.3368 85.6789L62.3249 85.1475L61.3131 85.6789L61.5072 84.5505L60.6895 83.7546L61.8202 83.5896L62.3249 82.5632Z" fill="#FF725E"/>
<path d="M67.1171 82.5632L67.6218 83.5896L68.7526 83.7546L67.9349 84.5505L68.129 85.6789L67.1171 85.1475L66.1053 85.6789L66.297 84.5505L65.4792 83.7546L66.61 83.5896L67.1171 82.5632Z" fill="#FF725E"/>
<path d="M71.9069 82.5632L72.4141 83.5896L73.5448 83.7546L72.7271 84.5505L72.9188 85.6789L71.9069 85.1475L70.8951 85.6789L71.0892 84.5505L70.269 83.7546L71.4022 83.5896L71.9069 82.5632Z" fill="#E0E0E0"/>
<path d="M61.0777 95.0328C61.0777 95.0692 59.2384 95.0959 56.9696 95.0959C54.7009 95.0959 52.8616 95.0692 52.8616 95.0328C52.8616 94.9964 54.7009 94.9697 56.9696 94.9697C59.2384 94.9697 61.0777 94.9988 61.0777 95.0328Z" fill="#E0E0E0"/>
<path d="M82.1883 97.1025C82.1883 97.1365 75.6221 97.1656 67.5249 97.1656C59.4277 97.1656 52.8616 97.1365 52.8616 97.1025C52.8616 97.0685 59.4131 97.037 67.5249 97.037C75.6367 97.037 82.1883 97.0661 82.1883 97.1025Z" fill="#E0E0E0"/>
<path d="M47.5594 98.5319C48.9424 98.5319 50.0636 97.4107 50.0636 96.0277C50.0636 94.6447 48.9424 93.5236 47.5594 93.5236C46.1764 93.5236 45.0553 94.6447 45.0553 96.0277C45.0553 97.4107 46.1764 98.5319 47.5594 98.5319Z" fill="#F5F5F5"/>
<path d="M47.853 95.9574C47.9971 95.898 48.1203 95.7971 48.2067 95.6674C48.2931 95.5377 48.339 95.3852 48.3383 95.2294C48.3399 95.133 48.3225 95.0372 48.2871 94.9476C48.2517 94.8579 48.1989 94.7761 48.1319 94.7068C48.0649 94.6375 47.9849 94.5821 47.8964 94.5438C47.808 94.5054 47.7128 94.4848 47.6164 94.4833C47.52 94.4817 47.4243 94.4991 47.3346 94.5345C47.245 94.5699 47.1631 94.6226 47.0939 94.6897C47.0246 94.7567 46.9692 94.8367 46.9308 94.9252C46.8925 95.0136 46.8719 95.1087 46.8703 95.2051C46.8676 95.3582 46.9099 95.5088 46.9918 95.6382C47.0737 95.7675 47.1918 95.8701 47.3313 95.9331C46.1982 96.0908 46.237 97.3186 46.237 97.3186L48.9061 97.3599C48.9061 97.3599 48.9692 96.1393 47.853 95.9574Z" fill="#E0E0E0"/>
<path d="M63.7366 101.351C63.7036 101.35 63.6722 101.337 63.6493 101.313L62.436 100.046C62.4247 100.035 62.4156 100.021 62.4095 100.007C62.4033 99.9917 62.4001 99.9759 62.4001 99.9598C62.4001 99.9438 62.4033 99.928 62.4095 99.9132C62.4156 99.8984 62.4247 99.885 62.436 99.8737C62.4471 99.8624 62.4603 99.8534 62.4749 99.8473C62.4895 99.8412 62.5051 99.838 62.521 99.838C62.5368 99.838 62.5524 99.8412 62.567 99.8473C62.5816 99.8534 62.5948 99.8624 62.6059 99.8737L63.7342 101.048L64.8407 99.8955C64.8638 99.8732 64.8947 99.8606 64.9268 99.8606C64.959 99.8606 64.9899 99.8732 65.013 99.8955C65.0243 99.9068 65.0334 99.9202 65.0395 99.935C65.0457 99.9498 65.0489 99.9657 65.0489 99.9817C65.0489 99.9977 65.0457 100.014 65.0395 100.028C65.0334 100.043 65.0243 100.057 65.013 100.068L63.8337 101.313C63.8217 101.326 63.8066 101.337 63.7898 101.344C63.7729 101.35 63.7547 101.353 63.7366 101.351Z" fill="#263238"/>
<path d="M21.3389 20.6144C21.5427 20.5683 21.7927 20.5586 21.9043 20.3718C22.0159 20.185 21.8776 19.9108 21.6932 19.7627C21.5088 19.6147 21.2807 19.5031 21.1739 19.292C21.1254 19.1635 21.1104 19.0248 21.1303 18.889C21.1503 18.7531 21.2045 18.6246 21.2879 18.5155C21.4226 18.3036 21.6026 18.1242 21.8149 17.9902C22.0272 17.8562 22.2666 17.7709 22.5158 17.7405C22.7651 17.7101 23.0179 17.7354 23.2562 17.8144C23.4945 17.8934 23.7124 18.0243 23.894 18.1976L24.4788 18.1467C24.5601 18.8289 24.5553 19.5186 24.4642 20.1995C24.3678 20.8865 24.015 21.5115 23.4767 21.949C23.2478 22.1304 22.9654 22.231 22.6735 22.2353C22.5281 22.2352 22.3856 22.1948 22.2618 22.1186C22.138 22.0423 22.0377 21.9332 21.9722 21.8034C21.9152 21.6715 21.9106 21.5228 21.9592 21.3876C22.0079 21.2524 22.1063 21.1408 22.2343 21.0755C21.9291 21.1657 21.6103 21.201 21.2928 21.1798C21.2397 21.1792 21.1874 21.167 21.1396 21.1439C21.0918 21.1209 21.0497 21.0875 21.0162 21.0464C20.907 20.8571 21.1278 20.6605 21.3389 20.6144Z" fill="#263238"/>
<path d="M24.6918 21.2357C24.3121 20.3403 24.0125 19.413 23.7965 18.4647C23.5788 17.5132 23.6013 16.5226 23.862 15.582C23.9056 15.4413 24.289 14.4901 24.4371 14.4974C24.5414 14.4974 24.3206 15.3782 24.3788 15.468C24.9082 16.3301 25.1622 17.3332 25.1068 18.3434C25.0759 19.32 24.9359 20.2902 24.6894 21.2357" fill="#263238"/>
<path d="M28.1645 30.8373C26.6576 30.8907 24.9882 28.0954 24.9008 26.5934L24.3791 17.5401C24.1607 15.1136 25.3934 12.9637 27.8248 12.8133H28.0504C29.1465 12.8092 30.204 13.2174 31.0131 13.9568C31.8222 14.6962 32.3237 15.7128 32.4181 16.8049C32.5953 18.9086 32.7627 21.2381 32.753 22.3664C32.7336 24.7055 30.3944 25.0768 30.3944 25.0768C30.3944 25.0768 30.4138 25.6203 30.4454 26.3046C30.5157 27.8454 30.409 31.4003 28.8682 31.4488L28.1645 30.8373Z" fill="#FFBE9D"/>
<path d="M30.3898 25.0745C29.3099 25.0759 28.2523 24.7677 27.3422 24.1864C27.3422 24.1864 28.092 25.885 30.4238 25.6666L30.3898 25.0745Z" fill="#EB996E"/>
<path d="M31.6612 18.7364C31.6626 18.8233 31.6298 18.9073 31.5699 18.9704C31.51 19.0334 31.4278 19.0705 31.3409 19.0737C31.2985 19.077 31.2558 19.0717 31.2153 19.0583C31.1749 19.0449 31.1375 19.0236 31.1054 18.9956C31.0734 18.9676 31.0472 18.9334 31.0285 18.8952C31.0097 18.8569 30.9988 18.8153 30.9964 18.7728C30.9951 18.7291 31.0024 18.6856 31.0179 18.6448C31.0334 18.604 31.0569 18.5666 31.0868 18.5348C31.1168 18.503 31.1527 18.4775 31.1926 18.4596C31.2324 18.4417 31.2754 18.4319 31.3191 18.4306C31.3618 18.4273 31.4048 18.4327 31.4454 18.4464C31.486 18.4602 31.5234 18.482 31.5554 18.5105C31.5873 18.5391 31.6132 18.5738 31.6314 18.6126C31.6496 18.6514 31.6597 18.6935 31.6612 18.7364Z" fill="#263238"/>
<path d="M31.9159 17.7756C31.8746 17.8193 31.6223 17.6324 31.2631 17.6349C30.904 17.6373 30.6395 17.8168 30.6007 17.7732C30.5619 17.7295 30.625 17.6761 30.739 17.5912C30.8943 17.4834 31.0789 17.4258 31.268 17.4262C31.4542 17.4247 31.636 17.4825 31.7873 17.5912C31.8989 17.6761 31.9377 17.7562 31.9159 17.7756Z" fill="#263238"/>
<path d="M28.4071 18.8601C28.4072 18.9473 28.3738 19.0312 28.3137 19.0945C28.2536 19.1577 28.1715 19.1954 28.0844 19.1998C28.0419 19.2031 27.9992 19.1979 27.9588 19.1844C27.9184 19.171 27.881 19.1497 27.8489 19.1217C27.8168 19.0937 27.7907 19.0595 27.7719 19.0213C27.7532 18.983 27.7423 18.9414 27.7398 18.8989C27.7379 18.8118 27.7704 18.7274 27.8305 18.6642C27.8905 18.601 27.973 18.5641 28.0601 18.5616C28.1026 18.558 28.1454 18.5628 28.1859 18.5759C28.2265 18.589 28.264 18.6101 28.2964 18.6379C28.3287 18.6657 28.3551 18.6997 28.3741 18.7378C28.3932 18.776 28.4044 18.8175 28.4071 18.8601Z" fill="#263238"/>
<path d="M28.4072 17.9454C28.366 17.9891 28.1112 17.8022 27.7521 17.8047C27.3929 17.8071 27.1309 17.9866 27.0921 17.943C27.0532 17.8993 27.1139 17.8459 27.2279 17.761C27.3829 17.6525 27.5677 17.5948 27.7569 17.596C27.9439 17.5945 28.1265 17.6523 28.2786 17.761C28.3805 17.8338 28.4072 17.9138 28.4072 17.9454Z" fill="#263238"/>
<path d="M29.6956 20.6897C29.8841 20.6283 30.08 20.5924 30.278 20.5829C30.3702 20.5829 30.4575 20.5538 30.4721 20.4907C30.4798 20.3961 30.4586 20.3013 30.4114 20.2189C30.3241 19.9981 30.2319 19.7652 30.1373 19.5201C29.7563 18.5277 29.4797 17.7099 29.5209 17.6954C29.5622 17.6808 29.9019 18.4743 30.2828 19.4667C30.3726 19.7094 30.4624 19.952 30.5449 20.1704C30.6023 20.2809 30.6194 20.4078 30.5934 20.5295C30.5802 20.5618 30.5598 20.5906 30.5337 20.6137C30.5076 20.6369 30.4766 20.6537 30.443 20.663C30.3924 20.6773 30.3402 20.6854 30.2877 20.6873C30.0911 20.7117 29.8924 20.7125 29.6956 20.6897Z" fill="#263238"/>
<path d="M28.6497 20.9421C28.708 20.9421 28.708 21.3279 29.0428 21.6045C29.3777 21.8811 29.795 21.8471 29.7975 21.8884C29.7999 21.9296 29.7053 21.966 29.5281 21.9709C29.2997 21.9751 29.0772 21.8986 28.8997 21.7549C28.73 21.616 28.6205 21.4169 28.5939 21.1993C28.5697 21.0367 28.6133 20.9396 28.6497 20.9421Z" fill="#263238"/>
<path d="M28.3734 16.4749C28.337 16.5719 27.9778 16.5258 27.5581 16.5792C27.1383 16.6326 26.7937 16.7466 26.7379 16.6593C26.7136 16.618 26.7719 16.5258 26.9102 16.4312C27.0925 16.3128 27.3005 16.2396 27.5168 16.2177C27.7323 16.1901 27.9512 16.2151 28.155 16.2905C28.3103 16.3511 28.3879 16.4288 28.3734 16.4749Z" fill="#263238"/>
<path d="M31.7629 16.5816C31.6998 16.6617 31.4523 16.5816 31.1563 16.5816C30.8602 16.5816 30.6055 16.6374 30.5472 16.5525C30.523 16.5113 30.5618 16.4288 30.671 16.3511C30.8151 16.2575 30.9845 16.2101 31.1563 16.2152C31.3308 16.2188 31.5001 16.2756 31.6416 16.3778C31.7556 16.4579 31.8042 16.5404 31.7629 16.5816Z" fill="#263238"/>
<path d="M24.5804 19.2702C24.5416 19.2533 22.9717 18.8019 23.0299 20.401C23.0881 22.0001 24.6799 21.6142 24.6799 21.5657C24.6799 21.5172 24.5804 19.2702 24.5804 19.2702Z" fill="#FFBE9D"/>
<path d="M24.1705 20.9786C24.1705 20.9786 24.1438 20.998 24.0977 21.0223C24.0305 21.0481 23.9562 21.0481 23.889 21.0223C23.7837 20.9598 23.6968 20.8705 23.6371 20.7635C23.5774 20.6566 23.5472 20.5357 23.5493 20.4132C23.5396 20.2767 23.5611 20.1398 23.6124 20.0129C23.6251 19.9623 23.6501 19.9156 23.6853 19.8771C23.7204 19.8386 23.7646 19.8093 23.8138 19.792C23.8455 19.7826 23.8796 19.7845 23.9101 19.7973C23.9406 19.8101 23.9658 19.8331 23.9812 19.8624C24.0055 19.9061 23.9958 19.9376 24.0031 19.9401C24.0103 19.9425 24.037 19.9134 24.0225 19.8479C24.012 19.8079 23.988 19.7727 23.9545 19.7484C23.9322 19.7327 23.907 19.7217 23.8803 19.7158C23.8536 19.71 23.8261 19.7095 23.7992 19.7144C23.7345 19.7301 23.6747 19.7619 23.6255 19.8068C23.5763 19.8518 23.5392 19.9085 23.5178 19.9716C23.4558 20.1128 23.4284 20.2666 23.4377 20.4205C23.4352 20.563 23.4745 20.7031 23.5508 20.8235C23.6272 20.9438 23.7372 21.0391 23.8672 21.0975C23.909 21.1063 23.9521 21.1063 23.9939 21.0975C24.0356 21.0887 24.0751 21.0714 24.1098 21.0466C24.1681 21.0174 24.1754 20.981 24.1705 20.9786Z" fill="#EB996E"/>
<path d="M31.2632 14.2013C31.5058 14.046 30.7002 13.2429 30.0499 12.9881C29.0793 12.595 27.5919 12.3912 26.7183 12.6823C25.6652 13.0318 24.8014 13.602 24.3088 14.5944C23.8377 15.6062 23.6435 16.7249 23.7459 17.8362C23.7468 18.1781 23.8398 18.5134 24.0152 18.8068C24.2578 19.1514 24.6922 19.3528 24.6946 19.843C24.6917 19.9322 24.7067 20.0212 24.7388 20.1046C24.7709 20.1879 24.8194 20.264 24.8815 20.3283C25.1872 20.6243 25.5318 20.3283 25.6846 20.0177C26.0073 19.3746 26.0146 18.6273 26.0122 17.909C26.0398 17.3977 25.9833 16.8854 25.8448 16.3925C25.755 16.1304 25.6191 15.8829 25.5439 15.616C25.4975 15.4845 25.4804 15.3445 25.4938 15.2058C25.5072 15.0671 25.5508 14.9329 25.6215 14.8128C25.6582 14.7636 25.6997 14.718 25.7453 14.6769C25.9593 14.4727 26.2238 14.3291 26.5116 14.2609C26.7995 14.1927 27.1003 14.2023 27.3832 14.2887C28.298 14.5677 29.8558 14.9754 30.244 14.6527C30.5223 14.4504 30.7547 14.1916 30.9259 13.8932L31.2632 14.2013Z" fill="#263238"/>
<path d="M26.7934 12.4566C27.2239 12.2822 27.6847 12.1949 28.1491 12.1999C28.6135 12.2049 29.0724 12.3021 29.499 12.4858C29.7273 12.5786 29.9345 12.7164 30.1084 12.8911C30.2822 13.0658 30.4191 13.2737 30.5108 13.5025C30.6637 13.9708 30.489 14.5628 30.0401 14.7667L30.011 14.7885C29.3388 15.0481 28.8923 14.9753 28.2008 14.7715C27.6208 14.5992 27.0967 14.2692 26.5022 14.0994C25.8797 13.9175 25.217 13.9268 24.5999 14.1261C25.1717 13.3866 25.9283 12.8108 26.7934 12.4566Z" fill="#263238"/>
<path d="M24.7841 13.8858C25.0234 13.7678 25.2843 13.7001 25.5508 13.6868C25.8398 13.681 26.1272 13.7304 26.3977 13.8324C26.7296 13.9637 27.0501 14.1219 27.3561 14.3056C27.6676 14.4904 27.992 14.6526 28.3267 14.7909C28.6061 14.9031 28.9041 14.9616 29.2051 14.9632C29.4084 14.9649 29.6102 14.9278 29.7996 14.854C29.8704 14.83 29.9356 14.7921 29.9913 14.7423C29.7409 14.8361 29.4749 14.8814 29.2076 14.8758C28.9186 14.8617 28.6344 14.7968 28.368 14.6841C28.04 14.5431 27.7214 14.381 27.4144 14.1988C27.1063 14.0125 26.7814 13.8557 26.4438 13.7305C26.1591 13.6299 25.8572 13.587 25.5557 13.6043C25.3528 13.6164 25.1546 13.6701 24.9733 13.762C24.9017 13.7884 24.837 13.8307 24.7841 13.8858Z" fill="#455A64"/>
<path d="M25.4344 13.335C25.6627 13.2488 25.9039 13.2021 26.1478 13.1967C26.4106 13.2017 26.6706 13.251 26.917 13.3423C27.2202 13.4587 27.5098 13.6076 27.7809 13.7863C28.0745 13.9707 28.3511 14.16 28.618 14.3104C28.8478 14.4481 29.0919 14.5604 29.346 14.6453C29.5212 14.7015 29.7032 14.7341 29.8871 14.7424C29.9545 14.75 30.0228 14.745 30.0885 14.7278C29.8466 14.6922 29.608 14.637 29.3751 14.5628C29.1267 14.4694 28.8878 14.3524 28.6617 14.2134C28.4045 14.0581 28.1327 13.8688 27.8343 13.682C27.5584 13.4984 27.2619 13.3477 26.951 13.2331C26.6907 13.1423 26.4161 13.0995 26.1406 13.1069C25.9553 13.1139 25.7729 13.1542 25.6019 13.2258C25.5391 13.2502 25.4821 13.2874 25.4344 13.335Z" fill="#455A64"/>
<path d="M29.152 12.6629C29.152 12.6629 29.2345 12.7769 29.3801 12.9371C29.5755 13.1394 29.7428 13.3671 29.8775 13.614C30.0078 13.8593 30.0706 14.1348 30.0595 14.4124C30.0474 14.6259 29.9915 14.7521 30.0085 14.7594C30.0255 14.7666 30.108 14.6502 30.1468 14.4221C30.1855 14.1245 30.1294 13.8222 29.9867 13.5582C29.8472 13.3007 29.6631 13.0698 29.4432 12.8764C29.2782 12.7284 29.1641 12.6507 29.152 12.6629Z" fill="#455A64"/>
<path d="M30.2974 13.3787C30.3335 13.6196 30.34 13.8641 30.3168 14.1066C30.2545 14.3457 30.1616 14.5757 30.0402 14.7909C30.0402 14.7909 30.1251 14.7545 30.2149 14.6405C30.3276 14.4892 30.404 14.314 30.4381 14.1285C30.4728 13.9426 30.4619 13.7511 30.4066 13.5704C30.3629 13.4442 30.3095 13.3714 30.2974 13.3787Z" fill="#455A64"/>
<path d="M23.697 17.8944C23.6455 18.1205 23.6521 18.3559 23.7164 18.5787C23.744 18.812 23.8481 19.0296 24.0124 19.1974C24.0415 19.178 23.9105 18.9111 23.8377 18.552C23.8144 18.3284 23.7672 18.108 23.697 17.8944Z" fill="#FF725E"/>
<path d="M22.057 91.779L22.2996 97.0323C22.2996 97.0323 17.039 99.0294 16.9856 100.002L27.1769 99.9223L27.1551 91.7256L22.057 91.779Z" fill="#455A64"/>
<path d="M25.4371 96.564C25.5395 96.5915 25.6276 96.657 25.6835 96.7471C25.7394 96.8372 25.7589 96.9453 25.738 97.0493C25.7132 97.1488 25.6509 97.235 25.564 97.2897C25.4772 97.3444 25.3726 97.3634 25.2721 97.3429C25.1681 97.3118 25.0792 97.2432 25.0228 97.1504C24.9663 97.0577 24.9462 96.9473 24.9664 96.8406C25.0051 96.7411 25.0807 96.6604 25.1774 96.6152C25.2741 96.57 25.3845 96.5638 25.4856 96.5979" fill="#E0E0E0"/>
<path d="M27.1719 99.9222L27.138 99.0972L17.3737 99.4757C17.3737 99.4757 16.92 99.6771 16.9734 99.995L27.1719 99.9222Z" fill="white"/>
<path d="M22.1223 96.9813C22.1223 97.0298 22.365 97.0516 22.6197 97.2093C22.8745 97.3671 22.9983 97.5757 23.042 97.5563C23.0856 97.5369 23.0128 97.2482 22.7095 97.071C22.4062 96.8939 22.1102 96.9352 22.1223 96.9813Z" fill="#263238"/>
<path d="M21.0547 97.4302C21.0547 97.4787 21.2609 97.5636 21.4308 97.7723C21.6007 97.981 21.6516 98.2042 21.7026 98.2018C21.7535 98.1994 21.7802 97.9155 21.5643 97.6607C21.3483 97.4059 21.0571 97.3841 21.0547 97.4302Z" fill="#263238"/>
<path d="M20.4577 98.7163C20.5038 98.7163 20.5693 98.4736 20.4407 98.2043C20.3121 97.9349 20.0767 97.8282 20.0549 97.8694C20.0331 97.9107 20.1811 98.0538 20.283 98.2795C20.3849 98.5052 20.3995 98.7114 20.4577 98.7163Z" fill="#263238"/>
<path d="M22.2028 95.7779C22.2246 95.824 22.4455 95.7536 22.7342 95.7779C23.023 95.8022 23.2341 95.8822 23.2608 95.8385C23.2874 95.7949 23.0739 95.6202 22.7415 95.5959C22.4091 95.5716 22.1785 95.7391 22.2028 95.7779Z" fill="#263238"/>
<path d="M37.4603 91.779L37.2322 97.0323C37.2322 97.0323 42.4929 99.0294 42.5438 100.002L32.3525 99.9223L32.3768 91.7256L37.4603 91.779Z" fill="#455A64"/>
<path d="M34.0829 96.5641C33.9843 96.593 33.8999 96.6572 33.8457 96.7445C33.7915 96.8318 33.7714 96.9361 33.7893 97.0373C33.8152 97.1367 33.8781 97.2225 33.9652 97.2771C34.0522 97.3316 34.1569 97.3509 34.2576 97.3309C34.3617 97.2997 34.4505 97.2312 34.507 97.1384C34.5634 97.0457 34.5835 96.9353 34.5634 96.8286C34.5247 96.7291 34.4491 96.6484 34.3524 96.6032C34.2557 96.558 34.1453 96.5518 34.0441 96.5859" fill="#E0E0E0"/>
<path d="M32.3451 99.9222L32.3815 99.0972L42.1457 99.4757C42.1457 99.4757 42.5971 99.6771 42.5437 99.995L32.3451 99.9222Z" fill="white"/>
<path d="M37.3973 96.9813C37.3973 97.0298 37.1546 97.0516 36.8998 97.2093C36.645 97.3671 36.5213 97.5757 36.4752 97.5563C36.4291 97.5369 36.5067 97.2482 36.8076 97.071C37.1085 96.8939 37.4094 96.9352 37.3973 96.9813Z" fill="#263238"/>
<path d="M38.4648 97.4302C38.4648 97.4787 38.2586 97.5636 38.0887 97.7723C37.9189 97.981 37.8655 98.2042 37.8169 98.2018C37.7684 98.1994 37.7369 97.9155 37.9553 97.6607C38.1736 97.4059 38.4624 97.3841 38.4648 97.4302Z" fill="#263238"/>
<path d="M39.0617 98.7163C39.0156 98.7163 38.9476 98.4736 39.0787 98.2043C39.2097 97.9349 39.4426 97.8282 39.462 97.8694C39.4815 97.9107 39.3383 98.0538 39.234 98.2795C39.1296 98.5052 39.1102 98.7114 39.0617 98.7163Z" fill="#263238"/>
<path d="M37.3172 95.7779C37.2953 95.824 37.0745 95.7536 36.7858 95.7779C36.497 95.8022 36.2835 95.8822 36.2592 95.8385C36.235 95.7949 36.4461 95.6202 36.7785 95.5959C37.1109 95.5716 37.3414 95.7391 37.3172 95.7779Z" fill="#263238"/>
<path d="M19.8802 52.1954C19.8802 52.5157 21.9452 95.7317 21.9452 95.7317L27.3078 95.7827L29.05 59.0284C29.05 59.0284 31.2921 78.341 31.2921 78.768C31.2921 79.1951 31.9278 95.9962 31.9278 95.9962H37.5864V55.9347L33.9467 50.0674L19.8802 52.1954Z" fill="#263238"/>
<path d="M34.699 95.9914C34.6952 95.9591 34.6952 95.9265 34.699 95.8943C34.699 95.8239 34.699 95.7293 34.699 95.608C34.699 95.3483 34.699 94.9795 34.699 94.5063C34.6844 93.5479 34.6553 92.1623 34.6068 90.4517C34.5024 87.0279 34.3083 82.3035 34.0681 77.0841C33.8279 71.8647 33.5828 67.1354 33.4178 63.7165C33.3353 62.0179 33.2673 60.63 33.2212 59.6666C33.2018 59.1935 33.1873 58.8222 33.1751 58.565C33.1751 58.4437 33.1751 58.3491 33.1751 58.2787C33.1719 58.2456 33.1719 58.2123 33.1751 58.1792C33.1827 58.211 33.1867 58.2436 33.1873 58.2763C33.1873 58.3466 33.1873 58.4413 33.2091 58.5626C33.2237 58.8222 33.2479 59.191 33.2771 59.6642C33.3329 60.6348 33.4129 62.0082 33.5197 63.7116C33.7114 67.1306 33.9613 71.855 34.2064 77.0768C34.4515 82.2986 34.6286 87.0254 34.7087 90.4492C34.7475 92.1623 34.7621 93.5479 34.7621 94.5039C34.7621 94.9892 34.7621 95.3483 34.7621 95.608C34.7621 95.7293 34.7621 95.8239 34.7621 95.8943C34.745 95.9291 34.7238 95.9616 34.699 95.9914Z" fill="#455A64"/>
<path d="M24.8182 58.184C24.8522 58.184 24.8498 66.5942 24.8182 76.9699C24.7867 87.3456 24.7211 95.7583 24.6872 95.7583C24.6532 95.7583 24.6556 87.3481 24.6872 76.9699C24.7187 66.5918 24.7842 58.1815 24.8182 58.184Z" fill="#455A64"/>
<path d="M29.4798 56.9634C29.4039 57.0112 29.3224 57.0495 29.2371 57.0774C29.0697 57.1405 28.8246 57.2303 28.5237 57.3371L28.4679 57.3565V57.2958C28.434 56.7644 28.3927 56.0534 28.3563 55.2745C28.3151 54.4301 28.2859 53.6658 28.2714 53.1125C28.2714 52.8359 28.2714 52.6102 28.2714 52.4574C28.2601 52.3769 28.2601 52.2952 28.2714 52.2147C28.2924 52.294 28.3046 52.3754 28.3078 52.4574C28.3223 52.6102 28.3393 52.8335 28.3587 53.1101C28.3951 53.6633 28.4388 54.4277 28.4776 55.2721C28.5165 56.051 28.5431 56.762 28.5577 57.2934L28.497 57.2521C28.8028 57.1551 29.0503 57.0799 29.225 57.0289C29.307 56.9969 29.3925 56.9749 29.4798 56.9634Z" fill="#455A64"/>
<path d="M29.0017 52.3703C29.0017 52.3703 29.0211 52.3363 29.0842 52.3121C29.1772 52.2849 29.277 52.2945 29.3632 52.3388C29.4317 52.3701 29.4889 52.4219 29.5267 52.4871C29.5645 52.5523 29.5811 52.6277 29.5743 52.7027C29.5667 52.7948 29.5302 52.8821 29.4701 52.9522C29.41 53.0224 29.3293 53.0718 29.2395 53.0934C29.1483 53.108 29.0549 53.0944 28.9716 53.0545C28.8884 53.0147 28.8193 52.9503 28.7736 52.8702C28.7445 52.8173 28.7269 52.7589 28.722 52.6988C28.7171 52.6386 28.725 52.5782 28.7452 52.5213C28.7653 52.4645 28.7973 52.4125 28.839 52.3689C28.8807 52.3253 28.9312 52.2911 28.9871 52.2684C29.0502 52.2441 29.0866 52.249 29.089 52.2684C29.0914 52.2878 28.9458 52.3193 28.8585 52.511C28.8328 52.5611 28.8206 52.6169 28.8232 52.6731C28.8257 52.7293 28.8429 52.7838 28.8731 52.8313C28.9088 52.8878 28.9602 52.9327 29.0209 52.9607C29.0815 52.9886 29.149 52.9985 29.2152 52.9891C29.2789 52.9721 29.336 52.9364 29.3793 52.8867C29.4225 52.837 29.4499 52.7754 29.4578 52.71C29.4641 52.6558 29.4544 52.6009 29.4298 52.5522C29.4052 52.5034 29.3669 52.463 29.3195 52.4358C29.2242 52.3781 29.112 52.355 29.0017 52.3703Z" fill="#455A64"/>
<path d="M31.894 52.824C31.86 52.824 31.8139 52.6347 31.7897 52.3969C31.7654 52.1591 31.7727 51.9601 31.8067 51.9553C31.8406 51.9504 31.8867 52.1446 31.9134 52.3824C31.9401 52.6201 31.9304 52.8191 31.894 52.824Z" fill="#455A64"/>
<path d="M32.3331 52.7803C32.2967 52.7803 32.27 52.5765 32.2676 52.3241C32.2652 52.0717 32.2943 51.8679 32.3283 51.8679C32.3622 51.8679 32.3913 52.0717 32.3913 52.3241C32.3913 52.5765 32.3671 52.7803 32.3331 52.7803Z" fill="#455A64"/>
<path d="M24.7333 53.0835C24.6132 52.7513 24.5741 52.3952 24.6193 52.0449C24.7394 52.3771 24.7785 52.7331 24.7333 53.0835Z" fill="#455A64"/>
<path d="M25.2526 53.1297C25.1419 52.9727 25.088 52.7827 25.0998 52.591C25.0714 52.4011 25.11 52.2072 25.209 52.0426C25.2326 52.2228 25.2374 52.4049 25.2235 52.5861C25.2529 52.7657 25.2626 52.948 25.2526 53.1297Z" fill="#455A64"/>
<path d="M17.3688 101.677L19.1425 103.3C19.8163 103.919 20.6982 104.261 21.6127 104.259H37.8266C38.7387 104.259 39.6176 103.917 40.2895 103.3L42.0633 101.677H17.3688Z" fill="#FF725E"/>
<path d="M42.7768 99.8132H16.8812V101.733H42.7768V99.8132Z" fill="#FF725E"/>
<path d="M14.7604 94.0234H14.3334C13.3993 94.0234 12.6421 94.7806 12.6421 95.7147V106.309C12.6421 107.243 13.3993 108 14.3334 108H14.7604C15.6945 108 16.4517 107.243 16.4517 106.309V95.7147C16.4517 94.7806 15.6945 94.0234 14.7604 94.0234Z" fill="#263238"/>
<path d="M14.6947 107.813C14.6608 107.813 14.5758 104.817 14.5079 101.116C14.44 97.4158 14.4133 94.4191 14.4497 94.4191C14.4861 94.4191 14.5661 97.4158 14.6341 101.114C14.702 104.812 14.7287 107.813 14.6947 107.813Z" fill="#455A64"/>
<path d="M14.5758 106.77C14.2213 106.391 13.8967 105.986 13.6052 105.557C13.2766 105.15 12.9828 104.717 12.7268 104.261C13.0814 104.639 13.4059 105.045 13.6974 105.474C14.025 105.881 14.3187 106.315 14.5758 106.77Z" fill="#455A64"/>
<path d="M14.6805 105.149C14.3114 104.731 13.9732 104.286 13.6686 103.819C13.3294 103.377 13.0252 102.909 12.7587 102.419C13.1277 102.837 13.4659 103.282 13.7705 103.749C14.1091 104.192 14.4133 104.66 14.6805 105.149Z" fill="#455A64"/>
<path d="M14.4498 103.077C14.0956 102.629 13.776 102.156 13.4937 101.66C13.1715 101.188 12.8844 100.693 12.6348 100.179C12.9931 100.626 13.3176 101.099 13.6054 101.594C13.9221 102.067 14.2043 102.563 14.4498 103.077Z" fill="#455A64"/>
<path d="M14.4498 101.388C14.3335 101.258 14.2348 101.114 14.1562 100.958C13.9888 100.684 13.7655 100.301 13.5253 99.8761C13.2851 99.4515 13.074 99.0608 12.9284 98.7769C12.8365 98.6302 12.7647 98.4719 12.7148 98.3062C12.8283 98.4424 12.9267 98.5904 13.0085 98.7478C13.1759 99.022 13.3991 99.4029 13.6369 99.8276C13.8747 100.252 14.0858 100.638 14.2338 100.922C14.3229 101.069 14.3953 101.225 14.4498 101.388Z" fill="#455A64"/>
<path d="M14.4134 99.5316C14.0395 99.0996 13.7208 98.6227 13.4646 98.1121C13.222 97.6995 13.04 97.321 12.9065 97.0444C12.8223 96.8991 12.7578 96.7433 12.7148 96.5809C13.0288 97.0544 13.3156 97.5454 13.5738 98.0514C13.8043 98.459 14.0154 98.8279 14.1732 99.0924C14.2684 99.2299 14.349 99.3771 14.4134 99.5316Z" fill="#455A64"/>
<path d="M14.1925 97.605C13.9382 97.227 13.7174 96.8275 13.5325 96.4111C13.3112 96.0123 13.1268 95.594 12.9817 95.1615C13.2391 95.538 13.4608 95.9377 13.6441 96.3553C13.8658 96.7537 14.0494 97.1721 14.1925 97.605Z" fill="#455A64"/>
<path d="M16.2892 104.03C16.0977 104.514 15.8681 104.983 15.6025 105.43C15.373 105.898 15.106 106.346 14.8042 106.77C14.9972 106.286 15.2276 105.818 15.4933 105.37C15.7222 104.903 15.9884 104.455 16.2892 104.03Z" fill="#455A64"/>
<path d="M16.2455 102.019C16.1042 102.542 15.8946 103.045 15.6219 103.514C15.4157 103.909 15.2191 104.261 15.0687 104.513C14.9995 104.657 14.9105 104.79 14.8042 104.909C15.0072 104.408 15.2431 103.922 15.5103 103.453C15.7166 103.057 15.8961 102.698 16.0247 102.436C16.0822 102.289 16.1563 102.149 16.2455 102.019Z" fill="#455A64"/>
<path d="M16.2893 99.3398C16.1012 99.9206 15.8743 100.488 15.6099 101.038C15.3834 101.603 15.1191 102.152 14.8188 102.681C15.0072 102.1 15.235 101.533 15.5007 100.983C15.7252 100.417 15.9887 99.8685 16.2893 99.3398Z" fill="#455A64"/>
<path d="M16.0852 97.8258C15.9615 98.2938 15.7992 98.7507 15.5999 99.1919C15.4376 99.6484 15.2362 100.09 14.9982 100.512C15.1192 100.043 15.2816 99.586 15.4835 99.1458C15.6458 98.6894 15.8472 98.2477 16.0852 97.8258Z" fill="#455A64"/>
<path d="M15.9132 96.0301C15.8436 96.5075 15.7038 96.972 15.4982 97.4084C15.3308 97.8618 15.0969 98.2879 14.8043 98.6726C14.7727 98.6532 15.0784 98.0878 15.3818 97.3599C15.6851 96.6319 15.8768 96.0204 15.9132 96.0301Z" fill="#455A64"/>
<path d="M13.12 93.8948L16.8811 100.568V95.0182C16.8844 94.7477 16.7821 94.4865 16.5959 94.2903C16.4096 94.0941 16.1541 93.9783 15.8838 93.9676L13.12 93.8948Z" fill="#FF725E"/>
<path d="M16.8813 97.1512H16.2456V102.346H16.8813V97.1512Z" fill="#FF725E"/>
<path d="M45.1718 107.995H45.5989C46.533 107.995 47.2902 107.238 47.2902 106.304V95.7123C47.2902 94.7782 46.533 94.021 45.5989 94.021H45.1718C44.2378 94.021 43.4806 94.7782 43.4806 95.7123V106.304C43.4806 107.238 44.2378 107.995 45.1718 107.995Z" fill="#263238"/>
<path d="M45.2373 107.808C45.2009 107.808 45.2373 104.809 45.298 101.111C45.3586 97.4132 45.4484 94.4116 45.4824 94.4141C45.5163 94.4165 45.4824 97.4132 45.4217 101.114C45.3611 104.814 45.2713 107.811 45.2373 107.808Z" fill="#455A64"/>
<path d="M45.3586 106.755C45.91 105.868 46.5316 105.025 47.2173 104.237C46.9597 104.694 46.6659 105.131 46.3389 105.542C46.0447 105.972 45.7169 106.378 45.3586 106.755Z" fill="#455A64"/>
<path d="M45.2494 105.144C45.5176 104.656 45.8218 104.188 46.1593 103.744C46.4634 103.276 46.8024 102.831 47.1736 102.414C46.9043 102.904 46.5994 103.372 46.2612 103.817C45.9581 104.284 45.6198 104.728 45.2494 105.144Z" fill="#455A64"/>
<path d="M45.4821 103.072C45.7296 102.558 46.0134 102.063 46.3313 101.589C46.6147 101.095 46.9342 100.622 47.2874 100.175C46.758 101.184 46.1546 102.152 45.4821 103.072Z" fill="#455A64"/>
<path d="M45.4821 101.383C45.5351 101.218 45.6076 101.06 45.698 100.912C45.8436 100.628 46.0547 100.24 46.2925 99.8154C46.5303 99.3908 46.756 99.0098 46.921 98.7356C47.0011 98.5798 47.1005 98.4346 47.217 98.3037C47.1635 98.4673 47.0918 98.6243 47.0035 98.772C46.8555 99.0559 46.6444 99.4442 46.4041 99.8712C46.1639 100.298 45.9407 100.679 45.7732 100.953C45.6948 101.108 45.597 101.253 45.4821 101.383Z" fill="#455A64"/>
<path d="M45.5187 99.5267C45.5845 99.3724 45.6658 99.2253 45.7613 99.0875C45.9166 98.823 46.1277 98.4542 46.3582 98.0465C46.6167 97.5401 46.9043 97.0491 47.2197 96.576C47.1753 96.7379 47.1109 96.8936 47.028 97.0395C46.8921 97.3161 46.698 97.6971 46.4674 98.1072C46.2098 98.617 45.8912 99.0936 45.5187 99.5267Z" fill="#455A64"/>
<path d="M45.7371 97.6001C45.8822 97.1676 46.0666 96.7493 46.2879 96.3505C46.4716 95.9335 46.6925 95.534 46.9479 95.1566C46.8043 95.5893 46.6207 96.0076 46.3995 96.4063C46.2155 96.8236 45.9938 97.2232 45.7371 97.6001Z" fill="#455A64"/>
<path d="M43.6405 104.026C44.2087 104.894 44.7053 105.807 45.1255 106.755C44.8234 106.332 44.5571 105.884 44.3296 105.416C44.0644 104.971 43.834 104.506 43.6405 104.026Z" fill="#455A64"/>
<path d="M43.694 102.014C43.7837 102.145 43.8586 102.286 43.9172 102.434C44.0434 102.696 44.2254 103.055 44.4292 103.45C44.6976 103.919 44.9335 104.405 45.1353 104.906C45.0302 104.786 44.9413 104.653 44.8708 104.511C44.7228 104.268 44.5238 103.906 44.3176 103.511C44.046 103.041 43.8364 102.538 43.694 102.014Z" fill="#455A64"/>
<path d="M43.6405 99.3351C43.9431 99.8646 44.209 100.414 44.4364 100.98C44.702 101.53 44.929 102.098 45.1158 102.679C44.8146 102.149 44.5495 101.599 44.3223 101.034C44.0567 100.484 43.8288 99.9161 43.6405 99.3351Z" fill="#455A64"/>
<path d="M43.8445 97.8209C44.0843 98.242 44.2857 98.6838 44.4463 99.1409C44.646 99.5819 44.8084 100.039 44.9316 100.507C44.6935 100.085 44.4922 99.6435 44.3298 99.187C44.1296 98.7463 43.9672 98.2892 43.8445 97.8209Z" fill="#455A64"/>
<path d="M44.0193 96.0251C44.0533 96.0251 44.2425 96.6293 44.5483 97.3549C44.854 98.0804 45.1573 98.6482 45.1258 98.6676C44.577 97.8734 44.2001 96.9734 44.0193 96.0251Z" fill="#455A64"/>
<path d="M46.5429 93.7468L42.777 100.298V94.8654C42.7769 94.598 42.8809 94.3409 43.0671 94.1489C43.2533 93.9568 43.5069 93.8448 43.7743 93.8366L46.5429 93.7468Z" fill="#FF725E"/>
<path d="M43.4807 96.8746H42.777V101.732H43.4807V96.8746Z" fill="#FF725E"/>
<path d="M43.4854 101.747C43.4854 101.781 37.3609 101.81 29.8097 101.81C22.2584 101.81 16.1315 101.781 16.1315 101.747C16.1315 101.713 22.2535 101.684 29.8097 101.684C37.3658 101.684 43.4854 101.713 43.4854 101.747Z" fill="#263238"/>
<path d="M18.6087 62.0616C18.6087 62.0616 18.4437 59.4191 16.2769 59.6933C14.11 59.9675 14.0518 61.916 14.0518 61.916L13.12 61.751C13.12 61.751 13.4646 58.9896 16.5171 59.0673C19.5696 59.1449 19.509 62.2484 19.509 62.2484L18.6087 62.0616Z" fill="#455A64"/>
<g opacity="0.3">
<path d="M18.6087 62.0616C18.6087 62.0616 18.4437 59.4191 16.2769 59.6933C14.11 59.9675 14.0518 61.916 14.0518 61.916L13.12 61.751C13.12 61.751 13.4646 58.9896 16.5171 59.0673C19.5696 59.1449 19.509 62.2484 19.509 62.2484L18.6087 62.0616Z" fill="black"/>
</g>
<path d="M8.42725 61.2948L7.95166 73.7719L24.4543 74.0752L24.7358 61.7461L8.42725 61.2948Z" fill="#455A64"/>
<path d="M24.7359 61.7462C24.7359 61.7462 24.7359 61.7656 24.7068 61.7971L24.6073 61.9354C24.5102 62.0665 24.3792 62.2412 24.2166 62.4644C23.8721 62.9206 23.3819 63.5855 22.7413 64.3838C22.0069 65.3338 21.1722 66.2018 20.2517 66.9728C19.7022 67.42 19.1 67.7981 18.4585 68.0987C17.7585 68.4283 17.0012 68.6186 16.2286 68.6593C15.4589 68.6829 14.6932 68.5397 13.9841 68.2395C13.3264 67.9618 12.7145 67.5863 12.169 67.1257C11.2593 66.3351 10.4947 65.3916 9.90997 64.3377C9.51001 63.6357 9.14557 62.9142 8.81804 62.1757L8.55356 61.5739L8.48804 61.4162C8.47348 61.3798 8.46863 61.3604 8.47105 61.3604C8.48194 61.3766 8.49167 61.3937 8.50017 61.4113L8.57782 61.5642L8.86415 62.1562C9.1068 62.6682 9.46835 63.4156 9.98762 64.2916C10.5779 65.3276 11.3411 66.2549 12.2443 67.0335C12.7827 67.4838 13.3855 67.8511 14.0326 68.123C14.7232 68.413 15.4678 68.552 16.2164 68.5307C16.9676 68.4936 17.7045 68.3106 18.3857 67.992C19.0239 67.6993 19.6237 67.3293 20.1716 66.8903C21.0884 66.1278 21.9228 65.2715 22.6612 64.3352C23.3115 63.5466 23.8138 62.8915 24.1681 62.4426L24.5782 61.9306L24.6898 61.7971C24.7035 61.7787 24.7189 61.7616 24.7359 61.7462Z" fill="#263238"/>
<path d="M22.1955 74.034C22.1591 74.034 22.6614 71.3406 23.3141 68.0332C23.9668 64.7259 24.5273 62.0495 24.5589 62.0568C24.5904 62.0641 24.093 64.7502 23.4403 68.0575C22.7875 71.3648 22.2294 74.0413 22.1955 74.034Z" fill="#263238"/>
<path d="M24.6656 61.8408C24.6698 61.882 24.6698 61.9234 24.6656 61.9646C24.6656 62.0616 24.6656 62.1805 24.6656 62.3237C24.6535 62.6343 24.6243 63.0808 24.5855 63.6364C24.5054 64.7429 24.3647 66.2716 24.1924 67.9556C24.0201 69.6396 23.8746 71.1489 23.7629 72.2724C23.712 72.811 23.6707 73.2429 23.6416 73.5802L23.6052 73.9369C23.6038 73.979 23.5964 74.0207 23.5834 74.0607C23.5765 74.0189 23.5765 73.9763 23.5834 73.9345C23.5834 73.8374 23.5834 73.721 23.5834 73.5778C23.5834 73.2672 23.6246 72.8183 23.6634 72.2651C23.7435 71.1562 23.8843 69.6299 24.0565 67.9435C24.2288 66.2571 24.3744 64.7502 24.486 63.6292C24.537 63.0905 24.5782 62.6586 24.6074 62.3188C24.6243 62.1781 24.6365 62.0592 24.6462 61.9646C24.6465 61.9226 24.653 61.8809 24.6656 61.8408Z" fill="#263238"/>
<path d="M16.0207 68.193L15.5282 68.2014L15.5439 69.1185L16.0364 69.1101L16.0207 68.193Z" fill="#263238"/>
<path d="M24.7358 61.7462C24.681 61.752 24.6256 61.752 24.5708 61.7462H24.0855L22.3408 61.7219L16.5925 61.5884L10.8441 61.4162L9.10185 61.3482L8.61655 61.324C8.56191 61.3242 8.50739 61.3185 8.45398 61.307C8.50883 61.3012 8.56414 61.3012 8.61898 61.307H9.10428L10.8465 61.3337L16.5973 61.4671L22.3457 61.6394L24.0879 61.7074L24.5732 61.7316C24.6278 61.7306 24.6823 61.7354 24.7358 61.7462Z" fill="#263238"/>
<path d="M15.6922 54.8113C15.6922 54.8113 14.61 57.808 14.576 58.2836C14.542 58.7592 14.0616 59.5187 14.6076 59.6958C14.6076 59.6958 14.5154 60.0647 15.0929 60.1981C15.0929 60.1981 15.0929 60.8266 15.8548 60.7586C15.8548 60.7586 16.3765 61.2706 16.806 61.0013C16.806 61.0013 17.4708 61.3313 17.7426 60.846C17.953 60.4413 18.1362 60.023 18.291 59.5939L18.7229 59.9336C18.8776 59.5865 18.9225 59.2005 18.8515 58.8271C18.7253 58.2448 17.9877 57.5071 18.1527 56.7792C18.1953 56.5164 18.2694 56.2598 18.3735 56.0148L15.6922 54.8113Z" fill="#FFBE9D"/>
<g opacity="0.3">
<path d="M21.392 65.8516C20.7796 67.2932 19.8101 68.555 18.5749 69.5181C17.7037 70.2218 16.6191 70.7823 15.5053 70.6658C14.5347 70.5639 13.6806 69.9621 12.9721 69.2851C11.5364 67.9178 10.4883 66.1949 9.93408 64.2914C9.93408 64.2914 12.6032 68.6979 15.7795 68.6372C18.6428 68.5693 21.392 65.8516 21.392 65.8516Z" fill="black"/>
</g>
<path d="M32.6146 26.6809C32.6146 26.6809 36.9605 27.5787 37.4967 28.2363C37.9262 28.7604 40.2071 34.0769 40.2071 34.0769L42.0464 37.3381C42.4334 37.6519 42.7174 38.0745 42.8617 38.5513C43.091 39.6206 43.2016 40.7118 43.1917 41.8053C43.1917 41.8053 42.8642 43.9503 41.5223 44.0401C40.8903 44.0657 40.2594 43.9656 39.6663 43.7457C39.0732 43.5257 38.5296 43.1904 38.067 42.7589C37.2832 42.0576 35.3663 37.3041 35.4342 37.0615L32.6146 26.6809Z" fill="#FF725E"/>
<path d="M24.6532 25.7103L24.8425 25.4919L26.8225 27.734L28.4119 29.4738L30.404 25.2614L30.9815 25.686C30.9815 25.686 33.1265 41.9217 33.0901 42.111C33.0537 42.3002 33.92 51.1618 33.92 51.1618C33.92 51.1618 29.3558 52.0693 28.0333 51.6471C26.7109 51.2249 23.77 51.8898 23.7894 51.7539C23.8088 51.618 22.5276 46.1923 22.5276 46.1923L22.9037 31.313L24.6532 25.7103Z" fill="#FAFAFA"/>
<path d="M33.1462 49.1769C33.0342 49.1615 32.9238 49.1364 32.8162 49.1017C32.6075 49.0459 32.3067 48.9561 31.9378 48.83C30.9794 48.5044 30.0467 48.1078 29.1474 47.6434C28.2483 47.1784 27.3845 46.648 26.5631 46.0565C26.2477 45.8284 25.9978 45.6367 25.8352 45.4984C25.7472 45.4311 25.666 45.3555 25.5925 45.2727C25.6912 45.3274 25.7853 45.3899 25.874 45.4595C26.0487 45.5857 26.3059 45.7677 26.6238 45.9861C27.4575 46.5516 28.3236 47.0677 29.2177 47.5318C30.1134 47.9922 31.0363 48.3974 31.9815 48.745C32.3431 48.8785 32.6391 48.9877 32.8429 49.0532C32.9475 49.0853 33.049 49.1267 33.1462 49.1769Z" fill="#263238"/>
<path d="M28.407 29.4738C28.4133 29.5351 28.4133 29.5969 28.407 29.6582C28.407 29.7892 28.407 29.9663 28.407 30.1847C28.407 30.6579 28.407 31.3179 28.3924 32.1259C28.3924 33.7662 28.3803 36.0326 28.4118 38.5343C28.4434 41.036 28.5041 43.3048 28.5526 44.9427C28.5768 45.7531 28.5963 46.4132 28.6108 46.8839C28.6108 47.1023 28.6108 47.2794 28.6108 47.4104C28.6177 47.4717 28.6177 47.5336 28.6108 47.5949C28.5993 47.5348 28.5928 47.474 28.5914 47.4129C28.5914 47.2794 28.5696 47.1047 28.5574 46.8839C28.5283 46.4277 28.4968 45.7629 28.4604 44.9427C28.39 43.3024 28.3148 41.036 28.2808 38.5319C28.2468 36.0277 28.2663 33.7614 28.3002 32.1211C28.3172 31.3009 28.3342 30.636 28.3536 30.1799C28.3536 29.9591 28.3706 29.7843 28.3754 29.6509C28.3805 29.591 28.3911 29.5317 28.407 29.4738Z" fill="#263238"/>
<path d="M29.419 51.0695C29.3404 50.5067 29.3023 49.9391 29.3049 49.3709C29.2641 48.8055 29.2641 48.2378 29.3049 47.6724C29.3835 48.2351 29.4216 48.8027 29.419 49.3709C29.4598 49.9364 29.4598 50.504 29.419 51.0695Z" fill="#263238"/>
<path d="M24.5369 25.9116L23.0688 27.518C23.0688 27.518 21.2174 27.9693 19.1258 28.6657C18.7055 28.8397 18.3301 29.1068 18.028 29.4468C17.7258 29.7868 17.5046 30.1909 17.3811 30.6287C17.2234 31.1601 19.8901 44.0352 19.8901 44.0352L19.4291 47.7429L18.0072 58.4364C18.0072 58.4364 20.4725 59.3148 22.0546 59.3779C22.9451 59.4143 23.0931 55.9274 23.4692 53.5106C23.8308 51.1764 24.7674 43.7027 24.7674 41.6208C24.7674 39.5389 24.333 29.5053 24.333 29.2893C24.333 29.0734 24.5369 25.9116 24.5369 25.9116Z" fill="#FF725E"/>
<path d="M24.4811 44.7315C24.4562 44.6694 24.4367 44.6053 24.4229 44.5398C24.3865 44.4015 24.3404 44.2195 24.2797 43.989C24.1584 43.5037 23.9861 42.8025 23.7774 41.9532C23.3625 40.2207 22.8068 37.8476 22.1662 35.2269C21.9915 34.482 21.8192 33.7589 21.6567 33.0649V33.0455V33.0285L22.8699 30.0294L22.916 30.0997H21.7246H21.6445L21.6858 30.0318C22.1711 29.2044 22.5715 28.5322 22.8554 28.0542L23.1781 27.5204C23.213 27.4562 23.2536 27.3953 23.2994 27.3384C23.2703 27.4059 23.2371 27.4715 23.1999 27.5349L22.8966 28.0809C22.6248 28.5662 22.239 29.2432 21.7659 30.0779L21.7246 30.01H22.916H22.9937L22.9645 30.0828C22.6127 30.9806 22.2123 31.9948 21.7828 33.0892V33.0528C21.9478 33.7443 22.1177 34.4674 22.2948 35.2124L23.8696 41.9459C24.0638 42.8 24.2215 43.4964 24.3331 43.9914C24.3841 44.2341 24.4253 44.4112 24.4544 44.5495C24.4675 44.6095 24.4764 44.6703 24.4811 44.7315Z" fill="#263238"/>
<path d="M30.9718 25.6204L31.9133 26.4769L37.3122 28.0056L37.385 36.6294L36.5794 45.275L38.2319 58.1816C36.3586 59.2128 33.5633 58.992 33.5633 58.992L32.2797 51.4505C32.0783 50.0431 31.377 40.5579 31.377 40.5579L30.9718 25.6204Z" fill="#FF725E"/>
<path d="M32.9129 43.1371C32.9133 43.0728 32.9198 43.0086 32.9323 42.9454C32.9542 42.812 32.9809 42.63 33.0148 42.4043C33.0901 41.919 33.1944 41.2469 33.323 40.417C33.5657 38.7379 33.9029 36.4133 34.1917 33.8388C34.3349 32.5503 34.4562 31.3225 34.5581 30.199C34.6066 29.6409 34.6503 29.1095 34.694 28.6097C34.7134 28.367 34.7522 28.1098 34.6163 27.9497C34.5374 27.8828 34.4427 27.8372 34.3412 27.8172C34.2397 27.7973 34.1348 27.8036 34.0364 27.8356C33.837 27.884 33.6325 27.9076 33.4273 27.906C33.2415 27.8909 33.0623 27.83 32.9056 27.7289C32.6638 27.562 32.4562 27.3503 32.2942 27.1052C32.1583 26.9087 32.0515 26.751 32.003 26.6418C31.9672 26.5884 31.9371 26.5315 31.9132 26.4719C31.9533 26.5219 31.9898 26.5746 32.0224 26.6296C32.0928 26.7316 32.1923 26.8869 32.333 27.0761C32.4974 27.3097 32.7039 27.5105 32.942 27.6682C33.0886 27.7593 33.2552 27.8134 33.4273 27.8259C33.6264 27.8247 33.8244 27.7986 34.017 27.7483C34.128 27.7261 34.2414 27.7188 34.3543 27.7264C34.481 27.7346 34.5995 27.7921 34.6843 27.8866C34.7662 27.9881 34.81 28.1152 34.808 28.2457C34.8104 28.3704 34.8056 28.4952 34.7935 28.6194C34.7522 29.1168 34.711 29.6506 34.6673 30.2087C34.5727 31.3298 34.4538 32.56 34.3106 33.8485C34.0218 36.4254 33.6797 38.75 33.4055 40.4267C33.2648 41.2639 33.1459 41.9409 33.0585 42.4092C33.0148 42.6324 32.9784 42.812 32.9517 42.9454C32.945 43.0104 32.932 43.0746 32.9129 43.1371Z" fill="#263238"/>
<path d="M36.5674 34.0451C36.2768 34.1141 35.9776 34.1403 35.6793 34.1228C35.3817 34.1486 35.0819 34.1323 34.7888 34.0742C35.0808 34.0085 35.3805 33.9832 35.6793 33.999C35.9761 33.9729 36.275 33.9884 36.5674 34.0451Z" fill="#263238"/>
<g opacity="0.3">
<path d="M37.5305 38.5706C37.8934 38.0878 38.418 37.7519 39.0082 37.6242C39.1514 37.5951 39.3406 37.6 39.3965 37.7334C39.4104 37.7889 39.4084 37.8473 39.3909 37.9017C39.3733 37.9562 39.3407 38.0047 39.297 38.0416L39.115 38.2624C38.5486 38.7995 38.191 39.5199 38.1056 40.2958C37.9949 39.9384 37.9988 39.5554 38.1167 39.2003C38.2347 38.8452 38.4607 38.536 38.7631 38.3158C38.1856 38.4322 37.7464 38.886 37.3461 39.3179C37.3111 39.1879 37.3097 39.0512 37.3419 38.9205C37.3742 38.7898 37.439 38.6694 37.5305 38.5706Z" fill="black"/>
</g>
<path d="M37.1232 39.5219C37.1232 39.5219 37.1911 39.4151 37.3149 39.2574C37.4742 39.0493 37.6621 38.8647 37.873 38.709C38.0847 38.5544 38.3166 38.4295 38.5621 38.3378C38.7514 38.2698 38.8727 38.2431 38.8727 38.2334C38.8727 38.2237 38.8387 38.2334 38.7829 38.2334C38.701 38.2481 38.62 38.2676 38.5403 38.2917C38.029 38.4582 37.5849 38.7849 37.2736 39.2235C37.2276 39.2897 37.1855 39.3586 37.1475 39.4297C37.1426 39.4904 37.1183 39.5195 37.1232 39.5219Z" fill="#263238"/>
<path d="M38.1785 40.8055C38.1785 40.8055 38.1785 40.6356 38.1785 40.3639C38.188 40.2058 38.2082 40.0485 38.2391 39.8931C38.2807 39.7026 38.3359 39.5153 38.4041 39.3326C38.4783 39.1524 38.5659 38.978 38.6662 38.8109C38.7498 38.6756 38.8422 38.5459 38.9428 38.4227C39.1151 38.214 39.2437 38.1048 39.2389 38.0951C39.2046 38.1165 39.1728 38.1417 39.1442 38.1703C39.1151 38.1946 39.0787 38.2261 39.0399 38.265C39.0011 38.3038 38.9574 38.345 38.9137 38.3984C38.8068 38.5193 38.7095 38.6483 38.6225 38.7842C38.5191 38.9529 38.4298 39.1298 38.3556 39.3132C38.2839 39.498 38.2287 39.6889 38.1906 39.8834C38.161 40.0436 38.1439 40.2059 38.1397 40.3687C38.1359 40.4301 38.1359 40.4917 38.1397 40.5531C38.1366 40.6 38.1366 40.647 38.1397 40.6939C38.148 40.7325 38.161 40.77 38.1785 40.8055Z" fill="#263238"/>
<path d="M37.3073 31.5048C37.3141 31.549 37.3141 31.594 37.3073 31.6382C37.3073 31.7426 37.3073 31.8687 37.3073 32.024C37.2927 32.3783 37.2733 32.8587 37.2491 33.4435C37.186 34.6568 37.1011 36.3019 37.0064 38.1218C36.9118 39.9417 36.7977 41.5844 36.7249 42.7977C36.6837 43.3801 36.6521 43.8605 36.6255 44.2123C36.6255 44.3676 36.6012 44.4962 36.5939 44.5982C36.5927 44.6434 36.5853 44.6883 36.5721 44.7316C36.5686 44.6864 36.5686 44.641 36.5721 44.5957C36.5721 44.4938 36.5721 44.3531 36.5721 44.2099C36.5866 43.8556 36.6085 43.3752 36.6327 42.7904C36.6958 41.5772 36.7808 39.932 36.8754 38.1121C36.97 36.2922 37.0816 34.6519 37.1544 33.4387C37.1957 32.8539 37.2297 32.3759 37.2539 32.0216C37.2685 31.8663 37.2782 31.7401 37.2879 31.6382C37.2893 31.5931 37.2958 31.5484 37.3073 31.5048Z" fill="#263238"/>
<path d="M18.7934 28.9883C18.7934 28.9883 17.5656 29.442 17.2307 31.3129C16.8958 33.1837 14.8042 56.0777 14.8042 56.0777L18.342 56.2816L20.0818 43.8215L18.7934 28.9883Z" fill="#FF725E"/>
<path d="M20.0817 44.0836C20.118 44.0836 19.7298 46.9954 19.2154 50.5842C18.701 54.173 18.2448 57.0703 18.223 57.063C18.2011 57.0557 18.5772 54.1512 19.0892 50.5648C19.6012 46.9784 20.0477 44.0788 20.0817 44.0836Z" fill="#263238"/>
<path d="M19.1211 33.1765C19.1575 33.1765 19.4001 35.603 19.6646 38.624C19.9291 41.645 20.1184 44.0812 20.082 44.0861C20.0456 44.0909 19.8054 41.6596 19.5385 38.6361C19.2715 35.6127 19.0871 33.1789 19.1211 33.1765Z" fill="#263238"/>
<path d="M28.4071 29.5926C28.3131 29.5299 28.2254 29.4584 28.145 29.379L27.4631 28.7627L27.5384 28.7433C27.32 29.3669 27.0167 30.1992 26.6794 31.114L26.6406 31.2208L26.5702 31.1334L26.5217 31.0703C25.9501 30.359 25.4617 29.5848 25.0658 28.7627C24.9129 28.4473 24.8037 28.1852 24.7358 28.0032C24.6943 27.9099 24.6634 27.8122 24.6436 27.712C24.6979 27.7982 24.7442 27.8892 24.7819 27.9838C24.8644 28.1609 24.9833 28.4133 25.1458 28.7118C25.5635 29.5155 26.0593 30.2763 26.626 30.983L26.6745 31.0436L26.5653 31.0606C26.9051 30.1458 27.2181 29.3184 27.4559 28.702L27.4826 28.6365L27.5311 28.6851L28.1838 29.3305C28.2679 29.4092 28.3428 29.4971 28.4071 29.5926Z" fill="#263238"/>
<path d="M31.0108 27.12C31.0225 27.2151 31.0225 27.3112 31.0108 27.4063C30.9914 27.615 30.9671 27.8746 30.938 28.1804C30.87 28.8355 30.7657 29.7382 30.6468 30.7355V30.8131L30.625 30.9757L30.5303 30.8398C29.9625 30.0245 29.4578 29.2844 29.1011 28.753H29.1691L28.6376 29.2844C28.5756 29.353 28.5064 29.4148 28.4314 29.4688C28.4795 29.3899 28.5374 29.3173 28.6037 29.2529L29.106 28.6924L29.1424 28.6535L29.1739 28.6972C29.55 29.2165 30.0669 29.9469 30.6298 30.7646L30.5158 30.7913V30.7161C30.6371 29.7188 30.7584 28.8185 30.8433 28.1658C30.8894 27.8601 30.9258 27.6029 30.9574 27.3942C30.9651 27.3011 30.983 27.2092 31.0108 27.12Z" fill="#263238"/>
<path d="M17.6724 54.3429C17.6724 54.3429 17.7185 54.3284 17.7986 54.3429C17.9131 54.3769 18.0103 54.4532 18.0704 54.5565C18.1119 54.6267 18.1399 54.704 18.1529 54.7846C18.1678 54.8822 18.1526 54.9821 18.1092 55.0709C18.0605 55.1718 17.9843 55.2569 17.8895 55.3165C17.7947 55.3762 17.685 55.4079 17.5729 55.4082C17.4613 55.3912 17.3577 55.3397 17.2768 55.261C17.1959 55.1822 17.1416 55.0801 17.1216 54.969C17.1031 54.8824 17.1067 54.7925 17.1322 54.7077C17.1576 54.6228 17.2041 54.5458 17.2672 54.4837C17.3481 54.3981 17.4561 54.3433 17.5729 54.3284C17.6554 54.3284 17.6991 54.3284 17.6967 54.3454C17.5568 54.37 17.429 54.4399 17.3327 54.5443C17.2847 54.5994 17.2506 54.6651 17.2333 54.736C17.216 54.807 17.216 54.881 17.2332 54.952C17.252 55.0367 17.2955 55.1139 17.3581 55.1739C17.4207 55.2339 17.4997 55.2741 17.5851 55.2893C17.6724 55.287 17.7574 55.2613 17.8313 55.2147C17.9052 55.1682 17.9651 55.1025 18.0049 55.0248C18.0381 54.9602 18.0554 54.8887 18.0554 54.8161C18.0554 54.7435 18.0381 54.672 18.0049 54.6074C17.869 54.3672 17.6627 54.3623 17.6724 54.3429Z" fill="#263238"/>
<path d="M37.0526 49.832C37.0526 49.832 33.8132 50.0747 33.9539 50.0237L34.8857 51.7805L37.9043 51.567L37.0526 49.832Z" fill="#FF725E"/>
<path d="M37.0528 49.832C37.0791 49.8669 37.1018 49.9043 37.1207 49.9436L37.3003 50.2809C37.4653 50.6012 37.6861 51.0283 37.9506 51.5451L37.9821 51.6107H37.9093L34.8907 51.8387H34.8495L34.8301 51.8023L34.7961 51.7393C34.4807 51.1375 34.1774 50.5673 33.9007 50.0407L33.9711 50.0698C33.9711 50.0698 33.9954 50.0698 33.9881 50.0067C33.9808 49.9437 33.9493 49.9752 33.9541 49.9728H34.0949H34.2599L34.5826 49.9558L35.1795 49.9242L36.1647 49.8709L36.8053 49.8417C36.882 49.836 36.959 49.836 37.0358 49.8417C36.9614 49.8626 36.8849 49.8749 36.8077 49.8781L36.1695 49.9388L35.1868 50.0189L34.5874 50.0625L34.2647 50.0844H34.0997H34.0124H33.9129C33.9129 50.0844 33.9129 50.0965 33.8765 50.0456C33.8401 49.9946 33.9007 49.9825 33.8935 49.9825H33.9104L33.9565 49.9679L33.9808 50.0116L34.8835 51.7101L34.9174 51.7757L34.8568 51.7417L37.8778 51.5403L37.8365 51.6131L37.242 50.3489L37.0795 49.9922C37.0642 49.9401 37.0552 49.8863 37.0528 49.832Z" fill="#263238"/>
<path d="M22.1931 50.247L19.257 49.832L18.6359 51.7805L21.635 52.2149L22.1931 50.247Z" fill="#FF725E"/>
<path d="M22.193 50.247C22.1895 50.2916 22.1805 50.3356 22.1663 50.378L22.0693 50.7711C21.9819 51.1132 21.8533 51.6155 21.6835 52.227V52.2682H21.6374L18.6698 51.8509H18.6358H18.563L18.5848 51.7781C18.8081 51.0841 19.0216 50.4265 19.2133 49.8369L19.2278 49.7908H19.274C20.1548 49.9194 20.8949 50.0334 21.4093 50.1208L22.0038 50.2203C22.0713 50.2275 22.1379 50.2413 22.2027 50.2615C22.2027 50.2615 22.1178 50.2615 21.9601 50.2421L21.3486 50.1717C20.8293 50.1086 20.1014 50.0213 19.2473 49.9048L19.3104 49.866C19.1211 50.4581 18.9124 51.1181 18.694 51.8072L18.6431 51.7247H18.677L21.6422 52.159L21.5864 52.1954C21.7587 51.6106 21.9091 51.1278 22.0159 50.7856C22.0644 50.6279 22.1057 50.4969 22.1421 50.3877C22.1553 50.3395 22.1723 50.2924 22.193 50.247Z" fill="#263238"/>
<path d="M42.6238 30.5632C42.6787 30.5922 42.727 30.6321 42.7658 30.6805C42.8046 30.7289 42.8331 30.7848 42.8495 30.8447C42.8707 30.9378 42.8596 31.0353 42.8179 31.1213L41.4809 34.0986L40.6098 35.8505L38.0377 35.2293L39.6999 31.08C39.6999 31.08 39.8358 30.5074 40.3599 30.5074H42.403C42.4802 30.5062 42.5564 30.5255 42.6238 30.5632Z" fill="#455A64"/>
<path d="M42.0418 31.3129H42.3766C42.4011 31.3124 42.425 31.3054 42.4459 31.2926C42.4668 31.2798 42.4839 31.2617 42.4955 31.2401C42.5065 31.2197 42.5119 31.1968 42.5113 31.1736C42.5107 31.1504 42.5041 31.1278 42.4921 31.108C42.4801 31.0881 42.4632 31.0718 42.4429 31.0605C42.4227 31.0492 42.3998 31.0434 42.3766 31.0436H42.0418C42.0162 31.0436 41.9912 31.0509 41.9697 31.0646C41.9482 31.0784 41.9311 31.098 41.9204 31.1212C41.9112 31.1417 41.9072 31.1642 41.9088 31.1866C41.9104 31.2091 41.9175 31.2307 41.9295 31.2497C41.9415 31.2687 41.9581 31.2845 41.9777 31.2955C41.9973 31.3065 42.0193 31.3125 42.0418 31.3129Z" fill="white"/>
<path d="M42.481 38.8618C42.5732 38.6677 42.2383 38.3765 42.2383 38.3765C42.2383 38.3765 41.8307 36.4087 41.9957 36.0738C42.1607 35.7389 42.0782 35.3264 42.1073 34.6325C42.1364 33.9385 42.3888 33.691 42.3888 33.691C42.3888 33.691 42.4106 33.2469 42.4664 32.8878C42.4951 32.6618 42.436 32.4334 42.3014 32.2496L41.4861 34.1083L41.3526 33.9409C40.9958 33.4056 40.5473 32.9374 40.0278 32.5578C39.7657 32.4171 39.5667 32.6791 39.4915 32.883C39.4163 33.0868 39.7172 33.441 39.904 33.5697C40.0909 33.6983 40.3893 34.5233 40.4985 34.8242C40.6077 35.125 40.4985 35.1906 40.3092 35.3095C40.12 35.4283 39.3993 34.8242 39.0499 34.681C38.7383 34.5067 38.4559 34.2848 38.2128 34.0234C38.1467 33.973 38.0681 33.9418 37.9854 33.9332C37.9028 33.9247 37.8194 33.9391 37.7444 33.9749C37.4702 34.0986 37.594 34.6325 37.594 34.6325C37.1596 34.9625 37.3853 35.6031 37.3853 35.6031C37.3853 35.6031 36.951 35.637 36.9218 35.7826C36.8927 35.9282 37.0407 36.7095 37.2834 36.8988C37.526 37.0881 38.5646 37.816 38.5646 37.816C38.7964 38.1683 39.1204 38.4502 39.5012 38.6313L39.705 39.6529C40.1503 39.7832 40.6235 39.7832 41.0687 39.6529C41.5963 39.5069 42.0808 39.2355 42.481 38.8618Z" fill="#FFBE9D"/>
<path d="M37.5964 34.5718C37.5964 34.5718 37.5964 34.5718 37.5964 34.5985C37.5932 34.6234 37.5932 34.6487 37.5964 34.6737C37.6119 34.7664 37.6484 34.8544 37.7032 34.9309C37.7835 35.0426 37.8809 35.1409 37.9919 35.2221C38.1157 35.3143 38.2564 35.4041 38.4093 35.4963C38.6692 35.6495 38.9401 35.7833 39.2197 35.8966C39.3265 35.9379 39.4163 35.9694 39.477 35.9889L39.574 36.0155C39.574 36.0155 39.443 35.9573 39.2343 35.8627C38.9594 35.7412 38.692 35.6035 38.4336 35.4502C38.1675 35.3161 37.9295 35.1324 37.7323 34.9091C37.6575 34.8109 37.6106 34.6944 37.5964 34.5718Z" fill="#EB996E"/>
<path d="M37.4021 35.6053C37.4519 35.6865 37.5123 35.7608 37.5817 35.8261C37.7417 35.9921 37.9199 36.1394 38.1131 36.2653C38.3066 36.3912 38.5143 36.4938 38.7318 36.5711C38.8203 36.6082 38.9133 36.6335 39.0084 36.6463C39.0084 36.6463 38.9065 36.605 38.7464 36.5371C38.5354 36.4514 38.3331 36.3458 38.1422 36.2216C37.9518 36.0983 37.7731 35.9577 37.6083 35.8019C37.4797 35.6805 37.407 35.6005 37.4021 35.6053Z" fill="#EB996E"/>
<path d="M41.6023 35.6153C41.6658 35.565 41.7089 35.4935 41.7236 35.4139C41.7571 35.2256 41.7521 35.0324 41.7091 34.8461C41.6807 34.6592 41.6401 34.4744 41.5878 34.2928C41.5707 34.2161 41.5438 34.1419 41.5077 34.072C41.5162 34.1501 41.5317 34.2272 41.5538 34.3025C41.5853 34.4433 41.6266 34.6374 41.6606 34.8534C41.7006 35.0349 41.7096 35.222 41.6872 35.4066C41.6688 35.4798 41.6402 35.55 41.6023 35.6153Z" fill="#EB996E"/>
<path d="M40.5735 36.4837C40.5735 36.4837 40.605 36.4837 40.656 36.4837C40.7214 36.4619 40.7766 36.4171 40.8113 36.3576C40.8454 36.2981 40.8574 36.2285 40.8453 36.161C40.8453 36.11 40.8137 36.0834 40.8064 36.0882C40.8162 36.1711 40.8028 36.2551 40.7676 36.3309C40.6948 36.4498 40.5686 36.4692 40.5735 36.4837Z" fill="#EB996E"/>
<path d="M39.712 37.2603C39.712 37.2603 39.7509 37.2797 39.8164 37.2603C39.9019 37.2481 39.9807 37.207 40.0396 37.1438C40.0985 37.0809 40.1337 36.9994 40.1391 36.9133C40.1391 36.8478 40.1391 36.809 40.1221 36.8114C40.1051 36.8138 40.1221 36.8502 40.1051 36.9084C40.0888 36.9831 40.0537 37.0524 40.0032 37.1098C39.9491 37.1641 39.8824 37.2041 39.8091 37.2263C39.7756 37.2342 39.7431 37.2456 39.712 37.2603Z" fill="#EB996E"/>
<path d="M38.9647 37.7214C38.9647 37.7214 38.9963 37.7359 39.0472 37.7214C39.1129 37.7005 39.1705 37.6598 39.2122 37.6049C39.2544 37.5499 39.2774 37.4826 39.2777 37.4132C39.2777 37.3598 39.2608 37.3307 39.2559 37.3331C39.2466 37.4195 39.2175 37.5025 39.171 37.5758C39.1145 37.6397 39.0439 37.6896 38.9647 37.7214Z" fill="#EB996E"/>
<path d="M39.5061 38.6773C39.5601 38.7134 39.6201 38.7397 39.6832 38.755C39.8317 38.804 39.9833 38.8429 40.137 38.8714C40.2902 38.8984 40.445 38.9154 40.6005 38.9224C40.6648 38.9324 40.7303 38.9324 40.7946 38.9224C40.7946 38.9078 40.501 38.8957 40.1467 38.8302C39.7924 38.7647 39.511 38.6627 39.5061 38.6773Z" fill="#EB996E"/>
<path d="M38.705 34.4964L38.7317 34.4358L38.7996 34.2562L39.0422 33.5913C39.2485 33.0235 39.5275 32.2471 39.8333 31.3929C39.8917 31.1826 40.0169 30.997 40.19 30.8639C40.3732 30.7756 40.5772 30.7395 40.7796 30.7596L41.8303 30.7717H42.5388H42.7232C42.7458 30.7753 42.7687 30.7753 42.7912 30.7717H42.7232H42.5316L41.823 30.7523L40.7723 30.7305C40.6706 30.7233 40.5684 30.7233 40.4666 30.7305C40.3575 30.7408 40.2522 30.7757 40.1584 30.8324C39.974 30.9688 39.84 31.1625 39.7775 31.3832C39.4717 32.2446 39.1975 33.0235 39.001 33.5889L38.7729 34.2586C38.7462 34.3338 38.7268 34.3945 38.7122 34.4406C38.7073 34.4588 38.7048 34.4776 38.705 34.4964Z" fill="#263238"/>
<path d="M104.954 107.83C104.954 107.864 82.6299 107.893 55.1012 107.893C27.5726 107.893 5.2439 107.864 5.2439 107.83C5.2439 107.796 27.5677 107.765 55.1012 107.765C82.6347 107.765 104.954 107.794 104.954 107.83Z" fill="#263238"/>
</svg>
